<?xml version="1.0" encoding="utf-8" ?>
<svg baseProfile="full" height="200mm" version="1.1" viewBox="0,0,200,200" width="200mm" xmlns="http://www.w3.org/2000/svg" xmlns:ev="http://www.w3.org/2001/xml-events" xmlns:xlink="http://www.w3.org/1999/xlink"><defs /><rect fill="#1a1a1a" height="200" width="200" x="0" y="0" /><text alignment-baseline="middle" fill="#e1ed5e" style="dominant-baseline: central; font-size:9.0px; font-family:Arial;" text-anchor="middle" x="100.0" y="100.0">2023</text><line stroke="#e1ed5e" stroke-width="0.3" x1="100.0" x2="100.0" y1="15.0" y2="10.0" /><path d="M 100.0 14.0 a86.0,86.0 0 0,1 42.46469731375804,11.215312516191453" fill="none" id="id1" stroke="none" /><text fill="#e1ed5e" style="font-size:6.75px; font-family:Arial;" text-anchor="middle"><textPath startOffset="22.20632615414155" xlink:href="#id1">January</textPath></text><line stroke="#e1ed5e" stroke-width="0.3" x1="143.23703022742887" x2="145.7803849466894" y1="26.81831364943548" y2="22.513508569990506" /><path d="M 143.74570117128098 25.957352633546492 a86.0,86.0 0 0,1 28.547481713284135,27.462654790039103" fill="none" id="id2" stroke="none" /><text fill="#e1ed5e" style="font-size:6.75px; font-family:Arial;" text-anchor="middle"><textPath startOffset="19.985693538727396" xlink:href="#id2">February</textPath></text><line stroke="#e1ed5e" stroke-width="0.3" x1="172.23445277983987" x2="176.4835382374775" y1="55.19839476539836" y2="52.563006222186495" /><path d="M 173.08426987136738 54.67131705675599 a86.0,86.0 0 0,1 12.851231095245387,41.99856678651699" fill="none" id="id3" stroke="none" /><text fill="#e1ed5e" style="font-size:6.75px; font-family:Arial;" text-anchor="middle"><textPath startOffset="22.20632615414155" xlink:href="#id3">March</textPath></text><path d="M 118.3937258080291 89.86733742301442 l 16.61056607575264 -9.150362629895024 a39.96417785234899,39.96417785234899 0 0,0 0.32673931707814896,0.6053983314436187 l -16.765613492049255 8.863083315118947" fill="red" stroke="none" /><path d="M 119.196687751892 91.48605970444005 l 17.426791792216733 -7.728972142470988 a40.0638422818792,40.0638422818792 0 0,0 0.2741688731096978,0.6328195598117505 l -17.55725137516911 7.427853438072634" fill="red" stroke="none" /><path d="M 119.34039704204932 91.81776055985345 l 17.537085812577324 -7.419322100209585 a40.04194630872483,40.04194630872483 0 0,0 0.26309143835577653,0.6370967862042123 l -17.662198937819298 7.116350743552069" fill="red" stroke="none" /><path d="M 119.47837535516314 92.15188598940014 l 17.624381382599545 -7.101113513569841 a40.001174496644296,40.001174496644296 0 0,0 0.2518292038459048,0.6408778554634926 l -17.74400413632715 6.796686653210564" fill="red" stroke="none" /><path d="M 119.61058180528143 92.48833698450437 l 17.72214670454514 -6.78831435382848 a39.97776845637584,39.97776845637584 0 0,0 0.2406193568966843,0.644740248065383 l -17.836370649943447 6.482250968733764" fill="red" stroke="none" /><path d="M 119.7369772167798 92.82701384747503 l 17.805147243991684 -6.470903483449327 a39.94454697986577,39.94454697986577 0 0,0 0.22929486080336403,0.6482474486691362 l -17.913895185604858 6.163458408353576" fill="red" stroke="none" /><path d="M 120.18372546131832 94.20196356495316 l 18.213973826233048 -5.232199777681237 a39.95058724832215,39.95058724832215 0 0,0 0.1841783509181115,0.6625875219221696 l -18.30133894771752 4.917900952340116" fill="red" stroke="none" /><path d="M 120.28053869075195 94.5502522615342 l 18.42456801190989 -4.951014831815213 a40.07818791946309,40.07818791946309 0 0,0 0.17329745119421763,0.6677857719307151 l -18.507061794974412 4.633132634335648" fill="red" stroke="none" /><path d="M 120.73433829027371 96.67025291283417 l 18.686996329900207 -3.0009624964280626 a39.92642617449664,39.92642617449664 0 0,0 0.10313206266653914,0.6795114358941478 l -18.735884286006044 2.678851948141833" fill="red" stroke="none" /><line stroke="#e1ed5e" stroke-width="0.3" x1="184.98032266829074" x2="189.97916517819016" y1="98.17113171792111" y2="98.06355123074" /><path d="M 185.9800911702706 98.14961562048488 a86.0,86.0 0 0,1 -9.607161424134198,41.387399972396054" fill="none" id="id4" stroke="none" /><text fill="#e1ed5e" style="font-size:6.75px; font-family:Arial;" text-anchor="middle"><textPath startOffset="21.466115282336823" xlink:href="#id4">April</textPath></text><path d="M 120.99980553446 99.90962569577887 l 18.93078107018872 -0.08147009574795283 a39.93095637583893,39.93095637583893 0 0,0 -0.002958128431744265,0.6873648693394246 l -18.92937864446747 -0.24440425179515657" fill="red" stroke="none" /><path d="M 120.92983693683757 101.71520430193887 l 18.93016459670731 1.5513307557373284 a39.993624161073825,39.993624161073825 0 0,0 -0.062133720695140365,0.6856404303514352 l -18.900656279735095 -1.8769525746373341" fill="red" stroke="none" /><path d="M 120.89721153311464 102.0752229133903 l 18.884126845876207 1.8753110991785165 a39.97701342281879,39.97701342281879 0 0,0 -0.07389598352073247,0.6841850316296256 l -18.849048560854424 -2.2000924526929335" fill="red" stroke="none" /><path d="M 120.64145759157962 103.86396538481128 l 14.83023419412281 2.776136875048556 a36.0878355704698,36.0878355704698 0 0,0 -0.11955395901908554,0.609603061354919 l -14.780250302128058 -3.0310036634714197" fill="red" stroke="none" /><path d="M 120.5718875245553 104.21870165774334 l 14.541346191254444 2.98201131080659 a35.84395973154362,35.84395973154362 0 0,0 -0.12915084138140956,0.6033497344049521 l -14.48786131114859 -3.2318748646277116" fill="red" stroke="none" /><path d="M 120.49622156327973 104.57218783832717 l 10.74504098564891 2.3969464598747026 a32.00914429530201,32.00914429530201 0 0,0 -0.12459092094025045,0.5367344265632485 l -10.702189498778106 -2.5815495437865157" fill="red" stroke="none" /><path d="M 119.79798401119884 107.00284435728193 l 16.05288118722038 5.678145228143167 a38.02751677852349,38.02751677852349 0 0,0 -0.2235940826840156,0.6152348857090318 l -15.952762843531138 -5.95362791085833" fill="red" stroke="none" /><path d="M 119.67450827220406 107.3425965602758 l 16.053210357001404 5.991115280641138 a38.13473154362416,38.13473154362416 0 0,0 -0.23481137784554973,0.6130184121082021 l -15.947704699562347 -6.266557259582484" fill="red" stroke="none" /><line stroke="#e1ed5e" stroke-width="0.3" x1="174.80103733775053" x2="179.2010983576182" y1="140.37084112569926" y2="142.7455964860345" /><path d="M 175.68104954172406 140.8457921977663 a86.0,86.0 0 0,1 -30.038265399797805,32.042727171017184" fill="none" id="id5" stroke="none" /><text fill="#e1ed5e" style="font-size:6.75px; font-family:Arial;" text-anchor="middle"><textPath startOffset="22.206326154141568" xlink:href="#id5">May</textPath></text><path d="M 117.55443506779139 111.5257021239791 l 6.591749275455891 4.327939824406917 a28.885570469798658,28.885570469798658 0 0,0 -0.27647190299377666,0.4132879827753012 l -6.516274267051394 -4.440764721388025" fill="red" stroke="none" /><path d="M 112.92097659922987 116.55440617244103 l 15.859631595917147 20.319422542700067 a46.77609060402685,46.77609060402685 0 0,0 -0.6389865041752725,0.4899476036192501 l -15.507516363248381 -20.58940948814669" fill="red" stroke="none" /><path d="M 112.34349029814194 116.9893568818739 l 15.08379248273903 20.76105926538099 a46.662080536912754,46.662080536912754 0 0,0 -0.6538750060822796,0.4665224553815241 l -14.724190148807866 -21.017625982606734" fill="red" stroke="none" /><line stroke="#e1ed5e" stroke-width="0.3" x1="143.8653032363475" x2="146.44561519142675" y1="172.8068346515853" y2="177.08958963109032" /><path d="M 144.38136562736335 173.6633856474863 a86.0,86.0 0 0,1 -40.68145358897372,12.25698825130547" fill="none" id="id6" stroke="none" /><text fill="#e1ed5e" style="font-size:6.75px; font-family:Arial;" text-anchor="middle"><textPath startOffset="21.466115282336833" xlink:href="#id6">June</textPath></text><path d="M 101.62511606390274 120.93702456842531 l 2.0059977722642115 25.84407697087169 a46.92181208053691,46.92181208053691 0 0,0 -0.8057977508559364,0.05557253070184395 l -1.5608372606293448 -25.874777846089817" fill="red" stroke="none" /><line stroke="#e1ed5e" stroke-width="0.3" x1="102.19456741930631" x2="102.32365962044197" y1="184.97166512339345" y2="189.96999836594603" /><path d="M 102.22038585953345 185.97133177190398 a86.0,86.0 0 0,1 -42.740103519485714,-10.115201625700543" fill="none" id="id7" stroke="none" /><text fill="#e1ed5e" style="font-size:6.75px; font-family:Arial;" text-anchor="middle"><textPath startOffset="22.20632615414155" xlink:href="#id7">July</textPath></text><path d="M 99.45781275523022 120.99299961872073 l -0.6486168334812404 25.11385701031982 a46.12223154362417,46.12223154362417 0 0,0 -0.7934773139076774,-0.02732896305408053 l 1.0808144990635609 -25.098971248839643" fill="red" stroke="none" /><path d="M 98.73552117531835 120.96189622390904 l -1.4767760904410587 24.48125389649702 a45.52575503355705,45.52575503355705 0 0,0 -0.7818229813693687,-0.05391909023002988 l 1.8979618325893575 -24.452206461750702" fill="red" stroke="none" /><path d="M 97.2962882734958 120.8252237178851 l -3.3051126091014833 25.457488245736805 a46.671140939597315,46.671140939597315 0 0,0 -0.7957905327218846,-0.11028931657539964 l 3.742831733010199 -25.396824363668802" fill="red" stroke="none" /><line stroke="#e1ed5e" stroke-width="0.3" x1="58.666819895761336" x2="56.23545636021788" y1="174.27360380694188" y2="178.64263932499728" /><path d="M 58.180547188652646 175.14741091055294 a86.0,86.0 0 0,1 -31.652253787137756,-30.449443065178592" fill="none" id="id8" stroke="none" /><text fill="#e1ed5e" style="font-size:6.75px; font-family:Arial;" text-anchor="middle"><textPath startOffset="22.20632615414155" xlink:href="#id8">August</textPath></text><path d="M 83.72743513129214 113.27417163493432 l -11.717650857759379 9.558548999441443 a36.12181208053691,36.12181208053691 0 0,0 -0.38888069978713014,-0.48518846612552574 l 11.88044946960137 -9.355432699737657" fill="red" stroke="none" /><line stroke="#e1ed5e" stroke-width="0.3" x1="26.63291911575756" x2="22.317208475507996" y1="142.92168965132927" y2="145.44649492493687" /><path d="M 25.769776987707644 143.4266507060508 a86.0,86.0 0 0,1 -11.730757126820373,-40.83630448921669" fill="none" id="id9" stroke="none" /><text fill="#e1ed5e" style="font-size:6.75px; font-family:Arial;" text-anchor="middle"><textPath startOffset="21.46611528233685" xlink:href="#id9">September</textPath></text><path d="M 79.86692584326677 105.97154293290107 l -22.72137097455774 6.739241171650237 a44.699748322147656,44.699748322147656 0 0,0 -0.21244590532801674,-0.7395520667312467 l 22.83400951677186 -6.347131629414394" fill="red" stroke="none" /><path d="M 79.29508885075956 103.50808413554451 l -28.80176218950548 4.879953566786328 a50.21224832214765,50.21224832214765 0 0,0 -0.13705133254289167,-0.8534187785703132 l 28.881495276409666 -4.383455558522801" fill="red" stroke="none" /><path d="M 79.0235259727143 100.99374915477108 l -28.216424596698474 1.3367379120607759 a49.24807046979866,49.24807046979866 0 0,0 -0.032827045131949506,-0.8471201711594935 l 28.235253774681624 -0.8508404938872856" fill="red" stroke="none" /><line stroke="#e1ed5e" stroke-width="0.3" x1="15.007084014347285" x2="10.007500721073583" y1="101.09737516637583" y2="101.16192664675087" /><path d="M 14.007167355692545 101.11028546245083 a86.0,86.0 0 0,1 10.666146001902534,-42.60595125391555" fill="none" id="id10" stroke="none" /><text fill="#e1ed5e" style="font-size:6.75px; font-family:Arial;" text-anchor="middle"><textPath startOffset="22.20632615414155" xlink:href="#id10">October</textPath></text><path d="M 79.00019446554 99.90962569577889 l -18.8590535464912 -0.0811614107443124 a39.85922818791947,39.85922818791947 0 0,0 0.00885822544030342,-0.6860793224584231 l 18.85486231393318 0.40577699126320743" fill="red" stroke="none" /><path d="M 79.03285615573316 98.82574320788736 l -43.25754966700817 -2.422622360199225 a64.3253355704698,64.3253355704698 0 0,0 0.07142994328315021,-1.1049896069490621 l 43.20943913272061 3.1668710314012993" fill="red" stroke="none" /><path d="M 79.05617556472873 98.46500227214037 l -23.7899656777394 -1.7435947944488035 a44.85377516778524,44.85377516778524 0 0,0 0.06306337449871824,-0.7695329025544936 l 23.756427819421184 2.1528416142110753" fill="red" stroke="none" /><path d="M 79.08570108090925 98.10471618934814 l -37.60438067994283 -3.4077629944950356 a58.75847315436241,58.75847315436241 0 0,0 0.09995340721892519,-1.006517170098619 l 37.54015014704167 4.054555695298085" fill="red" stroke="none" /><path d="M 79.21141760316559 97.0276538004421 l -23.935023037889327 -3.42222347849147 a45.17843959731544,45.17843959731544 0 0,0 0.11669829008394413,-0.7688959244200377 l 23.872568854366083 3.8337185153035995" fill="red" stroke="none" /><path d="M 79.32604984820605 96.31383870115002 l -42.70766346793406 -7.614768105946476 a64.38120805369128,64.38120805369128 0 0,0 0.20391759273808868,-1.0893359343295088 l 42.570260151286114 8.348782117738558" fill="red" stroke="none" /><path d="M 79.3925641242962 95.95851677861259 l -23.213743052073674 -4.552626227563121 a44.655956375838926,44.655956375838926 0 0,0 0.15442604731441475,-0.7530362499995087 l 23.131937708844266 4.951538133726033" fill="red" stroke="none" /><path d="M 79.54389044137918 95.25157060432595 l -16.25701746226348 -3.7737038600903348 a37.689261744966444,37.689261744966444 0 0,0 0.15213396087419065,-0.630693485001702 l 16.189650701128475 4.052982576751433" fill="red" stroke="none" /><path d="M 79.62865764111835 94.90015583598534 l -44.51714484322243 -11.14460192792943 a66.89093959731544,66.89093959731544 0 0,0 0.2892353657179975,-1.1145418506426532 l 44.31871314563413 11.909240204120946" fill="red" stroke="none" /><path d="M 80.14247586403 93.16781622104843 l -51.46416271427824 -17.70677025424854 a75.42508389261745,75.42508389261745 0 0,0 0.4329648329960329,-1.2240498865512388 l 51.1517448004724 18.59001776722639" fill="red" stroke="none" /><path d="M 80.803312248108 91.48605970444005 l -52.71036829860951 -23.377622975979605 a78.66191275167785,78.66191275167785 0 0,0 0.5596146432538883,-1.2330366866779807 l 52.30015133839227 24.28148167149966" fill="red" stroke="none" /><path d="M 81.26839172434947 90.50648371742162 l -40.27385576044707 -20.411515113789083 a66.1510067114094,66.1510067114094 0 0,0 0.5235082524951538,-1.011251314490573 l 39.9165380747918 21.10173915053999" fill="red" stroke="none" /><path d="M 81.6062741919709 89.86733742301443 l -25.57420076901823 -14.088214088492652 a50.19790268456376,50.19790268456376 0 0,0 0.4234368992246024,-0.753246995361666 l 25.327906228501195 14.526344593789103" fill="red" stroke="none" /><line stroke="#e1ed5e" stroke-width="0.3" x1="26.266209847984243" x2="21.928928074336255" y1="57.711370442889674" y2="55.22380399835377" /><path d="M 25.398753493254645 57.213857153982495 a86.0,86.0 0 0,1 29.58750427330803,-30.492523968695096" fill="none" id="id11" stroke="none" /><text fill="#e1ed5e" style="font-size:6.75px; font-family:Arial;" text-anchor="middle"><textPath startOffset="21.46611528233685" xlink:href="#id11">November</textPath></text><path d="M 81.96595687620814 89.24020034530311 l -38.2086562751249 -22.796745231974306 a65.49261744966444,65.49261744966444 0 0,0 0.5859537213179229,-0.9631538516893847 l 37.81058675552076 23.451066856870764" fill="red" stroke="none" /><path d="M 82.54541684631803 88.32363383020206 l -48.467846337194345 -32.42290671233824 a79.31275167785235,79.31275167785235 0 0,0 0.7688636096238715,-1.1282124743367001 l 47.90255826190174 33.25239720994536" fill="red" stroke="none" /><path d="M 82.95767976084542 87.72973835380427 l -26.041416952207683 -18.749500957453932 a53.08892617449664,53.08892617449664 0 0,0 0.5403375421425476,-0.7370198002388979 l 25.714816797551503 19.19498320136433" fill="red" stroke="none" /><path d="M 83.6137871275137 86.86637796730984 l -18.600040505654302 -14.908014664216003 a44.837164429530205,44.837164429530205 0 0,0 0.4878742706269708,-0.5980761688855625 l 18.340667742950938 15.225975002709648" fill="red" stroke="none" /><path d="M 83.84228863543731 86.58626213691792 l -28.604028960990096 -23.746367146540106 a58.1763422818792,58.1763422818792 0 0,0 0.646282057166794,-0.7649941078311523 l 28.191036290336175 24.235220204000374" fill="red" stroke="none" /><path d="M 85.05521093208273 85.24692304244772 l -5.432352018575395 -5.362665677403655 a28.633389261744966,28.633389261744966 0 0,0 0.3492785356539403,-0.3477786226214892 l 5.339237682754142 5.455380150675253" fill="red" stroke="none" /><path d="M 85.57189188830299 84.74124197986013 l -29.35594336197031 -31.046013291936063 a63.727348993288594,63.727348993288594 0 0,0 0.8035476000036491,-0.7468099204223215 l 28.817187878171808 31.546727798433032" fill="red" stroke="none" /><path d="M 85.83668400450813 84.49514656593479 l -40.53451413858412 -44.37390939662961 a81.1006711409396,81.1006711409396 0 0,0 1.0388185445478688,-0.9326615461911266 l 39.764684606440284 45.06506995159001" fill="red" stroke="none" /><path d="M 86.37877921826538 84.01681056812374 l -27.711772936281882 -32.517093983798596 a63.72357382550336,63.72357382550336 0 0,0 0.840976581131808,-0.7042937015061562 l 27.147938818190962 32.98928884269856" fill="red" stroke="none" /><path d="M 86.93701828274178 83.55741782278169 l -8.876690596459031 -11.173231177472177 a35.27013422818792,35.27013422818792 0 0,0 0.47861143000908546,-0.37356381273079703 l 8.683046611290521 11.324373379426195" fill="red" stroke="none" /><path d="M 87.22198572758235 83.33499621200491 l -18.131947122105977 -23.64756847438167 a50.798909395973155,50.798909395973155 0 0,0 0.6984943082364911,-0.5260914316580639 l 17.722206660111095 23.95617649554559" fill="red" stroke="none" /><path d="M 87.51073957382395 83.11751280151077 l -37.454759158956264 -50.62985881039738 a83.97810402684564,83.97810402684564 0 0,0 1.1695138022085882,-0.8497015143937918 l 36.57770004039389 51.267079559607836" fill="red" stroke="none" /><path d="M 87.80319425747018 82.90503203632743 l -27.056473544163982 -37.92218702267378 a67.5848154362416,67.5848154362416 0 0,0 0.9528456803646046,-0.667529291451332 l 26.399696724215715 38.382301156889056" fill="red" stroke="none" /><path d="M 88.39885842347998 82.49532879139004 l -22.44912658640524 -33.872923386334975 a61.63666107382551,61.63666107382551 0 0,0 0.8894257488536761,-0.5785072480411961 l 21.862733811767278 34.25432955853571" fill="red" stroke="none" /><line stroke="#e1ed5e" stroke-width="0.3" x1="56.762969772571076" x2="54.21961505331055" y1="26.818313649435495" y2="22.513508569990535" /><path d="M 56.25429882871897 25.957352633546506 a86.0,86.0 0 0,1 42.265352541879196,-11.944610805530505" fill="none" id="id12" stroke="none" /><text fill="#e1ed5e" style="font-size:6.75px; font-family:Arial;" text-anchor="middle"><textPath startOffset="22.20632615414155" xlink:href="#id12">December</textPath></text><path d="M 89.3179101791058 81.91981866633112 l -11.54188027196234 -19.535436580995334 a43.69026845637583,43.69026845637583 0 0,0 0.6507837491724625,-0.3769759527051458 l 11.203899790324558 19.731216691090527" fill="red" stroke="none" /><path d="M 89.63071344664047 81.73862282372117 l -19.834243070180257 -34.930136402991735 a61.16854026845638,61.16854026845638 0 0,0 0.9200794465443772,-0.5120232158530689 l 19.230039534563833 35.266375016404986" fill="red" stroke="none" /><path d="M 89.94658935756843 81.56283822128135 l -16.961877318075647 -31.106744497656447 a56.430704697986585,56.430704697986585 0 0,0 0.856819510516736,-0.4576833089792755 l 16.423912761030603 31.39410653313747" fill="red" stroke="none" /><path d="M 90.91171255644093 81.06846463323043 l -16.036405184595456 -33.404948269233564 a58.05478187919463,58.05478187919463 0 0,0 0.9046090271010069,-0.42472606770669713 l 15.45901794619484 33.67603931958027" fill="red" stroke="none" /><path d="M 91.56875222667455 80.76684994638697 l -14.966172117096745 -34.140454864462924 a58.27676174496645,58.27676174496645 0 0,0 0.9222054510112747,-0.3948402461844796 l 14.376282908295162 34.39301463861019" fill="red" stroke="none" /><path d="M 92.23578459929587 80.48803036053334 l -13.206238093594608 -33.18812055502956 a56.71912751677853,56.71912751677853 0 0,0 0.9102524209373555,-0.3531637977038562 l 12.633002507657576 33.41052705662397" fill="red" stroke="none" /><path d="M 92.91201910852362 80.23233633223022 l -13.389607047665173 -37.342263306626045 a60.67021812080537,60.67021812080537 0 0,0 0.9860874886684116,-0.344026562461021 l 12.744837554933476 37.567210722259276" fill="red" stroke="none" /><path d="M 93.25333710446033 80.11325718540243 l -7.270046751278263 -21.42949073212982 a43.62911073825504,43.62911073825504 0 0,0 0.7132677698443387,-0.2351531694449788 l 6.900096159191515 21.551457625834033" fill="red" stroke="none" /><path d="M 93.59665428221793 80.00007090966166 l -8.85862667289617 -27.668645908606383 a50.052181208053696,50.052181208053696 0 0,0 0.8227973847977773,-0.25564715262910687 l 8.381043915387664 27.817033196118015" fill="red" stroke="none" /><path d="M 94.63758080256005 79.69619591428918 l -14.449033386160433 -54.708580642213306 a77.58447986577181,77.58447986577181 0 0,0 1.2941501749036903,-0.3299076950385992 l 13.505174322571744 54.94919133342077" fill="red" stroke="none" /><path d="M 95.33964822691252 79.52364482259891 l -7.5396158461271865 -33.12708127699605 a54.97424496644295,54.97424496644295 0 0,0 0.9245025997174289,-0.2020604601800265 l 6.968270522256237 33.25195523527194" fill="red" stroke="none" /><path d="M 96.04723909329186 79.375362276772 l -10.960384467179239 -57.188877414577796 a79.22969798657718,79.22969798657718 0 0,0 1.3416412932176722,-0.24517637078020302 l 9.974348052858673 57.369069266708735" fill="red" stroke="none" /><path d="M 97.11714578562143 79.19881850522333 l -5.604774405140461 -40.44114650582049 a61.82768456375838,61.82768456375838 0 0,0 1.0554435374556883,-0.13702686259410174 l 4.907816139176915 40.531631691578724" fill="red" stroke="none" /><path d="M 97.47563105711357 79.15227682838746 l -4.750799422810897 -39.23489531501271 a60.52147651006711,60.52147651006711 0 0,0 1.0353014054843133,-0.11632817589906806 l 4.074731313816866 39.31085944438237" fill="red" stroke="none" /><path d="M 99.63851952072746 79.00311137660856 l -1.0844414378176228 -62.990665870174325 a84.0,84.0 0 0,0 1.445921917090143,-0.012445506434235476 l 1.543054966925665e-14 63.0" fill="red" stroke="none" /></svg>