<?xml version="1.0" encoding="utf-8" ?>
<svg baseProfile="full" height="200mm" version="1.1" viewBox="0,0,200,200" width="200mm" xmlns="http://www.w3.org/2000/svg" xmlns:ev="http://www.w3.org/2001/xml-events" xmlns:xlink="http://www.w3.org/1999/xlink"><defs /><rect fill="#1a1a1a" height="200" width="200" x="0" y="0" /><text alignment-baseline="middle" fill="#e1ed5e" style="dominant-baseline: central; font-size:9.0px; font-family:Arial;" text-anchor="middle" x="100.0" y="100.0">2025</text><line stroke="#e1ed5e" stroke-width="0.3" x1="100.0" x2="100.0" y1="15.0" y2="10.0" /><path d="M 100.0 14.0 a86.0,86.0 0 0,1 42.46469731375804,11.215312516191453" fill="none" id="id25" stroke="none" /><text fill="#e1ed5e" style="font-size:6.75px; font-family:Arial;" text-anchor="middle"><textPath startOffset="22.20632615414155" xlink:href="#id25">January</textPath></text><path d="M 100.0 79.0 l 0.0 -4.939930664985816 a25.939930664985816,25.939930664985816 0 0,0 0.4465132651940585,0.0038432806427940846 l -0.08503278592153013 4.939198760951581" fill="#ff2f04" stroke="none" /><path d="M 101.08401301168833 79.027996857942 l 0.48295535787054267 -9.343560615531505 a30.356033927568205,30.356033927568205 0 0,0 0.5216004327513781,0.03146436253255843 l -0.6437178394615327 9.333862983618642" fill="#ff6d0a" stroke="none" /><path d="M 102.52436894288641 79.15227682838746 l 0.6961376539741227 -5.74911410643249 a26.79110703078968,26.79110703078968 0 0,0 0.4573436798813329,0.05937633550009706 l -0.7949960623633018 5.736279447768257" fill="#ff3b05" stroke="none" /><path d="M 102.88285421437855 79.19881850522331 l 0.49661774774009493 -3.5833362133769096 a24.61758588086984,24.61758588086984 0 0,0 0.41923868276002896,0.0617848839315663 l -0.5582254109287796 3.574256845284374" fill="#ff1c02" stroke="none" /><path d="M 103.2404852339499 79.25152402106235 l 1.0028768741274308 -6.421312004344949 a27.49915455130928,27.49915455130928 0 0,0 0.4670545373488212,0.0770680005402562 l -1.1132606176151272 6.403097740865068" fill="#ff4506" stroke="none" /><path d="M 103.59715602781102 79.31037775812273 l 0.9259673760733637 -5.325850497210245 a26.405746858685376,26.405746858685376 0 0,0 0.4471434482795366,0.0817126071040913 l -1.017505945455801 5.309122408755416" fill="#ff3605" stroke="none" /><path d="M 103.95276090670814 79.375362276772 l 0.7114417169568313 -3.71214652738657 a24.779706490908342,24.779706490908342 0 0,0 0.41822668304397254,0.08389233814626217 l -0.7752348094679292 3.6993502331631" fill="#ff1e03" stroke="none" /><path d="M 104.66035177308747 79.52364482259891 l 2.051974999994791 -9.015836349024093 a30.24639964921416,30.24639964921416 0 0,0 0.5066650929170752,0.11991125780086073 l -2.2068637798743898 8.979179179082363" fill="#ff6b09" stroke="none" /><path d="M 105.01212808612495 79.60689891045804 l 3.544662913729717 -14.42235072326888 a35.8515600378191,35.8515600378191 0 0,0 0.5980229908582475,0.15244937590710458 l -3.7923947932729893 14.359198351192907" fill="#ffb710" stroke="none" /><path d="M 105.71112130821622 79.79150937346287 l 1.9202871632287524 -6.794831180094179 a28.0609654832212,28.0609654832212 0 0,0 0.4636871201334769,0.13536298550499468 l -2.0369645010856563 6.760769865670481" fill="#ff4d07" stroke="none" /><path d="M 106.74666289553966 80.11325718540242 l 1.5049017746383457 -4.435910763119641 a25.684232450430947,25.684232450430947 0 0,0 0.4174519403406726,0.1456407851011438 l -1.581035719042292 4.4093491248462895" fill="#ff2b04" stroke="none" /><path d="M 107.4271985657038 80.35727306442388 l 1.8758563965394497 -4.961081172344632 a26.303881938639883,26.303881938639883 0 0,0 0.42213576377061124,0.16378211807042062 l -1.960975325309728 4.928056350383665" fill="#ff3404" stroke="none" /><path d="M 108.09893153111575 80.62456947434976 l 3.4547998396136474 -8.265069783006311 a29.958070129763357,29.958070129763357 0 0,0 0.4740739661608172,0.20297373139935937 l -3.59655756356478 8.20437652364416" fill="#ff6709" stroke="none" /><path d="M 108.43124777332544 80.76684994638697 l 3.4335219388272957 -7.832463763046473 a29.55199166883624,29.55199166883624 0 0,0 0.4641321565382347,0.20824256951107661 l -3.5678362138323108 7.772200863018865" fill="#ff6209" stroke="none" /><path d="M 109.08828744355905 81.06846463323043 l 3.1971832835948555 -6.659955330783124 a28.3876238369942,28.3876238369942 0 0,0 0.4386952188763901,0.21526583867022706 l -3.3113497694816774 6.603934331978064" fill="#ff5207" stroke="none" /><path d="M 109.73455568895987 81.39251694778311 l 7.128465509201 -13.625973838867946 a36.37797722632538,36.37797722632538 0 0,0 0.5523475350425778,0.2950449242132345 l -7.361958090771888 13.501250188152957" fill="#ffbe11" stroke="none" /><line stroke="#e1ed5e" stroke-width="0.3" x1="143.23703022742887" x2="145.7803849466894" y1="26.81831364943548" y2="22.513508569990506" /><path d="M 143.74570117128098 25.957352633546492 a86.0,86.0 0 0,1 28.547481713284135,27.462654790039103" fill="none" id="id26" stroke="none" /><text fill="#e1ed5e" style="font-size:6.75px; font-family:Arial;" text-anchor="middle"><textPath startOffset="19.985693538727396" xlink:href="#id26">February</textPath></text><path d="M 110.68208982089419 81.91981866633111 l 1.6617039545716357 -2.8125497281219163 a24.26675619013689,24.26675619013689 0 0,0 0.35780515458639717,0.21557360212910426 l -1.7098711753756706 2.7835295165341973" fill="#ff1702" stroke="none" /><path d="M 111.90073688211348 82.69761687909136 l 2.3406842661379343 -3.4031015338782167 a25.130363529234437,25.130363529234437 0 0,0 0.3543008615213819,0.24821039537217235 l -2.398916267242967 3.362306295742109" fill="#ff2303" stroke="none" /><path d="M 112.48926042617603 83.11751280151076 l 4.219572764383819 -5.7038512087152515 a28.094978007371985,28.094978007371985 0 0,0 0.38631109331915725,0.2909615064191177 l -4.3171300114613596 5.630373112790287" fill="#ff4d07" stroke="none" /><path d="M 113.06298171725822 83.55741782278167 l 11.9317957697886 -15.018740492252109 a40.181509749379956,40.181509749379956 0 0,0 0.5378517062427843,0.43490534136933306 l -12.188550874595876 14.811129053618647" fill="#ffee16" stroke="none" /><path d="M 113.89432698308785 84.25364557470407 l 2.4690279401948008 -2.7981340211431758 a24.73170912180216,24.73170912180216 0 0,0 0.31678847674937183,0.28441582227355383 l -2.516827404540163 2.7552191901003247" fill="#ff1d03" stroke="none" /><path d="M 114.42810811169701 84.74124197986012 l 3.582956786312294 -3.789233500034189 a26.21496594910865,26.21496594910865 0 0,0 0.32521132847012807,0.31285304032366534 l -3.6476513583948407 3.7269973729482215" fill="#ff3304" stroke="none" /><path d="M 114.94478906791727 85.2469230424477 l 8.26406145262923 -8.158049875345046 a32.612428232779294,32.612428232779294 0 0,0 0.3909387444575338,0.4028967406492981 l -8.403264460789872 8.014588939145634" fill="#ff8c0c" stroke="none" /><path d="M 115.4437574822437 85.77008943001954 l 4.671028243111971 -4.303895230532959 a27.351536743446744,27.351536743446744 0 0,0 0.3160487776057866,0.3489889540143367 l -4.744420661333794 4.222853489249073" fill="#ff4306" stroke="none" /><path d="M 115.9244219780498 86.31012108654704 l 4.8789885536990445 -4.194360248198015 a27.43406459392428,27.43406459392428 0 0,0 0.30476552850816163,0.3607462577575804 l -4.950464695694324 4.1097550408113275" fill="#ff4406" stroke="none" /><path d="M 116.15771136456269 86.58626213691792 l 6.705564238428003 -5.566795871573932 a29.715148193315883,29.715148193315883 0 0,0 0.32333124620693593,0.3963658767328105 l -6.800393976711349 5.450545825233021" fill="#ff6409" stroke="none" /><path d="M 116.38621287248628 86.86637796730983 l 5.918517139840784 -4.743717643213621 a28.58496553803149,28.58496553803149 0 0,0 0.30442432852109075,0.38658798244720105 l -5.999295548955839 4.641137266813382" fill="#ff5407" stroke="none" /><path d="M 116.60985879189232 87.15038557335679 l 19.99109701362886 -15.465386660369308 a46.27493114457584,46.27493114457584 0 0,0 0.4819733717043446,0.6342204608793255 l -20.254346325557318 15.118981423608949" fill="#c7ff1e" stroke="none" /><path d="M 116.82858285166822 87.43820079747576 l 1.6950106346959026 -1.2652511163221567 a23.115164636402252,23.115164636402252 0 0,0 0.23526547146200136,0.32090183867751515 l -1.7165387186715304 1.2358868339731477" fill="#ff0600" stroke="none" /><path d="M 117.2510076193507 88.02491185347247 l 4.96617409220377 -3.447356456931404 a27.045424026089698,27.045424026089698 0 0,0 0.26218031653937557,0.3847172631696932 l -5.024778874411878 3.3613611704913042" fill="#ff3f05" stroke="none" /><path d="M 117.65298651832404 88.62581576622439 l 7.352673645882904 -4.737479665114399 a29.746743583770673,29.746743583770673 0 0,0 0.27363095056819886,0.43281845118397494 l -7.433132192697059 4.610213566216218" fill="#ff6509" stroke="none" /><line stroke="#e1ed5e" stroke-width="0.3" x1="172.23445277983987" x2="176.4835382374775" y1="55.19839476539836" y2="52.563006222186495" /><path d="M 173.08426987136738 54.67131705675599 a86.0,86.0 0 0,1 12.851231095245387,41.99856678651699" fill="none" id="id27" stroke="none" /><text fill="#e1ed5e" style="font-size:6.75px; font-family:Arial;" text-anchor="middle"><textPath startOffset="22.20632615414155" xlink:href="#id27">March</textPath></text><path d="M 117.84615892207809 88.93136811851018 l 9.192193834951357 -5.701227372603108 a31.816673289576453,31.816673289576453 0 0,0 0.28465953629524254,0.46790543148393665 l -9.288969169532825 5.54215416791209" fill="#ff810b" stroke="none" /><path d="M 118.03404312379186 89.2402003453031 l 5.230438394151787 -3.120679530429925 a27.09065895668617,27.09065895668617 0 0,0 0.23548274784603984,0.4025163489231156 l -5.283380816468154 3.030183769152914" fill="#ff3f05" stroke="none" /><path d="M 118.56541770881063 90.18545643968196 l 5.469572163314273 -2.89147031836915 a27.18682634730539,27.18682634730539 0 0,0 0.2151520991064841,0.4156053739360087 l -5.5185336955808735 2.7968922221727968" fill="#ff4106" stroke="none" /><path d="M 118.73160827565052 90.50648371742162 l 4.7257276603950045 -2.395083851358888 a26.29801175680675,26.29801175680675 0 0,0 0.20116725085545512,0.4055409023325597 l -4.766254924203867 2.313383360527378" fill="#ff3404" stroke="none" /><path d="M 118.89224826269711 90.83032412892265 l 10.50902828380074 -5.10073664830613 a32.681489195522,32.681489195522 0 0,0 0.24128557680070767,0.508208960236164 l -10.595272054443203 4.919085272429426" fill="#ff8d0d" stroke="none" /><path d="M 119.196687751892 91.48605970444005 l 9.693223845144095 -4.29905044847755 a31.60379287192206,31.60379287192206 0 0,0 0.2162742209477555,0.49919072047258917 l -9.765788775934531 4.1315605834183575" fill="#ff7e0b" stroke="none" /><path d="M 119.47837535516314 92.15188598940014 l 5.528112338565048 -2.227354956734733 a26.959961084695596,26.959961084695596 0 0,0 0.16972765477786217,0.4319383683293696 l -5.565633543224611 2.1318675835095786" fill="#ff3d05" stroke="none" /><path d="M 119.61058180528143 92.48833698450437 l 4.8368773550619455 -1.8527238558889738 a26.17957220570301,26.17957220570301 0 0,0 0.15757037151386885,0.42221025659721684 l -4.868052315077439 1.7691904622624237" fill="#ff3204" stroke="none" /><path d="M 119.7369772167798 92.82701384747503 l 3.9601605583154975 -1.4392364410504819 a25.2135819893394,25.2135819893394 0 0,0 0.1447342681221018,0.4091832661073347 l -3.984347907247409 1.3708555485165326" fill="#ff2403" stroke="none" /><path d="M 119.85752413597 93.16781622104841 l 6.694455477839785 -2.3032957085400696 a28.07961194316173,28.07961194316173 0 0,0 0.1533182997734024,0.4584022016009366 l -6.733111071384958 2.187720404016819" fill="#ff4d07" stroke="none" /><path d="M 120.08093135843002 93.85539295169968 l 12.260872585268134 -3.7517305727019243 a33.8220309952178,33.8220309952178 0 0,0 0.16555739685779108,0.5581772392138337 l -12.323635879237626 3.5401239467415606" fill="#ff9c0e" stroke="none" /><path d="M 120.28053869075195 94.5502522615342 l 6.872412309431944 -1.8467415492375454 a28.116214253415365,28.116214253415365 0 0,0 0.12157406610145687,0.46847446987163793 l -6.903182707403704 1.7281706538170571" fill="#ff4e07" stroke="none" /><path d="M 120.37134235888165 94.90015583598534 l 5.0050879983514625 -1.252993954403982 a26.159544526507624,26.159544526507624 0 0,0 0.10559387314116474,0.43775477522276796 l -5.025914671753447 1.166653947521808" fill="#ff3204" stroke="none" /><path d="M 120.45610955862082 95.25157060432595 l 6.150875963393085 -1.4277886100493615 a27.314416475972543,27.314416475972543 0 0,0 0.10237132821062206,0.45891059136796464 l -6.1745416786057445 1.321699849131433" fill="#ff4206" stroke="none" /><path d="M 120.53481517161879 95.60439243477599 l 14.84334630418661 -3.177312518405259 a36.17959961084696,36.17959961084696 0 0,0 0.12511371415491476,0.6100989034505553 l -14.895839314256522 2.921337958791292" fill="#ffbb11" stroke="none" /><path d="M 120.73433829027371 96.67025291283417 l 5.83052581599281 -0.9363296807766585 a26.905230271722004,26.905230271722004 0 0,0 0.06949762751902204,0.45790253240042217 l -5.845779336951131 0.8358280359841542" fill="#ff3d05" stroke="none" /><path d="M 120.78858239683441 97.02765380044208 l 2.5319233721484666 -0.36201375683622056 a23.557672755176146,23.557672755176146 0 0,0 0.05394034090262269,0.40191819294393316 l -2.5377797121089256 0.31837722182762307" fill="#ff0c01" stroke="none" /><path d="M 120.83666639777658 97.38593545837742 l 7.961954075853012 -0.9988671620684783 a29.024365913481958,29.024365913481958 0 0,0 0.05792385379660455,0.49625620582792396 l -7.977968282653206 0.8616672179157017" fill="#ff5b08" stroke="none" /><path d="M 120.91429891909075 98.10471618934814 l 7.17744555678225 -0.6504304264862231 a28.206856767015168,28.206856767015168 0 0,0 0.039658190755985735,0.4839303777366397 l -7.1875782313577306 0.5267861315418145" fill="#ff4f07" stroke="none" /><path d="M 120.94382443527127 98.46500227214037 l 10.500524548528032 -0.7695958955891652 a31.528689074939365,31.528689074939365 0 0,0 0.03501097122062512,0.5416042285604158 l -10.512216110753073 0.5887326027757142" fill="#ff7d0b" stroke="none" /><path d="M 120.96714384426684 98.82574320788733 l 2.3776687680892254 -0.13316042094528593 a23.381394647775387,23.381394647775387 0 0,0 0.01904625223295593,0.4020362818560062 l -2.379608628555678 0.09221303246627993" fill="#ff0a01" stroke="none" /><path d="M 120.98425023603335 99.18683210126433 l 4.992468244264788 -0.1934648541658239 a25.996215349621124,25.996215349621124 0 0,0 0.013478796939215457,0.4472956504660275 l -4.995058735659648 0.10749905627479735" fill="#ff3004" stroke="none" /><line stroke="#e1ed5e" stroke-width="0.3" x1="184.98032266829074" x2="189.97916517819016" y1="98.17113171792111" y2="98.06355123074" /><path d="M 185.9800911702706 98.14961562048488 a86.0,86.0 0 0,1 -9.607161424134198,41.387399972396054" fill="none" id="id28" stroke="none" /><text fill="#e1ed5e" style="font-size:6.75px; font-family:Arial;" text-anchor="middle"><textPath startOffset="21.466115282336823" xlink:href="#id28">April</textPath></text><path d="M 120.99513854157772 99.54816195383933 l 10.563708603346283 -0.2273424129159348 a31.566154647227282,31.566154647227282 0 0,0 0.007015191383795233,0.5433343036870899 l -10.566056801847793 0.04547185116838217" fill="#ff7e0b" stroke="none" /><path d="M 120.9904718944345 100.63252640178507 l 19.295161744388924 0.5814399643523628 a40.3039203058414,40.3039203058414 0 0,0 -0.02686518676270771,0.6932710975716252 l -19.282294424775014 -0.9134883089379942" fill="#ffef16" stroke="none" /><path d="M 120.95626037817324 101.35467743843564 l 3.618148793008711 0.23388832026047318 a24.625700543992107,24.625700543992107 0 0,0 -0.030985512079703008,0.42277269422358343 l -3.6135867222646705 -0.2961341509808269" fill="#ff1c02" stroke="none" /><path d="M 120.89721153311464 102.0752229133903 l 7.431697738333554 0.7380137492287713 a28.468252510996315,28.468252510996315 0 0,0 -0.052622478226846556,0.4872187934268856 l -7.4178929586056555 -0.8658288645404484" fill="#ff5307" stroke="none" /><path d="M 120.8583938346157 102.4346265915055 l 5.445092870853676 0.6355603409212202 a26.482059222516064,26.482059222516064 0 0,0 -0.05674536652613378,0.45231640347744123 l -5.433345995080694 -0.7291944986860563" fill="#ff3705" stroke="none" /><path d="M 120.76222939487914 103.15116336523771 l 8.698235848188027 1.320164690684315 a29.797848696200276,29.797848696200276 0 0,0 -0.08133144814637946,0.5064510052444349 l -8.67422264568036 -1.4696949256219547" fill="#ff6509" stroke="none" /><path d="M 120.64145759157962 103.86396538481128 l 17.08857792221079 3.198886186894504 a38.38540676084901,38.38540676084901 0 0,0 -0.12716549148136483,0.6484141013964041 l -17.030982497753758 -3.492564015358853" fill="#ffd714" stroke="none" /><path d="M 120.5718875245553 104.21870165774334 l 4.042439746154888 0.8289879690463569 a25.126565176283588,25.126565176283588 0 0,0 -0.09053455750554433,0.42294731215977044 l -4.027571149924901 -0.8984491006222963" fill="#ff2303" stroke="none" /><path d="M 120.49622156327973 104.57218783832717 l 5.171757924871143 1.1536881865695539 a26.298875018841038,26.298875018841038 0 0,0 -0.10236453146205658,0.4409837224098467 l -5.151132827478533 -1.2425405663279654" fill="#ff3404" stroke="none" /><path d="M 120.41448212921028 104.9243191809786 l 8.427005576060392 2.0327366099104225 a29.668704695871412,29.668704695871412 0 0,0 -0.12402745675326225,0.4954280370467549 l -8.390766805012069 -2.1774924863545735" fill="#ff6309" stroke="none" /><path d="M 120.32669344350535 105.2749913415812 l 8.542508848449524 2.2168711471048375 a29.82547308129736,29.82547308129736 0 0,0 -0.13323738113204983,0.4958258607147394 l -8.503083390975696 -2.3635879409951253" fill="#ff6609" stroke="none" /><path d="M 120.23288151984713 105.62410040840565 l 3.4298780530650825 0.9533974950677557 a24.55991997697968,24.55991997697968 0 0,0 -0.11672670719955962,0.40634098086701276 l -3.4129587089794238 -1.0122959514393504" fill="#ff1b02" stroke="none" /><path d="M 120.13307415673323 105.97154293290107 l 2.3102315680307406 0.6852230755244688 a23.409709642499898,23.409709642499898 0 0,0 -0.11791050207531051,0.38533834303810666 l -2.2980942934492976 -0.7248883911146325" fill="#ff0a01" stroke="none" /><path d="M 120.02730092923936 106.31721596034902 l 6.896588054820076 2.175392295037356 a28.231546061195687,28.231546061195687 0 0,0 -0.1501753552774909,0.46219221862698184 l -6.858120448526337 -2.293783413642133" fill="#ff4f07" stroke="none" /><path d="M 119.79798401119884 107.00284435728193 l 4.889284674180716 1.7294134378714516 a26.18613299716357,26.18613299716357 0 0,0 -0.15396914872572326,0.423656970175084 l -4.858791264449765 -1.8133182050526668" fill="#ff3204" stroke="none" /><path d="M 119.67450827220406 107.3425965602758 l 4.9031120849590915 1.829858893120594 a26.23343975664232,26.23343975664232 0 0,0 -0.16153018221299884,0.4217043344164244 l -4.870887623152586 -1.9139867943701623" fill="#ff3304" stroke="none" /><path d="M 119.54520255179757 107.68017299344265 l 8.200580894442664 3.222370284939712 a29.810970279121392,29.810970279121392 0 0,0 -0.1917801976742796,0.47598272284802384 l -8.143898082510994 -3.363052375630549" fill="#ff6509" stroke="none" /><path d="M 119.41010516605496 108.01547362559984 l 7.350142099864277 3.035267951505249 a28.95219720741583,28.95219720741583 0 0,0 -0.19418516995196633,0.45899638039455676 l -7.296805948720001 -3.1613388575659696" fill="#ff5a08" stroke="none" /><path d="M 119.26925614724726 108.34839909993367 l 6.6927389676203415 2.8996270300425975 a28.29387358007098,28.29387358007098 0 0,0 -0.1974628295545571,0.44522655198095473 l -6.641835053334511 -3.01440191851624" fill="#ff5007" stroke="none" /><path d="M 119.12269723197855 108.67885076344098 l 7.200588113495257 3.267992422194854 a28.90748023403993,28.90748023403993 0 0,0 -0.20954534546770143,0.4513420321083593 l -7.143268151187725 -3.391454521582044" fill="#ff5908" stroke="none" /><path d="M 118.97047184881838 109.00673069616215 l 4.849156115471124 2.3022644657316 a26.36793598158374,26.36793598158374 0 0,0 -0.19819489640403287,0.4083401899815061 l -4.808807962452376 -2.385393611678382" fill="#ff3505" stroke="none" /><path d="M 118.81262510543309 109.33194174019688 l 3.767886873156296 1.8690480773888611 a25.205985283437702,25.205985283437702 0 0,0 -0.19615217354129122,0.38702684735849313 l -3.735156029828736 -1.9336291364500486" fill="#ff2403" stroke="none" /><path d="M 118.64920377521936 109.65438752849418 l 13.681670621473152 7.082776927582905 a36.40629222104989,36.40629222104989 0 0,0 -0.2928929407418079,0.5540430642968578 l -13.557725172506451 -7.3172350069658965" fill="#ffbe11" stroke="none" /><line stroke="#e1ed5e" stroke-width="0.3" x1="174.80103733775053" x2="179.2010983576182" y1="140.37084112569926" y2="142.7455964860345" /><path d="M 175.68104954172406 140.8457921977663 a86.0,86.0 0 0,1 -30.038265399797805,32.042727171017184" fill="none" id="id29" stroke="none" /><text fill="#e1ed5e" style="font-size:6.75px; font-family:Arial;" text-anchor="middle"><textPath startOffset="22.206326154141568" xlink:href="#id29">May</textPath></text><path d="M 118.30583269289576 110.29060199501025 l 5.092994244872572 2.863020634794776 a26.842557448032995,26.842557448032995 0 0,0 -0.22988477977113386,0.4008234905767247 l -5.042957468949059 -2.9502639712298158" fill="#ff3c05" stroke="none" /><path d="M 118.12598468904814 110.60418214915192 l 5.233856656825055 3.0619450630485323 a27.063725181216512,27.063725181216512 0 0,0 -0.23870092754327427,0.4000764846142272 l -5.180374853583554 -3.151583641548864" fill="#ff3f05" stroke="none" /><path d="M 117.94076556474637 110.91462005526583 l 4.652322065342073 2.8303322695279967 a26.44562956466929,26.44562956466929 0 0,0 -0.23994416944342079,0.38686640102959 l -4.602913256230689 -2.90999500192286" fill="#ff3605" stroke="none" /><path d="M 117.75023020441432 111.22182372390056 l 14.88675632567428 9.411514858316187 a38.6122720234588,38.6122720234588 0 0,0 -0.3600045274359816,0.558735021232681 l -14.722546934861247 -9.666371479470321" fill="#ffda14" stroke="none" /><path d="M 117.35343817320211 111.8261652097733 l 5.381874742894774 3.667684709654021 a27.512794091450964,27.512794091450964 0 0,0 -0.27006963883079244,0.389055457481224 l -5.317944196901845 -3.7597814293222642" fill="#ff4506" stroke="none" /><path d="M 116.93607887273984 112.41649034213515 l 5.684919455319109 4.167832946645146 a28.049052467148083,28.049052467148083 0 0,0 -0.28882340837614306,0.38692615436667965 l -5.612334780247875 -4.265071980521141" fill="#ff4d07" stroke="none" /><path d="M 116.498646956653 112.99209946851258 l 10.812074571598846 8.514125350051398 a34.76195069814604,34.76195069814604 0 0,0 -0.37424068547062306,0.46692279726057656 l -10.663915974073369 -8.698975980890225" fill="#ffa80f" stroke="none" /><path d="M 116.27256486870786 113.27417163493432 l 4.360340104969317 3.556901042155519 a26.62708724427575,26.62708724427575 0 0,0 -0.2927762359946132,0.35266783680213404 l -4.29846786908116 -3.6314301360714234" fill="#ff3905" stroke="none" /><path d="M 116.0416608686014 113.55231037782055 l 6.582094868134311 5.560683106311871 a29.61656366900067,29.61656366900067 0 0,0 -0.33235071758923557,0.38659896884827444 l -6.485401640974296 -5.673159174321674" fill="#ff6309" stroke="none" /><path d="M 115.56566222782051 114.09645910891815 l 2.7756229714783642 2.513639005302835 a24.74465805231642,24.74465805231642 0 0,0 -0.2886329939444043,0.3132541092180175 l -2.731943569538238 -2.5610443693221874" fill="#ff1e03" stroke="none" /><path d="M 115.32070863581623 114.36230785411682 l 6.389062366991934 5.989388793634069 a29.757448032995796,29.757448032995796 0 0,0 -0.3535375396149224,0.3706826968617891 l -6.2850182759980475 -6.098478607078365" fill="#ff6509" stroke="none" /><path d="M 114.81725581225074 114.88116024355365 l 15.104671470560968 15.169815479179992 a42.4073445785774,42.4073445785774 0 0,0 -0.5217114043567417,0.5106044148581105 l -14.841310113828431 -15.427569996960674" fill="#f5ff19" stroke="none" /><path d="M 114.55890576462653 115.13401014063108 l 2.643860101089938 2.7482975868641066 a24.81354636265227,24.81354636265227 0 0,0 -0.31036330719766997,0.2934678788562881 l -2.5961609595014603 -2.7934001024663164" fill="#ff1f03" stroke="none" /><path d="M 114.0293411484842 115.62618273729858 l 5.495163301739549 6.120631397829884 a29.22550596747009,29.22550596747009 0 0,0 -0.377228422983663,0.33286022368641527 l -5.388992525849298 -6.214314763288588" fill="#ff5d08" stroke="none" /><path d="M 113.48314897796784 116.09983520530334 l 3.9001161744488897 4.6570150483962856 a27.074429630441635,27.074429630441635 0 0,0 -0.35987057440338,0.2961489828700135 l -3.819375471500819 -4.723459150123477" fill="#ff3f05" stroke="none" /><path d="M 113.20401910651253 116.32954008644616 l 5.880120847833139 7.272003192609733 a30.351890269803643,30.351890269803643 0 0,0 -0.40908929155871704,0.3250052746436498 l -5.754074063557071 -7.3721423812585085" fill="#ff6d0a" stroke="none" /><path d="M 112.92097659922987 116.55440617244103 l 12.522223211313003 16.043521759369163 a41.351920415461976,41.351920415461976 0 0,0 -0.5648894280390205,0.43313312529938913 l -12.244205054780489 -16.256694226495924" fill="#fffc17" stroke="none" /><path d="M 112.34349029814194 116.9893568818739 l 3.2823512259946255 4.517768884095392 a26.584269447375274,26.584269447375274 0 0,0 -0.37252495273639896,0.2657866626264688 l -3.204098945409342 -4.5735998085660805" fill="#ff3805" stroke="none" /><path d="M 111.45004920935366 117.60387380957326 l 9.282103773474757 14.270766922305398 a38.02387262089094,38.02387262089094 0 0,0 -0.5517412354397594,0.3521473611907005 l -9.035080735988068 -14.428428712319908" fill="#ffd313" stroke="none" /><path d="M 111.1453310114006 117.79835938074945 l 9.36458876145016 14.95463132128831 a38.644730675947876,38.644730675947876 0 0,0 -0.5668276600574246,0.3481918447714526 l -9.105781901460427 -15.113611632888142" fill="#ffdb14" stroke="none" /><line stroke="#e1ed5e" stroke-width="0.3" x1="143.8653032363475" x2="146.44561519142675" y1="172.8068346515853" y2="177.08958963109032" /><path d="M 144.38136562736335 173.6633856474863 a86.0,86.0 0 0,1 -40.68145358897372,12.25698825130547" fill="none" id="id30" stroke="none" /><text fill="#e1ed5e" style="font-size:6.75px; font-family:Arial;" text-anchor="middle"><textPath startOffset="21.466115282336833" xlink:href="#id30">June</textPath></text><path d="M 110.8373102113329 117.98757091392108 l 6.190181780504149 10.274351437355952 a32.99502596637389,32.99502596637389 0 0,0 -0.4890053417613504,0.2889129753286494 l -6.012408567714417 -10.379382984978351" fill="#ff910d" stroke="none" /><path d="M 110.21172684928248 118.3499491758327 l 2.6853375623752083 4.825413812650288 a26.522287233313694,26.522287233313694 0 0,0 -0.40083661642481605,0.21856808297321084 l -2.6018781340817436 -4.87092254738327" fill="#ff3705" stroke="none" /><path d="M 109.57404056367764 118.69057910512821 l 8.556774975784279 16.704658655451105 a39.768697844585425,39.768697844585425 0 0,0 -0.6119571097629908,0.30684799885636954 l -8.267963958338527 -16.84947449521678" fill="#ffe915" stroke="none" /><path d="M 108.92500713936063 119.00905698771935 l 8.126759607878492 17.308897808089018 a40.121772016607515,40.121772016607515 0 0,0 -0.6276802939989873,0.28813723720061585 l -7.827611318112086 -17.44622211562371" fill="#ffed16" stroke="none" /><path d="M 108.59647513512805 119.15986991738527 l 4.019148671612327 8.957900129560134 a30.81822442072377,30.81822442072377 0 0,0 -0.4858703309266268,0.2129912746654045 l -3.864357666027946 -9.025755957519992" fill="#ff730a" stroke="none" /><path d="M 108.2653958097858 119.30500536409082 l 2.068393244562904 4.831026075491825 a26.255193959906276,26.255193959906276 0 0,0 -0.4169931677170769,0.1743031779248854 l -1.984928617348366 -4.865914296436683" fill="#ff3304" stroke="none" /><path d="M 107.59598834532513 119.57807347666477 l 1.057166231735133 2.7247643388891163 a23.922659943271352,23.922659943271352 0 0,0 -0.3851887488307314,0.14564542551672613 l -1.0101072621441267 -2.7425580145124733" fill="#ff1202" stroke="none" /><path d="M 106.91757812671514 119.82793768551818 l 3.229940917023303 9.258018638533951 a30.80527549020951,30.80527549020951 0 0,0 -0.5021703897859866,0.17036346110539957 l -3.0701007943000893 -9.312245086537473" fill="#ff730a" stroke="none" /><path d="M 106.2309692047433 120.05430185196036 l 11.40974569525958 36.72213370155266 a59.45383466476658,59.45383466476658 0 0,0 -0.9799266687127491,0.29524386682211434 l -10.775944052106585 -36.9130929374805" fill="#39ff2e" stroke="none" /><path d="M 105.18746579009965 120.34920634021253 l 1.3189195211677212 5.17381059815349 a26.33927568204552,26.33927568204552 0 0,0 -0.44030077192500466,0.10821521727460753 l -1.2296654644995053 -5.195747073742127" fill="#ff3505" stroke="none" /><path d="M 104.83641907484287 120.43548508189849 l 2.016134445011573 8.518841055037049 a29.754167637265514,29.754167637265514 0 0,0 -0.49941640779633745,0.11366554845421865 l -1.8691978878223734 -8.552283337068951" fill="#ff6509" stroke="none" /><path d="M 104.48393922423573 120.51570834832081 l 1.8398165625503151 8.417852723712135 a29.61656366900067,29.61656366900067 0 0,0 -0.4989806242482336,0.10456624130895266 l -1.6946444768727036 -8.44827494574763" fill="#ff6309" stroke="none" /><path d="M 104.13013068566511 120.58985236759428 l 3.1278952978861883 15.59342967724946 a36.90404911001795,36.90404911001795 0 0,0 -0.6239110755948878,0.11957404255863537 l -2.8590166077195964 -15.644960918156565" fill="#ffc412" stroke="none" /><path d="M 103.41894727170886 120.7198165907248 l 1.4283318762763042 8.65610732052582 a29.773159402019758,29.773159402019758 0 0,0 -0.5063764174032546,0.07908558224138544 l -1.2791195952645324 -8.679411210114312" fill="#ff6509" stroke="none" /><path d="M 103.06178313531738 120.77559828337769 l 0.849348098237112 5.763215130485046 a26.825464859754177,26.825464859754177 0 0,0 -0.4574015235428739,0.06339168331086771 l -0.7500179835074076 -5.776981379288515" fill="#ff3c05" stroke="none" /><path d="M 102.70371172650421 120.8252237178851 l 0.7261221495881264 5.592924742474693 a26.639863522383152,26.639863522383152 0 0,0 -0.45525316532557975,0.05512481829495097 l -0.6297415612111663 -5.604595089494995" fill="#ff3905" stroke="none" /><path d="M 102.34483914955558 120.86867818915974 l 0.6747368714379116 6.005045862129578 a27.042834239986846,27.042834239986846 0 0,0 -0.46303436609986526,0.04799540527955002 l -0.5712699087324437 -6.015770635864887" fill="#ff3f05" stroke="none" /><path d="M 101.98527174616119 120.90594882070398 l 1.0126167182217372 10.663383149973074 a31.711355321393825,31.711355321393825 0 0,0 -0.543858324338904,0.04692638466044281 l -0.8289140761412914 -10.67923378691218" fill="#ff800b" stroke="none" /><path d="M 101.26447882468166 120.96189622390904 l 0.3365174602689439 5.578617800473578 a26.58875840995355,26.58875840995355 0 0,0 -0.4570885253364128,0.02362625570870775 l -0.24044086651905147 -5.583583862944487" fill="#ff3805" stroke="none" /><line stroke="#e1ed5e" stroke-width="0.3" x1="102.19456741930631" x2="102.32365962044197" y1="184.97166512339345" y2="189.96999836594603" /><path d="M 102.22038585953345 185.97133177190398 a86.0,86.0 0 0,1 -42.740103519485714,-10.115201625700543" fill="none" id="id31" stroke="none" /><text fill="#e1ed5e" style="font-size:6.75px; font-family:Arial;" text-anchor="middle"><textPath startOffset="22.20632615414155" xlink:href="#id31">July</textPath></text><path d="M 100.54218724476979 120.99299961872073 l 0.16919326706983379 6.5510102374230765 a27.55319475465545,27.55319475465545 0 0,0 -0.4742302503128753,0.00816430382821821 l -0.05640332686429056 -6.552952018530454" fill="#ff4606" stroke="none" /><path d="M 100.18074693466247 120.99922214144158 l 0.05010855152976809 5.821623513142768 a26.821839159210185,26.821839159210185 0 0,0 -0.46171097238444303,0.0 l 0.05010855152976408 -5.821623513142768" fill="#ff3b05" stroke="none" /><path d="M 99.81925306533755 120.99922214144158 l -0.045059059889842996 5.234972365525354 a26.23516628071089,26.23516628071089 0 0,0 -0.45154507791512216,-0.007773758012702279 l 0.13516382769763308 -5.233421130233492" fill="#ff3304" stroke="none" /><path d="M 99.45781275523022 120.99299961872073 l -0.5394383816644372 20.88656612608687 a41.89353101577166,41.89353101577166 0 0,0 -0.7207276263088295,-0.024823316717711368 l 0.8988863596479097 -20.874186010943063" fill="#fbff18" stroke="none" /><path d="M 99.09653310690486 120.98055641714683 l -0.32752547322493025 7.605886526187031 a28.612935227942284,28.612935227942284 0 0,0 -0.4918862388094844,-0.02542490002161923 l 0.4583997804479036 -7.5991218194032095" fill="#ff5507" stroke="none" /><path d="M 98.73552117531835 120.96189622390904 l -0.10395967261938215 1.7233913501617477 a22.72652406856767,22.72652406856767 0 0,0 -0.39028718557997344,-0.026916489379798493 l 0.13360961897828566 -1.721346516265664" fill="#ff0000" stroke="none" /><path d="M 98.37488393609728 120.93702456842531 l -0.21515156944073338 2.771884295142599 a23.78022170761452,23.78022170761452 0 0,0 -0.40783723682682416,-0.03518991288301337 l 0.26283312400909925 -2.767770129980922" fill="#ff1001" stroke="none" /><path d="M 97.65516085044442 120.86867818915974 l -1.9755717249812206 17.582259566098653 a38.692900697460914,38.692900697460914 0 0,0 -0.6612295706149759,-0.08006569247098831 l 2.2779287186475856 -17.545648344902318" fill="#ffdb14" stroke="none" /><path d="M 97.2962882734958 120.8252237178851 l -1.3494588702992638 10.394149123435795 a31.481382315460614,31.481382315460614 0 0,0 -0.5367896627182365,-0.07439415601419794 l 1.5281771242043314 -10.369380401928993" fill="#ff7c0b" stroke="none" /><path d="M 96.93821686468263 120.77559828337769 l -1.3073380599847124 8.870886393460204 a29.966702750106194,29.966702750106194 0 0,0 -0.5096681670591406,-0.079599685839384 l 1.4598420906523701 -8.847068400273715" fill="#ff6809" stroke="none" /><path d="M 96.58105272829116 120.7198165907248 l -1.3124102669213282 7.953588593603155 a29.061140876142453,29.061140876142453 0 0,0 -0.49286453396351365,-0.08569081680247774 l 1.4491237723568917 -7.92981919827967" fill="#ff5b08" stroke="none" /><path d="M 96.22490169976321 120.6578951692458 l -0.9151298870838073 5.007725831254575 a26.090656216171777,26.090656216171777 0 0,0 -0.44109656732463326,-0.08453720694644205 l 1.0011940689801355 -4.991231425959665" fill="#ff3104" stroke="none" /><path d="M 95.86986931433489 120.58985236759428 l -1.09606726649516 5.464200752876108 a26.573047040929584,26.573047040929584 0 0,0 -0.4477033780437836,-0.09382059580748624 l 1.1899621059683305 -5.44452417634208" fill="#ff3805" stroke="none" /><path d="M 95.16358092515715 120.4354850818985 l -2.9428469208604078 12.434510620134354 a33.77800463146933,33.77800463146933 0 0,0 -0.5646503606574252,-0.13877732077457344 l 3.1564505662610434 -12.382012041045751" fill="#ff9b0e" stroke="none" /><path d="M 94.81253420990036 120.34920634021253 l -1.5460253077552062 6.064693102120097 a27.258649748557804,27.258649748557804 0 0,0 -0.45367421919881656,-0.1198194846712207 l 1.650189969765512 -6.037182268145295" fill="#ff4206" stroke="none" /><path d="M 94.46302465271185 120.25689768951611 l -0.9957587696179528 3.6429606878182104 a24.77659874758492,24.77659874758492 0 0,0 -0.41042887926966914,-0.11599130094487399 l 1.058318816992236 -3.625280593534815" fill="#ff1e03" stroke="none" /><path d="M 94.11515582081647 120.15858648285463 l -4.9442077310248065 16.93642789857012 a38.64334945669302,38.64334945669302 0 0,0 -0.6369252532577325,-0.1919003540290329 l 5.235007958722784 -16.848812175435363" fill="#ffdb14" stroke="none" /><path d="M 93.76903079525671 120.05430185196036 l -1.0652900528587952 3.4286236342908136 a24.59030680058647,24.59030680058647 0 0,0 -0.40313894043366716,-0.12907235801871927 l 1.1241503383834026 -3.409778429612388" fill="#ff1b02" stroke="none" /><path d="M 93.42475214034765 119.94407469862007 l -2.1658611833292163 6.569500975350824 a27.91731868071637,27.91731868071637 0 0,0 -0.4550925314117243,-0.1543920954948396 l 2.278623447678166 -6.531245892957862" fill="#ff4b07" stroke="none" /><path d="M 92.7421414339146 119.70592522655815 l -2.7141859006313633 7.36932855908048 a28.853267378286905,28.853267378286905 0 0,0 -0.4645785204268895,-0.17566384402167506 l 2.840634641818536 -7.321516464952172" fill="#ff5808" stroke="none" /><path d="M 92.40401165467489 119.57807347666478 l -3.2249565339557056 8.312076468586604 a29.91577029008345,29.91577029008345 0 0,0 -0.4784798444958181,-0.19039700482347116 l 3.3675574544933817 -8.255332619357066" fill="#ff6709" stroke="none" /><path d="M 92.06813273071674 119.44442032107085 l -3.2924330124411663 8.071170280520903 a29.716874717384453,29.716874717384453 0 0,0 -0.47197265965647617,-0.19728461001452383 l 3.4308771315951048 -8.013300627486407" fill="#ff6409" stroke="none" /><path d="M 91.7346041902142 119.30500536409082 l -4.516311302545996 10.548486234419546 a32.47465161210759,32.47465161210759 0 0,0 -0.5119850355457815,-0.224439193730013 l 4.697217012749521 -10.46918248739508" fill="#ff8a0c" stroke="none" /><path d="M 91.40352486487194 119.15986991738527 l -4.521091694205234 10.076633432180916 a32.04440181422053,32.04440181422053 0 0,0 -0.5013148358314291,-0.2301290531902238 l 4.693874525804083 -9.997317308656617" fill="#ff840c" stroke="none" /><path d="M 90.7491055286396 118.85261126421891 l -3.8728795739279183 7.892630632252769 a29.791633209553435,29.791633209553435 0 0,0 -0.45843094549598534,-0.22986679294200388 l 4.008164427106664 -7.824795998401463" fill="#ff6509" stroke="none" /><path d="M 90.42595943632237 118.69057910512821 l -3.5640634923698 6.95781579331945 a28.817528330067553,28.817528330067553 0 0,0 -0.43954840432481346,-0.22995095080221453 l 3.683302799221109 -6.895435423572519" fill="#ff5808" stroke="none" /><path d="M 90.10565033884886 118.52300852407294 l -4.896265277173051 9.16619753406281 a31.391948368708807,31.391948368708807 0 0,0 -0.47443277634407705,-0.2586985773657061 l 5.053320865385769 -9.080558304937338" fill="#ff7b0b" stroke="none" /><line stroke="#e1ed5e" stroke-width="0.3" x1="58.666819895761336" x2="56.23545636021788" y1="174.27360380694188" y2="178.64263932499728" /><path d="M 58.180547188652646 175.14741091055294 a86.0,86.0 0 0,1 -31.652253787137756,-30.449443065178592" fill="none" id="id32" stroke="none" /><text fill="#e1ed5e" style="font-size:6.75px; font-family:Arial;" text-anchor="middle"><textPath startOffset="22.20632615414155" xlink:href="#id32">August</textPath></text><path d="M 89.7882731507175 118.34994917583269 l -2.6194319820574186 4.706984866490197 a26.386755093931132,26.386755093931132 0 0,0 -0.39498614289168416,-0.22428344043900217 l 2.7000668918703097 -4.661198260256563" fill="#ff3505" stroke="none" /><path d="M 89.1626897886671 117.98757091392108 l -9.336371184626232 15.496339542494148 a39.09155510489319,39.09155510489319 0 0,0 -0.5733815275856877,-0.35221776549808487 l 9.60173191214423 -15.333333310167685" fill="#ffe015" stroke="none" /><path d="M 88.8546689885994 117.79835938074946 l -3.6544602534702735 5.835932272212962 a27.88572329026158,27.88572329026158 0 0,0 -0.4046327309346021,-0.2582557534175176 l 3.754374786451799 -5.772162089971641" fill="#ff4b06" stroke="none" /><path d="M 88.54995079064634 117.60387380957326 l -4.3388718791021 6.670796923145354 a28.95772208443525,28.95772208443525 0 0,0 -0.415509253852234,-0.2753768764261596 l 4.453055831694296 -6.595122025627876" fill="#ff5a08" stroke="none" /><path d="M 88.24862548938628 117.40417183066458 l -4.778646470925594 7.077332462076769 a29.539560695542555,29.539560695542555 0 0,0 -0.4189597516396008,-0.288164337456692 l 4.899763107188085 -6.994027335254976" fill="#ff6209" stroke="none" /><path d="M 87.95078237400918 117.19931262002967 l -4.437435325274115 6.33409070692892 a28.73379191274202,28.73379191274202 0 0,0 -0.40264617748555415,-0.287277356716874 l 4.545808830608556 -6.256769088367826" fill="#ff5608" stroke="none" /><path d="M 87.65650970185807 116.9893568818739 l -3.8056966771588043 5.238092101238601 a27.47463790953562,27.47463790953562 0 0,0 -0.38021631946756806,-0.28127494345368625 l 3.895297967044937 -5.171807209045148" fill="#ff4506" stroke="none" /><path d="M 87.36589467227662 116.77436683061367 l -4.512088968039919 5.990723803464231 a28.4998479014511,28.4998479014511 0 0,0 -0.38932321929673863,-0.2985164429630059 l 4.614540915830144 -5.912168018673858" fill="#ff5307" stroke="none" /><path d="M 87.07902340077011 116.55440617244103 l -4.3049856261427895 5.515564560803845 a27.996738787870484,27.996738787870484 0 0,0 -0.37734605439314545,-0.29978652723091326 l 4.399289173253293 -5.4406441195678" fill="#ff4c07" stroke="none" /><path d="M 86.79598089348748 116.32954008644616 l -6.43083260541275 7.9530738309457565 a31.227755929788017,31.227755929788017 0 0,0 -0.4150761665961696,-0.34157942686709175 l 6.566778900553609 -7.841199285221483" fill="#ff790b" stroke="none" /><path d="M 86.51685102203217 116.09983520530335 l -12.385526537565708 14.78919624129031 a40.29045341810658,40.29045341810658 0 0,0 -0.5278711761754789,-0.449863268257348 l 12.638263190318243 -14.573808582810011" fill="#ffef16" stroke="none" /><path d="M 86.24171649860922 115.8653595955263 l -7.4648665620859385 8.608108150129452 a32.39402293810548,32.39402293810548 0 0,0 -0.4181260779758523,-0.36894764912821326 l 7.611934992968378 -8.478337359228949" fill="#ff890c" stroke="none" /><path d="M 85.70375840098266 115.38237550388516 l -3.949248833721886 4.249286646272556 a26.801120870387372,26.801120870387372 0 0,0 -0.3352235262291029,-0.31697476764714166 l 4.021808194341806 -4.180677241879483" fill="#ff3b05" stroke="none" /><path d="M 85.18274418774928 114.88116024355367 l -4.352653915551473 4.371426208927271 a27.168870496992284,27.168870496992284 0 0,0 -0.32856139854111066,-0.3328309620552157 l 4.427255939148117 -4.29585475289139" fill="#ff4006" stroke="none" /><path d="M 84.9287848128048 114.62390073753433 l -6.883868764492383 6.67955518196569 a30.591877115334547,30.591877115334547 0 0,0 -0.3634510914902841,-0.38107701636924723 l 6.997826407361624 -6.560071049013943" fill="#ff700a" stroke="none" /><path d="M 84.67929136418377 114.36230785411682 l -6.342835095563072 5.946053310968144 a29.69408459967936,29.69408459967936 0 0,0 -0.3463653659033412,-0.3759111966974995 l 6.444246869462142 -5.8359908594693" fill="#ff6409" stroke="none" /><path d="M 84.43433777217949 114.09645910891817 l -7.100496332219345 6.430298610826803 a30.579446142040858,30.579446142040858 0 0,0 -0.34997615537594207,-0.39320192063662435 l 7.2101313372436255 -6.307122520449314" fill="#ff700a" stroke="none" /><path d="M 84.19399662182784 113.82643327865904 l -3.9923158918390658 3.4923116226884128 a26.304227243453596,26.304227243453596 0 0,0 -0.2951803895177251,-0.34336147982332393 l 4.05183879092757 -3.4230730437035586" fill="#ff3404" stroke="none" /><path d="M 83.72743513129214 113.27417163493432 l -6.4876648475170935 5.292243563980352 a29.372433165705203,29.372433165705203 0 0,0 -0.31621814372055634,-0.3945307550537259 l 6.577800903292511 -5.179784975348367" fill="#ff5f08" stroke="none" /><path d="M 83.50135304334701 112.99209946851258 l -6.693912456985174 5.271218706792043 a29.520223625974594,29.520223625974594 0 0,0 -0.3109367723935092,-0.4019276930173336 l 6.783656046596752 -5.155213019661456" fill="#ff6109" stroke="none" /><path d="M 83.28015986056508 112.70617746262583 l -7.668229729140471 5.827441348128525 a30.631241864097888,30.631241864097888 0 0,0 -0.31541242572614325,-0.4225464882221169 l 7.767403421561699 -5.694581980397101" fill="#ff710a" stroke="none" /><path d="M 83.06392112726016 112.41649034213515 l -12.92571453505616 9.476338112008158 a37.027322928513684,37.027322928513684 0 0,0 -0.3724247065112424,-0.517265344158784 l 13.08691903394301 -9.252439162398236" fill="#ffc612" stroke="none" /><path d="M 82.6465618267979 111.8261652097733 l -6.732978974250841 4.5884464455223135 a29.14781238438455,29.14781238438455 0 0,0 -0.27898189396818807,-0.41704007872199866 l 6.810963973629759 -4.471869452594494" fill="#ff5c08" stroke="none" /><path d="M 82.44556493220864 111.52570212397912 l -6.023240601700804 3.9546745154809835 a28.205475547760315,28.205475547760315 0 0,0 -0.26297594944710134,-0.4081445134718151 l 6.0904214145249504 -3.8504084020877203" fill="#ff4f07" stroke="none" /><path d="M 82.24976979558568 111.22182372390057 l -6.301296455115081 3.9837251256468504 a28.454958275668343,28.454958275668343 0 0,0 -0.25817503468036895,-0.41626036062541194 l 6.368936129463407 -3.8746684336561743" fill="#ff5307" stroke="none" /><path d="M 82.05923443525364 110.91462005526583 l -3.696959520805735 2.2491185442265533 a25.32735992545801,25.32735992545801 0 0,0 -0.22338625839376322,-0.37440821822152404 l 3.73512665489773 -2.185148232118918" fill="#ff2603" stroke="none" /><line stroke="#e1ed5e" stroke-width="0.3" x1="26.63291911575756" x2="22.317208475507996" y1="142.92168965132927" y2="145.44649492493687" /><path d="M 25.769776987707644 143.4266507060508 a86.0,86.0 0 0,1 -11.730757126820373,-40.83630448921669" fill="none" id="id33" stroke="none" /><text fill="#e1ed5e" style="font-size:6.75px; font-family:Arial;" text-anchor="middle"><textPath startOffset="21.46611528233685" xlink:href="#id33">September</textPath></text><path d="M 81.87401531095188 110.60418214915194 l -8.267678410751321 4.836811313825624 a30.578582880006575,30.578582880006575 0 0,0 -0.26188081387896545,-0.4566112729974761 l 8.349711220782664 -4.6937801949698414" fill="#ff700a" stroke="none" /><path d="M 81.69416730710424 110.29060199501025 l -5.908264629756577 3.32132390839653 a27.777815535976103,27.777815535976103 0 0,0 -0.23071934873230465,-0.41882263491414407 l 5.964560387940398 -3.2191307550845636" fill="#ff4906" stroke="none" /><path d="M 81.35079622478065 109.6543875284942 l -9.492671898475292 4.9142008577601715 a31.68925581331616,31.68925581331616 0 0,0 -0.24660477802359082,-0.4865746224419048 l 9.575855346285149 -4.750072023615582" fill="#ff7f0b" stroke="none" /><path d="M 81.18737489456691 109.33194174019688 l -6.330903718732132 3.140424280763552 a28.067008317461188,28.067008317461188 0 0,0 -0.21096599330851643,-0.4346524322786947 l 6.384022968655367 -3.0309828925195723" fill="#ff4d07" stroke="none" /><path d="M 81.02952815118164 109.00673069616217 l -13.684661372344145 6.497153082491932 a36.14869483001959,36.14869483001959 0 0,0 -0.26203566291618613,-0.5644015061345254 l 13.794471652100157 -6.260631509078579" fill="#ffbb11" stroke="none" /><path d="M 80.87730276802145 108.67885076344099 l -2.087698898670383 0.9475037417975005 a23.29265131065101,23.29265131065101 0 0,0 -0.1625593195153116,-0.3665283511000102 l 2.1036993029169744 -0.9114270542047945" fill="#ff0801" stroke="none" /><path d="M 80.73074385275274 108.34839909993369 l -5.138450703374655 2.226232133679682 a26.59998081639924,26.59998081639924 0 0,0 -0.17840862849015715,-0.42170529669384726 l 5.176010313057119 -2.137452311319676" fill="#ff3805" stroke="none" /><path d="M 80.58989483394504 108.01547362559985 l -8.205336774372466 3.388423707212428 a29.877441455761247,29.877441455761247 0 0,0 -0.19220782063577574,-0.4770440479693486 l 8.262447209265629 -3.246680291400274" fill="#ff6609" stroke="none" /><path d="M 80.45479744820244 107.68017299344265 l -6.719806631861801 2.6405087017343476 a28.219978349936284,28.219978349936284 0 0,0 -0.17376212525686133,-0.45363807787699995 l 6.764263036712172 -2.5244470570241897" fill="#ff4f07" stroke="none" /><path d="M 80.32549172779594 107.34259656027581 l -5.190226889353469 1.9370111607139304 a26.53989777881308,26.53989777881308 0 0,0 -0.1560492138611785,-0.42938041607543825 l 5.222800364219872 -1.8473829476323749" fill="#ff3705" stroke="none" /><path d="M 80.20201598880116 107.00284435728193 l -9.430241590097006 3.3356181149384274 a31.002789843653655,31.002789843653655 0 0,0 -0.1736291596168487,-0.5046476118546062 l 9.486261580657084 -3.1727977999945245" fill="#ff760a" stroke="none" /><path d="M 80.0844068197444 106.66101706037122 l -6.159291319379615 2.060051347044911 a27.494665588731003,27.494665588731003 0 0,0 -0.14625558104657765,-0.45012839400705495 l 6.193839151442442 -1.9537240530600528" fill="#ff4506" stroke="none" /><path d="M 79.97269907076064 106.31721596034903 l -7.935069154539551 2.5029606179405617 a29.320464791241317,29.320464791241317 0 0,0 -0.14768191393285537,-0.4826330395509274 l 7.976977840978536 -2.3660006058375864" fill="#ff5f08" stroke="none" /><path d="M 79.86692584326677 105.97154293290107 l -5.066552845586654 1.5027579794173864 a26.284717521478782,26.284717521478782 0 0,0 -0.12492420695297217,-0.4348775529195794 l 5.09166968942573 -1.415322950993211" fill="#ff3404" stroke="none" /><path d="M 79.76711848015287 105.62410040840567 l -8.295983232089908 2.3060206544458626 a29.610520834760685,29.610520834760685 0 0,0 -0.13227713904908825,-0.4922524427052174 l 8.33444844748077 -2.1628772785651065" fill="#ff6309" stroke="none" /><path d="M 79.67330655649465 105.27499134158121 l -8.743383227537423 2.2690001671729183 a30.033001274339192,30.033001274339192 0 0,0 -0.1255503671261462,-0.501511306964448 l 8.781144908958627 -2.1181610208110784" fill="#ff6909" stroke="none" /><path d="M 79.58551787078972 104.9243191809786 l -7.17425866575119 1.730552817037205 a28.380027131092504,28.380027131092504 0 0,0 -0.11046511221766626,-0.4758808122931188 l 7.202984343899411 -1.6068033473955121" fill="#ff5207" stroke="none" /><path d="M 79.50377843672027 104.57218783832718 l -10.299534590793685 2.297565268362642 a31.552687759492457,31.552687759492457 0 0,0 -0.11368878334045564,-0.5311161468217785 l 10.337557412858581 -2.1199353021246994" fill="#ff7d0b" stroke="none" /><path d="M 79.4281124754447 104.21870165774334 l -11.739836310618932 2.407502318206175 a32.98414886474191,32.98414886474191 0 0,0 -0.10927187844098524,-0.5571749540054426 l 11.779538122035584 -2.2050636371327776" fill="#ff910d" stroke="none" /><path d="M 79.29508885075956 103.50808413554451 l -7.077329527185795 1.1991293880655955 a28.178196467476944,28.178196467476944 0 0,0 -0.07691070413231679,-0.47892302804894454 l 7.096921985679402 -1.0771271303234373" fill="#ff4f07" stroke="none" /><path d="M 79.23777060512086 103.15116336523772 l -10.609024397055048 1.6101724138140268 a31.73051973855493,31.73051973855493 0 0,0 -0.0773105787695095,-0.5407100078503408 l 10.635169026841156 -1.4273169339832854" fill="#ff800b" stroke="none" /><path d="M 79.18660465613746 102.79330883721812 l -6.294926276172636 0.8448248306615034 a27.351364091039887,27.351364091039887 0 0,0 -0.05860810019698803,-0.46716422359413895 l 6.308535885616473 -0.7363428527799558" fill="#ff4306" stroke="none" /><path d="M 79.10278846688536 102.07522291339032 l -7.20199134208443 0.7152024772036495 a28.237416243028814,28.237416243028814 0 0,0 -0.04386938595338503,-0.48409501841863795 l 7.21323532431489 -0.5911260702364454" fill="#ff5007" stroke="none" /><path d="M 79.07016306316243 101.71520430193888 l -9.971950673426662 0.8172033420709524 a31.005379629756504,31.005379629756504 0 0,0 -0.03901280141604204,-0.5322986795068257 l 9.98454003350704 -0.645431526067366" fill="#ff760a" stroke="none" /><path d="M 79.04373962182676 101.35467743843564 l -7.115175747851464 0.45994695056175067 a28.130026445963907,28.130026445963907 0 0,0 -0.027076689719198573,-0.483472484027643 l 7.122038788458195 -0.33740275019867005" fill="#ff4e07" stroke="none" /><path d="M 79.0235259727143 100.99374915477108 l -7.531801341703628 0.35681503037572987 a28.540248564655585,28.540248564655585 0 0,0 -0.019023933704845435,-0.4909231979728437 l 7.536827408259674 -0.2271145853888894" fill="#ff5407" stroke="none" /><path d="M 79.0095281055655 100.63252640178507 l -7.1342121003241115 0.2149821848734158 a28.137450499458748,28.137450499458748 0 0,0 -0.010421491723261705,-0.48424576991454843 l 7.136855654732381 -0.09214659916873852" fill="#ff4e07" stroke="none" /><line stroke="#e1ed5e" stroke-width="0.3" x1="15.007084014347285" x2="10.007500721073583" y1="101.09737516637583" y2="101.16192664675087" /><path d="M 14.007167355692545 101.11028546245083 a86.0,86.0 0 0,1 10.666146001902534,-42.60595125391555" fill="none" id="id34" stroke="none" /><text fill="#e1ed5e" style="font-size:6.75px; font-family:Arial;" text-anchor="middle"><textPath startOffset="22.20632615414155" xlink:href="#id34">October</textPath></text><path d="M 79.00175016825051 100.2711162175752 l -16.788529314362847 0.2167629494282128 a37.789928609600025,37.789928609600025 0 0,0 -0.002799518779402018,-0.6505095719871509 l 16.78977313043175 0.07225610076261348" fill="#ffd013" stroke="none" /><path d="M 79.00486145842228 99.54816195383935 l -7.405246209777267 -0.15936889257187387 a28.406960906562162,28.406960906562162 0 0,0 0.014728746187485464,-0.4887753807843835 l 7.401405769134136 0.28681442078125174" fill="#ff5207" stroke="none" /><path d="M 79.01574976396665 99.18683210126434 l -10.650357389010924 -0.412715662527424 a31.6583510324888,31.6583510324888 0 0,0 0.025788578830627188,-0.5443561400219856 l 10.641675201946798 0.5959829091724187" fill="#ff7f0b" stroke="none" /><path d="M 79.05617556472873 98.46500227214037 l -7.9245538154268 -0.5807999459972542 a28.94580906836213,28.94580906836213 0 0,0 0.04069714066693687,-0.49660819821389324 l 7.913382190940366 0.7171220614189258" fill="#ff5908" stroke="none" /><path d="M 79.08570108090925 98.10471618934814 l -7.078059721608563 -0.6414239393387655 a28.107063675851958,28.107063675851958 0 0,0 0.04781262395876453,-0.4814665982977443 l 7.0659699719675695 0.76316606834094" fill="#ff4e07" stroke="none" /><path d="M 79.12142395522702 97.74499172005258 l -7.53647389999116 -0.8139832433803559 a28.580303923046355,28.580303923046355 0 0,0 0.05703764040309599,-0.4886636706737291 l 7.521345906584474 0.9435906523789468" fill="#ff5407" stroke="none" /><path d="M 79.16333360222342 97.38593545837743 l -6.494859067448749 -0.8148127184521814 a27.54577070116061,27.54577070116061 0 0,0 0.06307194592129996,-0.4699592569485025 l 6.479871122469615 0.9264903174653433" fill="#ff4606" stroke="none" /><path d="M 79.21141760316559 97.0276538004421 l -7.253941660640289 -1.0371667252357788 a28.327713451814905,28.327713451814905 0 0,0 0.07317197652862666,-0.4821119015038629 l 7.23501379067236 1.1618777391317339" fill="#ff5107" stroke="none" /><path d="M 79.26566170972629 96.67025291283419 l -12.365085536030593 -1.985720835155258 a33.52351498376245,33.52351498376245 0 0,0 0.09640107929372978,-0.5689646269438202 l 12.32907259521664 2.1982712504149062" fill="#ff980e" stroke="none" /><path d="M 79.32604984820605 96.31383870115002 l -1.708896215290448 -0.30469586345637256 a22.735847298537934,22.735847298537934 0 0,0 0.07201230592181805,-0.38469261774447006 l 1.7033981854587685 0.33406655866341534" fill="#ff0000" stroke="none" /><path d="M 79.3925641242962 95.95851677861259 l -6.6141796063382685 -1.297157786319981 a27.74017731128133,27.74017731128133 0 0,0 0.09592910513276871,-0.4677843851556367 l 6.590871205290505 1.4108178276390202" fill="#ff4806" stroke="none" /><path d="M 79.46518482838121 95.60439243477599 l -6.835502788488484 -1.4631827712146477 a27.990350648816783,27.990350648816783 0 0,0 0.10490465265919238,-0.4702669881359059 l 6.809303748827253 1.580627928900513" fill="#ff4c07" stroke="none" /><path d="M 79.54389044137918 95.25157060432595 l -11.162831629733748 -2.5912022859326864 a32.45963085271105,32.45963085271105 0 0,0 0.1310243815215227,-0.5431806503108072 l 11.116574447951411 2.7829681679028906" fill="#ff8a0c" stroke="none" /><path d="M 79.71946130924805 94.55025226153421 l -8.420401631332284 -2.2627142921135737 a29.719119198673592,29.719119198673592 0 0,0 0.13700970978794566,-0.49289682329729073 l 8.380205150977979 2.407322418829807" fill="#ff6409" stroke="none" /><path d="M 79.81627453868168 94.20196356495316 l -8.1659748416789 -2.345781989081696 a29.496224941421502,29.496224941421502 0 0,0 0.14438276102117703,-0.4867868936481179 l 8.124386183546015 2.485998269476353" fill="#ff6109" stroke="none" /><path d="M 79.91906864156998 93.8553929516997 l -6.767625247630937 -2.0708400947444567 a28.077367461872594,28.077367461872594 0 0,0 0.14539332103350996,-0.46093655998404676 l 6.730976442829223 2.1870268211549178" fill="#ff4d07" stroke="none" /><path d="M 80.02781315780177 93.51064311812611 l -4.333131765949951 -1.407919857129614 a25.556124364543226,25.556124364543226 0 0,0 0.13953973239731762,-0.41720603891559976 l 4.308254739780861 1.4822989989675361" fill="#ff2904" stroke="none" /><path d="M 80.14247586403 93.16781622104843 l -6.059049534180419 -2.084677810780331 a27.407648775675195,27.407648775675195 0 0,0 0.15732893438830667,-0.4447900836578997 l 6.022267518982303 2.188665520864842" fill="#ff4406" stroke="none" /><path d="M 80.2630227832202 92.82701384747504 l -5.785031102827529 -2.1024469723372534 a27.155230956850602,27.155230956850602 0 0,0 0.1634426948154511,-0.43794516350999413 l 5.74798381951045 2.201715272876589" fill="#ff4006" stroke="none" /><path d="M 80.38941819471856 92.48833698450439 l -5.8284372128496456 -2.232532246346208 a27.241384507872127,27.241384507872127 0 0,0 0.17149936867112708,-0.43644718693765294 l 5.789144294296827 2.332528438179624" fill="#ff4106" stroke="none" /><path d="M 80.52162464483688 92.15188598940014 l -3.68407370650895 -1.4843656077544198 a24.971868619739926,24.971868619739926 0 0,0 0.164075062259579,-0.3973207775787657 l 3.6579769573631715 1.5475609557864967" fill="#ff2103" stroke="none" /><path d="M 80.803312248108 91.48605970444005 l -20.075044261862246 -8.903500983359638 a42.9608681949602,42.9608681949602 0 0,0 0.3056311509318996,-0.6734177281341697 l 19.918810793966994 9.247740720335878" fill="#eeff19" stroke="none" /><path d="M 81.10775173730289 90.83032412892265 l -6.396063726904486 -3.1044389429432604 a28.109653461954807,28.109653461954807 0 0,0 0.21502544609583218,-0.43347817829862073 l 6.34167826785524 3.2140767097408425" fill="#ff4e07" stroke="none" /><path d="M 81.26839172434947 90.50648371742162 l -9.116499391005775 -4.620406007589517 a31.220504528700037,31.220504528700037 0 0,0 0.24707396879294696,-0.4772682656432114 l 9.035615989052713 4.7766469954930635" fill="#ff790b" stroke="none" /><path d="M 81.43458229118936 90.18545643968196 l -6.410728103454802 -3.3890091357789864 a28.251401087984213,28.251401087984213 0 0,0 0.23097794059701632,-0.4279670444566404 l 6.351442063639314 3.498857163568099" fill="#ff5007" stroke="none" /><path d="M 81.6062741919709 89.86733742301443 l -8.935117960241165 -4.922142274033838 a31.20116745913208,31.20116745913208 0 0,0 0.263192780863834,-0.46819058931708174 l 8.8490675380849 5.075216373285705" fill="#ff790b" stroke="none" /><line stroke="#e1ed5e" stroke-width="0.3" x1="26.266209847984243" x2="21.928928074336255" y1="57.711370442889674" y2="55.22380399835377" /><path d="M 25.398753493254645 57.213857153982495 a86.0,86.0 0 0,1 29.58750427330803,-30.492523968695096" fill="none" id="id35" stroke="none" /><text fill="#e1ed5e" style="font-size:6.75px; font-family:Arial;" text-anchor="middle"><textPath startOffset="21.46611528233685" xlink:href="#id35">November</textPath></text><path d="M 81.78341655067845 89.55222093294921 l -8.165973740315495 -4.6834407639338185 a30.413699831458363,30.413699831458363 0 0,0 0.26436793656172536,-0.45189049970971334 l 8.084146129283445 4.823310675997424" fill="#ff6e0a" stroke="none" /><path d="M 81.96595687620814 89.24020034530311 l -3.3171924537902306 -1.9791638499392998 a24.86275229860645,24.86275229860645 0 0,0 0.2224437318110094,-0.3656390074561694 l 3.2826329236930043 2.035970630602544" fill="#ff1f03" stroke="none" /><path d="M 82.15384107792192 88.93136811851018 l -2.139954462613974 -1.3272530124408028 a23.518135354005945,23.518135354005945 0 0,0 0.21633593991172076,-0.3421915037519994 l 2.1167909264562903 1.3638921639070178" fill="#ff0c01" stroke="none" /><path d="M 82.34701348167596 88.62581576622439 l -8.465276953542416 -5.454352982118936 a31.07029693473465,31.07029693473465 0 0,0 0.2935453072514215,-0.4470896419298512 l 8.370135010933074 5.599260688026454" fill="#ff770a" stroke="none" /><path d="M 82.54541684631803 88.32363383020206 l -5.222526847821547 -3.4936460681904906 a27.283339042738323,27.283339042738323 0 0,0 0.26448668209363674,-0.38810157003001117 l 5.16161570005917 3.5830256614909177" fill="#ff4206" stroke="none" /><path d="M 82.7489923806493 88.02491185347247 l -6.104217242734772 -4.237348980433258 a28.430786938708394,28.430786938708394 0 0,0 0.2825307830072939,-0.39961975614380474 l 6.0303738399236 4.341795236908848" fill="#ff5207" stroke="none" /><path d="M 82.95767976084542 87.72973835380427 l -12.828012884601534 -9.236012015147956 a36.80701845736445,36.80701845736445 0 0,0 0.3746207602971216,-0.510982296038 l 12.66712951179078 9.455456754857456" fill="#ffc312" stroke="none" /><path d="M 83.17141714833178 87.43820079747576 l -6.612353950974342 -4.935832287263774 a29.25140382849861,29.25140382849861 0 0,0 0.30466599045301246,-0.4009047308901869 l 6.5264120202972205 5.048921794034987" fill="#ff5e08" stroke="none" /><path d="M 83.39014120810768 87.1503855733568 l -5.170384413970818 -3.999880251208417 a27.536965428410912,27.536965428410912 0 0,0 0.2932633309947139,-0.3724146490057463 l 5.100767002382133 4.088287294167211" fill="#ff4606" stroke="none" /><path d="M 83.6137871275137 86.86637796730984 l -5.123669395029245 -4.106643663086138 a27.566316337576563,27.566316337576563 0 0,0 0.2999497548112105,-0.36770293294031187 l 5.052221148141642 4.194230765634532" fill="#ff4606" stroke="none" /><path d="M 83.84228863543731 86.58626213691792 l -4.916191634687261 -4.081302381536674 a27.389520272955235,27.389520272955235 0 0,0 0.3042706848266524,-0.36016051892040396 l 4.845210336373484 4.165321850086194" fill="#ff4406" stroke="none" /><path d="M 84.07557802195018 86.31012108654704 l -7.528091070619199 -6.4717360132932376 a30.927513394264103,30.927513394264103 0 0,0 0.35052380129238486,-0.40070929904306546 l 7.415575405748971 6.600360868539246" fill="#ff750a" stroke="none" /><path d="M 84.5562425177563 85.77008943001954 l -6.876396557633337 -6.3359262259425195 a30.35033639814193,30.35033639814193 0 0,0 0.35731404508619885,-0.38115771029663387 l 6.766315190576682 6.453353353117203" fill="#ff6d0a" stroke="none" /><path d="M 84.80347519578584 85.50635884689758 l -4.984061997202301 -4.7535345747096684 a27.88744981433015,27.88744981433015 0 0,0 0.3342984624977493,-0.34452395126839513 l 4.901499271001433 4.838622721528187" fill="#ff4b06" stroke="none" /><path d="M 85.05521093208273 85.24692304244772 l -6.040619890209654 -5.963130674282821 a29.48811027829924,29.48811027829924 0 0,0 0.35970467495326436,-0.3581599887652458 l 5.937079415089077 6.066226513698176" fill="#ff6108" stroke="none" /><path d="M 85.57189188830299 84.74124197986013 l -5.81873131067628 -6.153725240098555 a29.46911851354499,29.46911851354499 0 0,0 0.3715804882810363,-0.34534356755267254 l 5.711942938600387 6.252973393725875" fill="#ff6108" stroke="none" /><path d="M 86.10567301691215 84.25364557470407 l -5.1828567907179774 -5.873699392675445 a28.833412351498378,28.833412351498378 0 0,0 0.3749801771128059,-0.3251791144761991 l 5.080982814958397 5.962043500571325" fill="#ff5808" stroke="none" /><path d="M 86.37877921826538 84.01681056812374 l -5.133392943838087 -6.023541734206626 a28.91421367790734,28.91421367790734 0 0,0 0.38158839978980097,-0.3195693109290616 l 5.028947007089176 6.1110122025295" fill="#ff5908" stroke="none" /><path d="M 86.65592168130627 83.78471172551755 l -4.611833707912645 -5.6041497405644245 a28.257789227037915,28.257789227037915 0 0,0 0.378246119800049,-0.30584872362385473 l 4.514684189548095 5.682704561452414" fill="#ff5007" stroke="none" /><path d="M 86.93701828274178 83.55741782278169 l -11.04458197979749 -13.901990429636829 a38.75522821633621,38.75522821633621 0 0,0 0.5259037313820314,-0.4104762040904355 l 10.803645693256033 14.090045022950486" fill="#ffdc14" stroke="none" /><path d="M 87.51073957382395 83.11751280151077 l -4.575875813306094 -6.18548754721337 a28.694081859164964,28.694081859164964 0 0,0 0.3996056491733705,-0.2903304985556448 l 4.468724847778942 6.263337280585683" fill="#ff5607" stroke="none" /><path d="M 87.80319425747018 82.90503203632743 l -2.284300153316675 -3.2016610549264395 a24.933021828197152,24.933021828197152 0 0,0 0.35151863616238355,-0.246261268707884 l 2.228850377570631 3.240507166398266" fill="#ff2003" stroke="none" /><path d="M 88.09926311788651 82.69761687909137 l -4.895252067191127 -7.117166573715457 a29.63814521985777,29.63814521985777 0 0,0 0.4228309130650785,-0.2854973199780704 l 4.7720164597195085 7.200375805992193" fill="#ff6309" stroke="none" /><path d="M 88.39885842347998 82.49532879139004 l -1.5744258814476715 -2.3756116771169067 a23.849973279984653,23.849973279984653 0 0,0 0.3441584922856681,-0.22385025677387232 l 1.5333003633777162 2.402360858050314" fill="#ff1101" stroke="none" /><path d="M 88.70189139769569 82.29822771554957 l -0.9827538525798891 -1.539769666091495 a22.826662464544594,22.826662464544594 0 0,0 0.33303105687618545,-0.20854401726354038 l 0.9561036433314615 1.5564580246779656" fill="#ff0100" stroke="none" /><line stroke="#e1ed5e" stroke-width="0.3" x1="56.762969772571076" x2="54.21961505331055" y1="26.818313649435495" y2="22.513508569990535" /><path d="M 56.25429882871897 25.957352633546506 a86.0,86.0 0 0,1 42.265352541879196,-11.944610805530505" fill="none" id="id36" stroke="none" /><text fill="#e1ed5e" style="font-size:6.75px; font-family:Arial;" text-anchor="middle"><textPath startOffset="22.20632615414155" xlink:href="#id36">December</textPath></text><path d="M 89.94658935756843 81.56283822128135 l -3.026726956920773 -5.5507783924819325 a27.322358486687953,27.322358486687953 0 0,0 0.41485092114332617,-0.2215989948775441 l 2.9307309892491413 5.602056113861226" fill="#ff4306" stroke="none" /><path d="M 90.26544431104013 81.39251694778311 l -2.8884735283047243 -5.52128149882207 a27.231198015867577,27.231198015867577 0 0,0 0.417207255809479,-0.21370976084334542 l 2.7930057849064815 5.570183784977921" fill="#ff4106" stroke="none" /><path d="M 90.58718382345135 81.22770947309562 l -4.11239166024578 -8.201478660434091 a30.1747489003686,30.1747489003686 0 0,0 0.4663130013769125,-0.2288177646005201 l 3.970607391858442 8.27105158516944" fill="#ff6a09" stroke="none" /><path d="M 90.91171255644093 81.06846463323043 l -4.365725417604536 -9.094109936362065 a31.087734827827184,31.087734827827184 0 0,0 0.4844087712859557,-0.22743641333124143 l 4.208538435018973 9.167911332333315" fill="#ff770b" stroke="none" /><path d="M 91.23893434514133 80.91482961587045 l -3.6833714991368027 -8.023883785197654 a29.828926129434493,29.828926129434493 0 0,0 0.4684815821152935,-0.21019402998479003 l 3.544707798554735 8.086098145698973" fill="#ff6609" stroke="none" /><path d="M 91.56875222667455 80.76684994638697 l -3.7634749888912586 -8.585144349970363 a30.373817125474453,30.373817125474453 0 0,0 0.480652988985812,-0.20579052562783404 l 3.6151382421151386 8.648654403560984" fill="#ff6d0a" stroke="none" /><path d="M 92.23578459929587 80.48803036053334 l -2.5460123974602387 -6.398291911948324 a27.886241247482154,27.886241247482154 0 0,0 0.4475301316800911,-0.17363473829412102 l 2.435499100780471 6.441169354132997" fill="#ff4b06" stroke="none" /><path d="M 92.91201910852362 80.23233633223022 l -2.8789756611833477 -8.029172686738638 a29.529719508351718,29.529719508351718 0 0,0 0.47995355634113884,-0.16744637167230833 l 2.7403401007789236 8.077539911583157" fill="#ff6209" stroke="none" /><path d="M 93.25333710446033 80.11325718540243 l -1.720727686146137 -5.072088153532763 a26.356022965510626,26.356022965510626 0 0,0 0.43087978197301685,-0.14205428965734523 l 1.6331650819307109 5.100956167449342" fill="#ff3505" stroke="none" /><path d="M 93.59665428221793 80.00007090966166 l -3.4526421754968024 -10.783831098247381 a32.32306279888735,32.32306279888735 0 0,0 0.5313520989031241,-0.16509368361868207 l 3.2665047038829496 10.841664916748588" fill="#ff880c" stroke="none" /><path d="M 93.94186890950719 79.89281104454417 l -1.3172008508132975 -4.371844386324705 a25.56596555173406,25.56596555173406 0 0,0 0.4224590542760832,-0.12332738253322095 l 1.241751578813793 4.393870097776625" fill="#ff2904" stroke="none" /><path d="M 94.28887869178378 79.79150937346287 l -1.4605582927694867 -5.168105696946219 a26.370525767686594,26.370525767686594 0 0,0 0.4378789522605967,-0.11968885862607175 l 1.3713814512851674 5.192481096398587" fill="#ff3505" stroke="none" /><path d="M 94.63758080256005 79.69619591428918 l -1.7328978114902203 -6.561295633480449 a27.786275503912083,27.786275503912083 0 0,0 0.463489777408102,-0.11815386429170763 l 1.619699145397119 6.59015249394102" fill="#ff4906" stroke="none" /><path d="M 94.98787191387505 79.60689891045804 l -1.7495025420287003 -7.118290191898438 a28.3301305855109,28.3301305855109 0 0,0 0.4745651850114749,-0.11231424670603442 l 1.6267136700546914 7.147350350745343" fill="#ff5107" stroke="none" /><path d="M 95.33964822691252 79.52364482259891 l -2.4035560400461855 -10.560590607984881 a31.830658134531852,31.830658134531852 0 0,0 0.535296595961516,-0.11699510260527671 l 2.2214167199311485 10.600399208686026" fill="#ff810b" stroke="none" /><path d="M 96.04723909329186 79.375362276772 l -1.4683478484040111 -7.66151637798773 a28.800953699009302,28.800953699009302 0 0,0 0.4877028405836848,-0.08912457679856443 l 1.336249886717433 7.68565643613703" fill="#ff5708" stroke="none" /><path d="M 96.40284397218896 79.31037775812273 l -1.6910808218221358 -9.72652370747298 a30.872437276476795,30.872437276476795 0 0,0 0.5243474624680208,-0.08652182408964873 l 1.5234041532152294 9.754191794502256" fill="#ff740a" stroke="none" /><path d="M 97.11714578562143 79.19881850522333 l -1.1189009037042172 -8.073408865608606 a29.150574822894256,29.150574822894256 0 0,0 0.4976215109303454,-0.06460555395175226 l 0.979764664266014 8.091472742724495" fill="#ff5c08" stroke="none" /><path d="M 98.19473922651362 79.07773832637324 l -3.9329300044374027 -45.58111044421815 a66.75047068334726,66.75047068334726 0 0,0 1.1455964047123928,-0.08892032934111337 l 3.1477434103626756 45.64205603574772" fill="#37ff7b" stroke="none" /><path d="M 99.63851952072746 79.00311137660856 l -1.0844414378176228 -62.990665870174325 a84.0,84.0 0 0,0 1.445921917090143,-0.012445506434235476 l 1.543054966925665e-14 63.0" fill="#4dd2ff" stroke="none" /></svg>