<?xml version="1.0" encoding="utf-8" ?>
<svg baseProfile="full" height="200mm" version="1.1" viewBox="0,0,200,200" width="200mm" xmlns="http://www.w3.org/2000/svg" xmlns:ev="http://www.w3.org/2001/xml-events" xmlns:xlink="http://www.w3.org/1999/xlink"><defs /><rect fill="#1a1a1a" height="200" width="200" x="0" y="0" /><text alignment-baseline="middle" fill="#e1ed5e" style="dominant-baseline: central; font-size:9.0px; font-family:Arial;" text-anchor="middle" x="100.0" y="100.0">2024</text><line stroke="#e1ed5e" stroke-width="0.3" x1="100.0" x2="100.0" y1="15.0" y2="10.0" /><path d="M 100.0 14.0 a86.0,86.0 0 0,1 42.35913384403234,11.155469271406648" fill="none" id="id13" stroke="none" /><text fill="#e1ed5e" style="font-size:6.75px; font-family:Arial;" text-anchor="middle"><textPath startOffset="22.145653131862478" xlink:href="#id13">January</textPath></text><path d="M 101.44090949804482 79.04949213459386 l 0.8961195080623322 -13.029380976028417 a34.06016074905746,34.06016074905746 0 0,0 0.5829656102928981,0.04512522516886689 l -1.1196541131304638 13.012077983864497" fill="#ff940d" stroke="none" /><path d="M 102.15924093988457 79.11130261209362 l 1.3223550420217804 -12.792585487769536 a33.86074905746365,33.86074905746365 0 0,0 0.577670987247328,0.06472923902743721 l -1.541761930869905 12.768000488235128" fill="#ff920d" stroke="none" /><path d="M 102.87502721639298 79.19773525538626 l 1.8418303162929535 -13.326566661950027 a34.45324191075942,34.45324191075942 0 0,0 0.5851717342853857,0.08600009344457 l -2.0703271561860213 13.292985495206574" fill="#ff9a0e" stroke="none" /><path d="M 103.58742460773223 79.30868818359171 l 2.7021391151898135 -15.585220350888367 a36.81773211252434,36.81773211252434 0 0,0 0.6218081318921129,0.11331415514943978 l -2.96928198063298 15.536538021807562" fill="#ffb911" stroke="none" /><path d="M 106.04205211174951 79.88797359093562 l 3.9998900645661934 -13.31433313120102 a34.90217922691304,34.90217922691304 0 0,0 0.5723282071419387,0.1773087415671932 l -4.227858904579762 13.24370780182718" fill="#ffa00e" stroke="none" /><path d="M 106.38641147887787 79.99465700312896 l 3.369237539451263 -10.554088604779238 a32.07883332642831,32.07883332642831 0 0,0 0.5231557627185492,0.1719716903994011 l -3.549916039817554 10.494695992977816" fill="#ff790b" stroke="none" /><path d="M 107.06938296918511 80.22567764915836 l 8.883400053244648 -24.84845098787909 a47.38863984753698,47.38863984753698 0 0,0 0.7636585625124829,0.280426001927851 l -9.308647767411255 24.692294136942518" fill="#c1ff1e" stroke="none" /><path d="M 108.73861861582097 80.90454125486305 l 4.222211460472605 -9.226294028981902 a31.146505365206945,31.146505365206945 0 0,0 0.4842707392953232,0.2266631582533105 l -4.379970913639433 9.152454639158059" fill="#ff6c0a" stroke="none" /><path d="M 109.3889696526874 81.21577127319529 l 5.8842781509770345 -11.772498023620173 a34.16117164519203,34.16117164519203 0 0,0 0.5222962995067199,0.26668821203660414 l -6.085501672197333 11.669751859910736" fill="#ff960d" stroke="none" /><path d="M 110.34350942703115 81.72400993836675 l 8.366299411479133 -14.782449416757352 a37.98575216472635,37.98575216472635 0 0,0 0.5647351399912277,0.32604998509477634 l -8.618827019330759 14.636652534386405" fill="#ffc912" stroke="none" /><line stroke="#e1ed5e" stroke-width="0.3" x1="143.13028292997686" x2="145.6673583964461" y1="26.7553504044142" y2="22.446841604673864" /><path d="M 143.63769802327073 25.89364864446614 a86.0,86.0 0 0,1 29.32050498858742,28.57503671076993" fill="none" id="id14" stroke="none" /><text fill="#e1ed5e" style="font-size:6.75px; font-family:Arial;" text-anchor="middle"><textPath startOffset="20.669276256404974" xlink:href="#id14">February</textPath></text><path d="M 110.96478420261332 82.08984904055464 l 5.37618310488743 -8.781591065987817 a31.29658615403737,31.29658615403737 0 0,0 0.45579136630132566,0.28444752275572704 l -5.526138599978467 8.688007746390545" fill="#ff6e0a" stroke="none" /><path d="M 112.7482090630111 83.31218511350987 l 6.18312170857044 -8.093904797392025 a31.18539586526909,31.18539586526909 0 0,0 0.4226215969461583,0.3286331099892089 l -6.321153250151824 7.986570635782025" fill="#ff6d0a" stroke="none" /><path d="M 113.59037401385872 83.9905735841838 l 7.505757997752154 -8.841764048392003 a32.59798235074781,32.59798235074781 0 0,0 0.42349516683867233,0.3658050386078677 l -7.6564326443536865 8.711614877319416" fill="#ff800b" stroke="none" /><path d="M 114.65682725009322 84.96080404539774 l 5.523954584719434 -5.668064037760339 a28.914608277747856,28.914608277747856 0 0,0 0.35249396882764383,0.34948121796668 l -5.620440473677039 5.572402809564999" fill="#ff4d07" stroke="none" /><path d="M 115.41159269507618 85.73525988315684 l 10.730521744858175 -9.932010729652857 a35.62152297302896,35.62152297302896 0 0,0 0.4115173034652716,0.45232960372933306 l -10.899436749165323 9.746343550365852" fill="#ffa90f" stroke="none" /><path d="M 116.1254893667686 86.54754324733833 l 6.56911429943913 -5.480188787238338 a29.55486597340183,29.55486597340183 0 0,0 0.3216599345331926,0.39237281895672443 l -6.662221053210951 5.3666136865831175" fill="#ff5607" stroke="none" /><path d="M 116.57777611688842 87.10902102172516 l 10.421601751039058 -8.103900556102626 a34.20162820565936,34.20162820565936 0 0,0 0.35642660495579626,0.46657386733486605 l -10.55918033334916 7.923805775526879" fill="#ff960d" stroke="none" /><path d="M 116.7966241395341 87.39550010848427 l 22.957589966146827 -17.22780350586488 a49.702755106268384,49.702755106268384 0 0,0 0.5062532827785952,0.6868298068472996 l -23.249945268509247 16.831167389748707" fill="#a6ff21" stroke="none" /><path d="M 117.62189284568427 88.57770195909679 l 14.228198239731633 -9.222546198779733 a37.955736006960265,37.955736006960265 0 0,0 0.34970301993642855,0.5497912314677933 l -14.38441895129395 8.976941292633269" fill="#ffc812" stroke="none" /><line stroke="#e1ed5e" stroke-width="0.3" x1="172.87174338648825" x2="177.1583165268699" y1="56.24261187166439" y2="53.66864786411523" /><path d="M 173.72905801456457 55.72781907015455 a86.0,86.0 0 0,1 12.242430191666344,42.057860355516425" fill="none" id="id15" stroke="none" /><text fill="#e1ed5e" style="font-size:6.75px; font-family:Arial;" text-anchor="middle"><textPath startOffset="22.145653131862474" xlink:href="#id15">March</textPath></text><path d="M 118.00360718960297 89.18935116829356 l 11.095971368158962 -6.662811993427031 a33.942706218668434,33.942706218668434 0 0,0 0.2956673007969656,0.5021077157992564 l -11.208712379085695 6.471353109334219" fill="#ff930d" stroke="none" /><path d="M 118.36410011445183 89.81374322990088 l 4.972846449768763 -2.7583540984813713 a26.686626341301736,26.686626341301736 0 0,0 0.21877270608251545,0.4025171383084122 l -5.01946450546662 2.6725821266983556" fill="#ff2c04" stroke="none" /><path d="M 119.0197475246899 91.09779779509293 l 11.521064117702537 -5.392439739715184 a33.720586651199405,33.720586651199405 0 0,0 0.24088627866101373,0.5263799919260767 l -11.611934861218602 5.193870765574423" fill="#ff900d" stroke="none" /><path d="M 119.4528033332814 92.08871423366111 l 24.54331755186719 -9.981553582800185 a47.49539296515723,47.49539296515723 0 0,0 0.30067145113298166,0.7578884699841035 l -24.711047677966295 9.558764095602516" fill="#bfff1e" stroke="none" /><path d="M 119.83427380445688 93.10060997987247 l 8.315406509070744 -2.8925300340007656 a29.804130587894104,29.804130587894104 0 0,0 0.16394340858394138,0.48466955664377415 l -8.36383533922705 2.74935880288283" fill="#ff5908" stroke="none" /><path d="M 120.05942366710727 93.78553927170692 l 8.449441124558957 -2.61765845898644 a29.84563118863156,29.84563118863156 0 0,0 0.1474142237475895,0.4906940069778275 l -8.493131668310173 2.472226848417889" fill="#ff5a08" stroke="none" /><path d="M 120.26092885502905 94.47779374421319 l 12.99412431850892 -3.541606365313828 a34.46811948460869,34.46811948460869 0 0,0 0.15069218788411984,0.5722027823782093 l -13.05300598719777 3.3180230785628195" fill="#ff9a0e" stroke="none" /><path d="M 120.592083275326 95.88100663000786 l 9.581115765155099 -1.9164914878276789 a30.77091187802958,30.77091187802958 0 0,0 0.09916103317358477,0.51885242702839 l -9.61260309061084 1.7517364957659742" fill="#ff6709" stroke="none" /><path d="M 120.7213421655516 96.59031103205396 l 51.80575918228699 -8.5246179590419 a73.50243609396361,73.50243609396361 0 0,0 0.19418121327122,1.2467826854047064 l -51.94446188769648 7.634047091705752" fill="#40ffc3" stroke="none" /><path d="M 120.9064616781168 98.02013634271609 l 11.323633264394587 -1.072359843275284 a32.374296722873595,32.374296722873595 0 0,0 0.0476462966386869,0.5537221899462512 l -11.340373183731016 0.8778166059533709" fill="#ff7d0b" stroke="none" /><path d="M 120.93736805541906 98.37931529534042 l 28.68428965418181 -2.2203454313602333 a49.770095703691425,49.770095703691425 0 0,0 0.058624524768804226,0.8523877238238449 l -28.71817814011568 1.7276142833820545" fill="#a5ff21" stroke="none" /><path d="M 120.96210409425399 98.7389718711861 l 7.6791281775785185 -0.4619572822056746 a28.69301073041389,28.69301073041389 0 0,0 0.02535698442199936,0.4919187236139589 l -7.685926751457091 0.33006676521498507" fill="#ff4906" stroke="none" /><path d="M 120.99303781780057 99.45929381324524 l 62.97911345340172 -1.6221185602642854 a84.0,84.0 0 0,0 0.024754273605335886,1.4418123361237345 l -62.99767915860572 0.5407593081714844" fill="#4dd2ff" stroke="none" /><line stroke="#e1ed5e" stroke-width="0.3" x1="184.99686870605535" x2="189.99668451229388" y1="99.2704041080226" y2="99.22748670261217" /><path d="M 185.99683186730306 99.26182062694052 a86.0,86.0 0 0,1 -10.086455211305974,41.156179273409016" fill="none" id="id16" stroke="none" /><text fill="#e1ed5e" style="font-size:6.75px; font-family:Arial;" text-anchor="middle"><textPath startOffset="21.40746469413373" xlink:href="#id16">April</textPath></text><path d="M 120.96210409425399 101.26102812881392 l 10.790485600956501 0.6491288186140411 a31.809992956871195,31.809992956871195 0 0,0 -0.037469201005720966,0.5447939592639403 l -10.777752438785715 -0.8342662020323248" fill="#ff750a" stroke="none" /><path d="M 120.9064616781168 101.97986365728391 l 20.15714817611826 1.9089028895863398 a41.24733396859593,41.24733396859593 0 0,0 -0.07280666603455034,0.704338449001149 l -20.12140911760204 -2.2546458608704203" fill="#fff316" stroke="none" /><path d="M 120.7213421655516 103.40968896794604 l 2.66097162763988 0.4378618687096797 a23.696756017732113,23.696756017732113 0 0,0 -0.06949376400923937,0.4008215635561633 l -2.6530630461384064 -0.48347646518643095" fill="#ff0000" stroke="none" /><path d="M 120.65975698304385 103.76489593502545 l 12.434628146462673 2.266003467542869 a33.63941252019721,33.63941252019721 0 0,0 -0.10840494146150947,0.5672204612946684 l -12.393896912719004 -2.4791264938708517" fill="#ff8f0d" stroke="none" /><path d="M 120.51834098615036 104.47187691870673 l 10.731133989595488 2.338800706743923 a31.98304263164436,31.98304263164436 0 0,0 -0.12151901982587637,0.5354352231167079 l -10.689404108211948 -2.5226702637996476" fill="#ff780b" stroke="none" /><path d="M 120.05942366710727 106.21446072829308 l 10.172239536205531 3.1513858107597135 a31.649210755271987,31.649210755271987 0 0,0 -0.1652319150752289,0.517586620599434 l -10.116642905353046 -3.3255414650505313" fill="#ff730a" stroke="none" /><path d="M 119.83427380445688 106.89939002012753 l 13.771413649646288 4.7904125371137765 a35.58080540249409,35.58080540249409 0 0,0 -0.20562288063553472,0.5751637932361715 l -13.68715059896681 -5.0261112867308695" fill="#ffa90f" stroke="none" /><path d="M 119.71291397450082 107.23885506374661 l 4.759373832141673 1.7477079953591312 a26.070120561793097,26.070120561793097 0 0,0 -0.15787235260563426,0.4187751716502517 l -4.728670795721598 -1.8291514472035417" fill="#ff2303" stroke="none" /><path d="M 119.16976305983485 108.57439118712176 l 4.771910526109778 2.1344148820774085 a26.227509632514398,26.227509632514398 0 0,0 -0.18735875681146757,0.40941269650517126 l -4.734567304443254 -2.2160165607972684" fill="#ff2603" stroke="none" /><path d="M 119.0197475246899 108.90220220490707 l 5.864074123927469 2.7446827844586097 a27.474615735178357,27.474615735178357 0 0,0 -0.20360095657022545,0.4254476927450184 l -5.816093909397332 -2.8449429792687315" fill="#ff3805" stroke="none" /><path d="M 118.8641267826498 109.22738970284198 l 6.82663026146951 3.339246947689606 a28.599569126237725,28.599569126237725 0 0,0 -0.2195086206606694,0.439164284316882 l -6.768301727597108 -3.455943088170234" fill="#ff4806" stroke="none" /><path d="M 118.5362547648365 109.86951160357373 l 8.92822820858071 4.7537786366154755 a31.11492314703567,31.11492314703567 0 0,0 -0.25507517695826304,0.46930959588727306 l -8.845307682007109 -4.906343065977352" fill="#ff6c09" stroke="none" /><line stroke="#e1ed5e" stroke-width="0.3" x1="174.33088141563837" x2="178.70328620479359" y1="141.23008692659167" y2="143.65538615756765" /><path d="M 175.20536237346943 141.71514677278685 a86.0,86.0 0 0,1 -30.301960400862466,31.631185727798858" fill="none" id="id17" stroke="none" /><text fill="#e1ed5e" style="font-size:6.75px; font-family:Arial;" text-anchor="middle"><textPath startOffset="22.145653131862474" xlink:href="#id17">May</textPath></text><path d="M 118.00360718960297 110.81064883170644 l 11.464069315214065 6.88384423432056 a34.37206777975722,34.37206777975722 0 0,0 -0.30809163257430955,0.5032445278250641 l -11.34420971818435 -7.079625878270181" fill="#ff990e" stroke="none" /><path d="M 117.62189284568427 111.42229804090321 l 3.171239837336818 2.0555593487289765 a24.7791647677839,24.7791647677839 0 0,0 -0.23442926015786797,0.35495577905243836 l -3.1354861382582233 -2.1096950061204756" fill="#ff1001" stroke="none" /><path d="M 116.57777611688842 112.89097897827486 l 10.65257934179638 8.283510127730992 a34.49422049136181,34.49422049136181 0 0,0 -0.367500717750922,0.4643251515770214 l -10.508812193403898 -8.465155223222697" fill="#ff9a0e" stroke="none" /><path d="M 116.35404254752997 113.17365903436017 l 9.863851630741024 7.945620648304212 a33.666035547085386,33.666035547085386 0 0,0 -0.3664037860910379,0.44695304260880175 l -9.726001025411358 -8.113775972611506" fill="#ff8f0d" stroke="none" /><path d="M 115.41159269507618 114.26474011684316 l 9.594429981907144 8.880461154730579 a34.073472262501554,34.073472262501554 0 0,0 -0.4010028520965056,0.4258511326018014 l -9.44057129607438 -9.043853747276877" fill="#ff950d" stroke="none" /><path d="M 114.91283532996324 114.78537596483092 l 6.340719855028123 6.286525993879532 a29.928893400174005,29.928893400174005 0 0,0 -0.36485897771492926,0.36174054365236374 l -6.231868957183229 -6.394446547760557" fill="#ff5b08" stroke="none" /><path d="M 114.65682725009322 115.03919595460226 l 2.7354714917437923 2.806834732414644 a24.919327174048142,24.919327174048142 0 0,0 -0.30891364272042526,0.2959322818168635 l -2.686885363158055 -2.8533791445370875" fill="#ff1202" stroke="none" /><path d="M 114.39649973595853 115.28858382429668 l 6.972553406112142 7.404610090914804 a31.170779301487343,31.170779301487343 0 0,0 -0.39270762895792205,0.363484318578971 l -6.844416005840253 -7.523212155626154" fill="#ff6d0a" stroke="none" /><path d="M 114.13192950727249 115.5334660781643 l 9.133616452477561 10.039444455374035 a34.57252351162116,34.57252351162116 0 0,0 -0.4424212465973167,0.39561580681210806 l -8.959930179056867 -10.19475579206953" fill="#ff9b0e" stroke="none" /><path d="M 113.03279911837588 116.46651593811092 l 8.170539680128588 10.323209975369535 a34.16534780627253,34.16534780627253 0 0,0 -0.4630056297020809,0.36003597812085486 l -7.992124105791277 -10.461947005111183" fill="#ff960d" stroke="none" /><path d="M 112.7482090630111 116.68781488649013 l 10.652468351156774 13.944423020492168 a38.54770684012098,38.54770684012098 0 0,0 -0.5292912405568044,0.3971900144193793 l -10.411524121689203 -14.125232062175563" fill="#ffd013" stroke="none" /><path d="M 111.27062007382361 117.71928675628689 l 4.404633222619661 6.924815016090595 a29.206939553382774,29.206939553382774 0 0,0 -0.4253585620807122,0.26545520212159457 l -4.2851105317492335 -6.999406015053738" fill="#ff5107" stroke="none" /><path d="M 110.96478420261333 117.91015095944535 l 8.298338752305522 13.554712707522727 a36.89316402204085,36.89316402204085 0 0,0 -0.5429746907698344,0.32604070087726494 l -8.064431304978251 -13.695167408935914" fill="#ffba11" stroke="none" /><line stroke="#e1ed5e" stroke-width="0.3" x1="143.1302829299769" x2="145.66735839644613" y1="173.24464959558577" y2="177.55315839532614" /><path d="M 143.63769802327073 174.10635135553383 a86.0,86.0 0 0,1 -40.68552437913181,11.842963189579606" fill="none" id="id18" stroke="none" /><text fill="#e1ed5e" style="font-size:6.75px; font-family:Arial;" text-anchor="middle"><textPath startOffset="21.407464694133747" xlink:href="#id18">June</textPath></text><path d="M 110.34350942703117 118.27599006163325 l 3.935993097128715 6.954522663052123 a28.99108422753449,28.99108422753449 0 0,0 -0.43521941878030623,0.24140887510957748 l -3.816029490192314 -7.021064453594845" fill="#ff4e07" stroke="none" /><path d="M 110.02825361518725 118.45085714620011 l 2.0150819430343336 3.7075238117738403 a25.219749761776526,25.219749761776526 0 0,0 -0.38215268748865183,0.2034747812519839 l -1.9511404397591283 -3.7415690607483927" fill="#ff1702" stroke="none" /><path d="M 109.06512990194946 118.94263497670748 l 3.6173011828572816 7.558768230441152 a29.37972821808841,29.37972821808841 0 0,0 -0.45680061174255465,0.21380575151056208 l -3.4870118572432207 -7.619750213522248" fill="#ff5307" stroke="none" /><path d="M 108.73861861582097 119.09545874513695 l 5.429442010021223 11.864310650171737 a34.04763226581596,34.04763226581596 0 0,0 -0.5335533068181112,0.23865160761566026 l -5.224975300347484 -11.955766008697248" fill="#ff940d" stroke="none" /><path d="M 108.07796709384702 119.3841803445677 l 5.190655269314297 12.455683054652257 a34.493959481294276,34.493959481294276 0 0,0 -0.5485287564121866,0.22308186993320675 l -4.976072051711669 -12.542952181164756" fill="#ff9a0e" stroke="none" /><path d="M 107.06938296918513 119.77432235084164 l 2.6596953533235324 7.439641267265731 a28.900774744168704,28.900774744168704 0 0,0 -0.4685974754198312,0.16300252669911597 l -2.531592105858679 -7.484202226533438" fill="#ff4c07" stroke="none" /><path d="M 106.38641147887787 120.00534299687104 l 4.105142011680747 12.85929888265956 a34.49865766250984,34.49865766250984 0 0,0 -0.5657112342590656,0.17525878645366688 l -3.883790144550057 -12.927874256919871" fill="#ff9a0e" stroke="none" /><path d="M 105.69591212413111 120.21278271476187 l 1.364852589482417 4.8433803450042765 a26.032013091933546,26.032013091933546 0 0,0 -0.4311627773564763,0.11751533226421547 l -1.2815084111912456 -4.866096171412634" fill="#ff2303" stroke="none" /><path d="M 104.29559338865022 120.5559693870025 l 1.3314435256182513 6.371439258065236 a27.509069064092472,27.509069064092472 0 0,0 -0.46307393304420336,0.09262775575071387 l -1.2218731070430893 -6.393356410478812" fill="#ff3805" stroke="none" /><path d="M 103.94208987418118 120.62667999033965 l 2.525962232757214 13.216901771827114 a34.456113021502254,34.456113021502254 0 0,0 -0.5819231669317136,0.10604578589557194 l -2.2987043322744434 -13.258315731654049" fill="#ff9a0e" stroke="none" /><path d="M 103.2317021107853 120.74984581791261 l 1.1576528135428175 7.432961507039726 a28.52257115631603,28.52257115631603 0 0,0 -0.4844421454750617,0.07119631270334956 l -1.0298855624600702 -7.451738893041958" fill="#ff4706" stroke="none" /><path d="M 102.51750503828377 120.84855314841334 l 1.5760872781831212 13.05226360465982 a34.14707710154535,34.14707710154535 0 0,0 -0.5825557995596732,0.06527659243577942 l -1.3517955770226489 -13.07739595760257" fill="#ff960d" stroke="none" /><path d="M 102.15924093988457 120.88869738790638 l 1.3376254744880451 12.94031306966105 a34.00926378588888,34.00926378588888 0 0,0 -0.5812352200814147,0.05504357964969015 l -1.1152906910216152 -12.961368404815925" fill="#ff940d" stroke="none" /><path d="M 101.80034050326958 120.92268563240118 l 0.37574658488092294 4.366744878890675 a25.38288105398351,25.38288105398351 0 0,0 -0.4344473548920912,0.03362897290575083 l -0.30073023521359593 -4.372551618791479" fill="#ff1902" stroke="none" /><path d="M 101.08105385017728 120.97215588758144 l 0.5860049082460344 11.368338667503286 a32.38343207523719,32.38343207523719 0 0,0 -0.5554132388968216,0.02385183427430873 l -0.39076590874838324 -11.376723070203425" fill="#ff7d0b" stroke="none" /><line stroke="#e1ed5e" stroke-width="0.3" x1="101.45913802915013" x2="101.54496967792366" y1="184.9874750549273" y2="189.98673829345242" /><path d="M 101.47630435890484 185.9873277026323 a86.0,86.0 0 0,1 -42.54439059252881,-10.42667462771756" fill="none" id="id19" stroke="none" /><text fill="#e1ed5e" style="font-size:6.75px; font-family:Arial;" text-anchor="middle"><textPath startOffset="22.145653131862474" xlink:href="#id19">July</textPath></text><path d="M 100.0 121.0 l 1.2221312426033863e-15 9.97945892198699 a30.97945892198699,30.97945892198699 0 0,0 -0.5318036074772361,-0.004564894369179382 l 0.17131068262838273 -9.977988425812244" fill="#ff6a09" stroke="none" /><path d="M 99.27912038922189 120.98762331915562 l -0.34771383272664447 10.123308850765932 a31.129278700749886,31.129278700749886 0 0,0 -0.5339030609089096,-0.022928094678912395 l 0.5214426542363928 -10.115848187661191" fill="#ff6c09" stroke="none" /><path d="M 98.19965949673042 120.92268563240118 l -1.2849494932230925 14.933060857873873 a35.98824211791026,35.98824211791026 0 0,0 -0.6150569432916083,-0.05824653200200855 l 1.541105999899716 -14.908802570366682" fill="#ffae10" stroke="none" /><path d="M 97.12497278360702 120.80226474461374 l -1.4505445555997858 10.495417816357943 a31.595181671293037,31.595181671293037 0 0,0 -0.5366289564721168,-0.07886597676838113 l 1.6304986176795875 -10.46897076629068" fill="#ff720a" stroke="none" /><path d="M 96.05791012581884 120.62667999033965 l -6.817021052298737 35.669534744532385 a57.31511372581514,57.31511372581514 0 0,0 -0.9648140063937368,-0.19298982247090943 l 7.428331544223433 -35.54725552539861" fill="#52ff2b" stroke="none" /><path d="M 95.00130118170881 120.39639698878247 l -3.01170723640053 12.288793272128638 a33.652463023573766,33.652463023573766 0 0,0 -0.5599044023983496,-0.142325509600528 l 3.2222169320242586 -12.235282530692848" fill="#ff8f0d" stroke="none" /><path d="M 93.27111125876986 119.89276391827306 l -4.930792064258667 14.577010593648234 a36.38837055143556,36.38837055143556 0 0,0 -0.5900014351167007,-0.20523312592318912 l 5.180299271420389 -14.490219035156453" fill="#ffb410" stroke="none" /><path d="M 92.25597844496254 119.51999308798841 l -2.939404328656697 7.409219069239067 a28.97098645233459,28.97098645233459 0 0,0 -0.46070150860330056,-0.18736329284265454 l 3.0661602984504386 -7.357668519817121" fill="#ff4d07" stroke="none" /><path d="M 91.26138138417905 119.09545874513695 l -2.7493141611087846 6.007747614231078 a27.606947839416662,27.606947839416662 0 0,0 -0.42923714500622034,-0.2009046573169316 l 2.852040019986495 -5.959666725343619" fill="#ff3a05" stroke="none" /><path d="M 90.93487009805054 118.94263497670748 l -5.001576602031389 10.4513714535902 a32.58649790777645,32.58649790777645 0 0,0 -0.502514445708401,-0.24580499671598172 l 5.18025129700186 -10.363972706776998" fill="#ff800b" stroke="none" /><path d="M 89.97174638481275 118.45085714620012 l -7.71781245207434 14.199905636483956 a37.16174338153043,37.16174338153043 0 0,0 -0.5578788371085217,-0.3094459867880819 l 7.960435477338964 -14.065326734262728" fill="#ffbe11" stroke="none" /><line stroke="#e1ed5e" stroke-width="0.3" x1="58.13341422392154" x2="55.67067388415222" y1="173.97424548756322" y2="178.32567169271397" /><path d="M 57.64086615596768 174.84453072859336 a86.0,86.0 0 0,1 -31.369924170532247,-30.572349798747897" fill="none" id="id20" stroke="none" /><text fill="#e1ed5e" style="font-size:6.75px; font-family:Arial;" text-anchor="middle"><textPath startOffset="22.145653131862474" xlink:href="#id20">August</textPath></text><path d="M 88.72937992617639 117.7192867562869 l -7.063690813554569 11.105295206766794 a34.16143265525956,34.16143265525956 0 0,0 -0.4921106762333614,-0.31898019482195084 l 7.253287122044941 -10.982401170240948" fill="#ff960d" stroke="none" /><path d="M 87.83215693770417 117.11559508785305 l -3.1009171083727924 4.3618282514149085 a26.351750424659237,26.351750424659237 0 0,0 -0.36643864447079627,-0.2652733196544028 l 3.1753367632175427 -4.307954160387441" fill="#ff2703" stroke="none" /><path d="M 86.96720088162412 116.46651593811092 l -16.908027989925106 21.36274102357399 a48.244230848904174,48.244230848904174 0 0,0 -0.6449776497920361,-0.5195483391002026 l 17.272256410072405 -21.069344390680374" fill="#b7ff1f" stroke="none" /><path d="M 86.40962598614128 116.0094264158162 l -8.783603373086802 10.34706268743973 a34.57252351162116,34.57252351162116 0 0,0 -0.44914732620719766,-0.38796276290547 l 8.959930179056862 -10.194755792069536" fill="#ff9b0e" stroke="none" /><path d="M 86.13680546590413 115.77377054828092 l -7.531338234546083 8.569280402222448 a32.40848904172018,32.40848904172018 0 0,0 -0.41472830634865476,-0.37085260887860855 l 7.677331567718109 -8.438732263460459" fill="#ff7e0b" stroke="none" /><path d="M 85.86807049272751 115.53346607816431 l -14.677897285601677 16.133580306025603 a42.81130629324274,42.81130629324274 0 0,0 -0.5393617664929059,-0.4992251988622106 l 14.95268882340855 -15.879237361031015" fill="#f8ff18" stroke="none" /><path d="M 84.1078160697243 113.72728997021213 l -10.4152831726334 8.996473540696627 a34.76279985085139,34.76279985085139 0 0,0 -0.3862071520437037,-0.45495105400341135 l 10.568184888184215 -8.816355704243662" fill="#ff9e0e" stroke="none" /><path d="M 83.64595745247003 113.17365903436017 l -12.191441735705588 9.820562475405245 a36.65486183038489,36.65486183038489 0 0,0 -0.39052014626916154,-0.4934094475244207 l 12.358228312616312 -9.609833083966144" fill="#ffb711" stroke="none" /><path d="M 83.20337586046588 112.60449989151573 l -3.527729478102259 2.6472739673550905 a25.410548121141815,25.410548121141815 0 0,0 -0.2588221392561965,-0.35114194013213706 l 3.572653636942286 -2.5863257179540735" fill="#ff1a02" stroke="none" /><path d="M 82.18462484594161 111.11811171558189 l -4.4540283120174555 2.7796430852085576 a26.25021750838961,26.25021750838961 0 0,0 -0.23529199405202628,-0.3843317894041483 l 4.501088270524886 -2.702774179679852" fill="#ff2603" stroke="none" /><path d="M 81.99639281039703 110.81064883170644 l -6.819769685348592 4.095075748153261 a28.954803828147657,28.954803828147657 0 0,0 -0.2522188018192087,-0.4283226657858696 l 6.889062197297571 -3.977401914073832" fill="#ff4d07" stroke="none" /><line stroke="#e1ed5e" stroke-width="0.3" x1="26.387840678322732" x2="22.057713659400548" y1="142.50000000000003" y2="145.00000000000006" /><path d="M 25.521815274538298 143.00000000000003 a86.0,86.0 0 0,1 -11.493303480769221,-40.785679425670985" fill="none" id="id21" stroke="none" /><text fill="#e1ed5e" style="font-size:6.75px; font-family:Arial;" text-anchor="middle"><textPath startOffset="21.40746469413373" xlink:href="#id21">September</textPath></text><path d="M 81.81346652052679 110.50000000000001 l -10.114220166620068 5.8394477358412455 a32.67889547168248,32.67889547168248 0 0,0 -0.276318166844037,-0.4882277245180406 l 10.212971698485484 -5.664963241224084" fill="#ff810b" stroke="none" /><path d="M 81.1358732173502 109.22738970284198 l -3.6353517723617523 1.7782327216625697 a25.046961097070888,25.046961097070888 0 0,0 -0.18561079389406612,-0.38785517190614965 l 3.6653418242157305 -1.7155650476913156" fill="#ff1402" stroke="none" /><path d="M 80.83023694016515 108.57439118712176 l -12.835410023569988 5.741115643718399 a35.06087334797199,35.06087334797199 0 0,0 -0.24102867515911747,-0.5515207777914359 l 12.932072580746075 -5.519932796151114" fill="#ffa20f" stroke="none" /><path d="M 80.68587082218212 108.24405325689762 l -9.8907993998979 4.221794120529008 a31.75413680241952,31.75413680241952 0 0,0 -0.20968943350230623,-0.5031783056475905 l 9.96181467793669 -4.051383305440136" fill="#ff750a" stroke="none" /><path d="M 80.05021161711548 106.5578916946017 l -17.530803187533472 5.762723213738668 a39.453672784521686,39.453672784521686 0 0,0 -0.20597688711248668,-0.6452196651815202 l 17.627144790423216 -5.460934514865756" fill="#ffdc14" stroke="none" /><path d="M 79.94057633289273 106.21446072829308 l -7.4741028631463085 2.3154961724253638 a28.8245598044496,28.8245598044496 0 0,0 -0.14237092462823664,-0.473906504453656 l 7.512750107778174 -2.186852064380984" fill="#ff4b07" stroke="none" /><path d="M 79.83685265289637 105.86919833188381 l -10.758384461165164 3.1316089222700407 a32.20490118904586,32.20490118904586 0 0,0 -0.14995446670734358,-0.532135501146948 l 10.810557419947083 -2.946465497220097" fill="#ff7b0b" stroke="none" /><path d="M 79.48165901384964 104.47187691870673 l -14.335891206804364 3.124440764488297 a35.672419936197535,35.672419936197535 0 0,0 -0.12526504316808101,-0.5994385780153575 l 14.387413960796811 -2.8778857351875304" fill="#ffaa0f" stroke="none" /><path d="M 79.407916724674 104.11899336999214 l -8.975305667222093 1.795312501539765 a30.153101048183288,30.153101048183288 0 0,0 -0.09717010224387353,-0.5084350351168084 l 9.004802061748125 -1.640974901389642" fill="#ff5e08" stroke="none" /><path d="M 79.34024301695615 103.76489593502545 l -17.303712687778617 3.153312868710613 a38.588685420723365,38.588685420723365 0 0,0 -0.11316624925571453,-0.6527128529464995 l 17.355293754526567 -2.8558069828435206" fill="#ffd113" stroke="none" /><path d="M 79.17382384314188 102.69636545807758 l -16.708224119478952 2.163214122566911 a37.84767783900236,37.84767783900236 0 0,0 -0.07789036552943483,-0.6450439624926229 l 16.742896571268048 -1.8760764831508887" fill="#ffc712" stroke="none" /><path d="M 79.0935383218832 101.97986365728391 l -10.516287159651966 0.9959033277615765 a31.56333844305423,31.56333844305423 0 0,0 -0.046452783182854125,-0.5398517544430343 l 10.531833565532562 -0.8152305259428801" fill="#ff720a" stroke="none" /><path d="M 79.03789590574601 101.26102812881392 l -19.284579950057903 1.160112441959008 a40.3194431785226,40.3194431785226 0 0,0 -0.03563165616140061,-0.6912446104577283 l 19.301653195675875 -0.8288960381245489" fill="#ffe715" stroke="none" /><path d="M 79.00696218219943 100.54070618675478 l -15.06024547133817 0.38789850097317624 a36.06524008783196,36.06524008783196 0 0,0 -0.010628200247337146,-0.6190393817131236 l 15.064685103184173 -0.12931220329100032" fill="#ffaf10" stroke="none" /><line stroke="#e1ed5e" stroke-width="0.3" x1="15.003131293944662" x2="10.003315487706104" y1="100.72959589197737" y2="100.7725132973878" /><path d="M 14.003168132696942 100.73817937305945 a86.0,86.0 0 0,1 10.791469493833604,-42.45332614584628" fill="none" id="id22" stroke="none" /><text fill="#e1ed5e" style="font-size:6.75px; font-family:Arial;" text-anchor="middle"><textPath startOffset="22.145653131862435" xlink:href="#id22">October</textPath></text><path d="M 79.00077361379809 100.18025310272382 l -4.800581318159817 0.041207216949901565 a25.800758172100924,25.800758172100924 0 0,0 0.0,-0.4429206393474365 l 4.800581318159817 0.0412072169498998" fill="#ff1f03" stroke="none" /><path d="M 79.01933749520258 99.09900007780938 l -9.045319306093237 -0.38844493061722 a30.05365621245391,30.05365621245391 0 0,0 0.026559432872467377,-0.5152459023163152 l 9.0373182837642 0.5436626263102472" fill="#ff5d08" stroke="none" /><path d="M 79.13060592940154 97.66154086499901 l -11.712609138557491 -1.3124222841401563 a32.785909599370264,32.785909599370264 0 0,0 0.06747326728399507,-0.5587754454014869 l 11.688353785013827 1.5132914064650793" fill="#ff830c" stroke="none" /><path d="M 79.34024301695615 96.23510406497455 l -3.4465168607500654 -0.628070181545903 a24.503277126403447,24.503277126403447 0 0,0 0.07896321973245142,-0.4131689323208246 l 3.435227348735455 0.6871416789000421" fill="#ff0c01" stroke="none" /><path d="M 79.407916724674 95.88100663000787 l -4.320012100976438 -0.8641234091904196 a25.405588929858723,25.405588929858723 0 0,0 0.08921268026394796,-0.42691497041679394 l 4.304541709888123 0.9381548308926226" fill="#ff1902" stroke="none" /><path d="M 79.83685265289637 94.1308016681162 l -14.306754224859581 -4.16448764598644 a35.90054273521979,35.90054273521979 0 0,0 0.1773207812554264,-0.5902432103407441 l 14.233157123600526 4.409468459917908" fill="#ffad10" stroke="none" /><path d="M 79.94057633289273 93.78553927170692 l -5.622156900525361 -1.741758579231166 a26.885777022828023,26.885777022828023 0 0,0 0.14036332406890661,-0.43968611347179076 l 5.591428860679198 1.8380137263943486" fill="#ff2f04" stroke="none" /><path d="M 80.05021161711548 93.44210830539832 l -6.525730587820628 -2.145137261696074 a27.869262957285496,27.869262957285496 0 0,0 0.15330029340951137,-0.4532050777882034 l 6.487944872838751 2.2568440139584394" fill="#ff3e05" stroke="none" /><path d="M 80.41425534168474 92.42381321644754 l -10.844661790404192 -4.194948150397459 a32.627737498446365,32.627737498446365 0 0,0 0.20655117409050952,-0.5206438879215056 l 10.771051941347551 4.380493055532548" fill="#ff810b" stroke="none" /><path d="M 80.68587082218212 91.75594674310238 l -11.175340625781441 -4.7700883863158765 a33.150801673778844,33.150801673778844 0 0,0 0.2278977402699306,-0.5214746290565159 l 11.091809003494534 4.961225085148259" fill="#ff880c" stroke="none" /><path d="M 80.83023694016515 91.42560881287825 l -12.043903793904693 -5.387084974741893 a34.193797903633424,34.193797903633424 0 0,0 0.24426670910247375,-0.5337668425112337 l 11.949652619947173 5.593040799467798" fill="#ff960d" stroke="none" /><path d="M 80.9802524753101 91.09779779509293 l -2.931564267146034 -1.3721201003818109 a24.236785847454115,24.236785847454115 0 0,0 0.17960698086893725,-0.3753095117960909 l 2.9075780283171917 1.4222421142429889" fill="#ff0801" stroke="none" /><path d="M 81.46374523516351 90.13048839642627 l -2.7962197963394853 -1.4888295438444008 a24.167879189625886,24.167879189625886 0 0,0 0.19812441868707084,-0.36452661516587265 l 2.7702500280370637 1.536610992484893" fill="#ff0701" stroke="none" /><path d="M 81.63589988554816 89.8137432299009 l -4.930392259671137 -2.734805474883922 a26.638078468740936,26.638078468740936 0 0,0 0.2252397121900501,-0.397976989387441 l 4.882719182459718 2.8190392343704684" fill="#ff2c04" stroke="none" /><line stroke="#e1ed5e" stroke-width="0.3" x1="26.387840678322718" x2="22.05771365940052" y1="57.49999999999999" y2="54.99999999999999" /><path d="M 25.521815274538284 56.99999999999999 a86.0,86.0 0 0,1 29.574782752854787,-30.34633250058573" fill="none" id="id23" stroke="none" /><text fill="#e1ed5e" style="font-size:6.75px; font-family:Arial;" text-anchor="middle"><textPath startOffset="21.40746469413373" xlink:href="#id23">November</textPath></text><path d="M 81.81346652052679 89.5 l -15.016604946453707 -8.669840908149316 a38.33968181629863,38.33968181629863 0 0,0 0.3339683690219176,-0.5671513030585391 l 14.86556286730201 8.926343379501429" fill="#ffcd13" stroke="none" /><path d="M 81.99639281039701 89.18935116829357 l -2.855500244601945 -1.714645851697466 a24.33074947176534,24.33074947176534 0 0,0 0.21808697616172673,-0.35622868568762966 l 2.8256453039848255 1.7634116535096387" fill="#ff0a01" stroke="none" /><path d="M 82.37810715431573 88.57770195909679 l -15.32112501563541 -9.93096813055386 a39.25817624394084,39.25817624394084 0 0,0 0.37141143772446916,-0.5623642549470889 l 15.148389138990211 10.19251226384001" fill="#ffd914" stroke="none" /><path d="M 83.2033758604659 87.39550010848427 l -7.422052219522514 -5.569646353853013 a30.279429920868374,30.279429920868374 0 0,0 0.3155520650009945,-0.4130677824436674 l 7.325348177167212 5.696235049537565" fill="#ff6008" stroke="none" /><path d="M 83.42222388311158 87.10902102172516 l -4.449357800904275 -3.4598475376832303 a26.636251398268218,26.636251398268218 0 0,0 0.2837820761744401,-0.3585493828173841 l 4.389309294088274 3.535716864415297" fill="#ff2c04" stroke="none" /><path d="M 83.64595745247003 86.82634096563983 l -4.802344233682021 -3.868428574542735 a27.16662385549157,27.16662385549157 0 0,0 0.29566753774858634,-0.3606663211841115 l 4.735229876694805 3.9502971774253393" fill="#ff3304" stroke="none" /><path d="M 84.10781606972428 86.27271002978789 l -4.823357161951397 -4.166301037195299 a27.373604839043793,27.373604839043793 0 0,0 0.3102197662505693,-0.35297314773610666 l 4.751126331742235 4.248486462742706" fill="#ff3605" stroke="none" /><path d="M 84.58840730492382 85.73525988315684 l -4.322742002110255 -4.001065462362344 a26.890214193976053,26.890214193976053 0 0,0 0.3164647413153946,-0.33607458853001615 l 4.253421427058589 4.074681510836871" fill="#ff2f04" stroke="none" /><path d="M 85.34317274990677 84.96080404539775 l -20.22219525066619 -20.7497538053511 a49.97394456643328,49.97394456643328 0 0,0 0.6195044171659454,-0.5934712178881146 l 19.86301834763494 21.093837153544783" fill="#a3ff22" stroke="none" /><path d="M 85.86807049272753 84.46653392183569 l -4.659373916055232 -5.121468135917446 a27.92381406139951,27.92381406139951 0 0,0 0.3573383534656567,-0.3195341591266213 l 4.570770535766184 5.200697824927469" fill="#ff3e05" stroke="none" /><path d="M 86.68645165197937 83.75963576809568 l -5.2134480787099235 -6.359558961226054 a29.22338318763724,29.22338318763724 0 0,0 0.39068772940679164,-0.31471037947683156 l 5.103509578947887 6.448117634496285" fill="#ff5107" stroke="none" /><path d="M 86.96720088162412 83.53348406188908 l -4.16788235467305 -5.265983201154998 a27.715789037577164,27.715789037577164 0 0,0 0.375601806508665,-0.29207023654835484 l 4.07687060352914 5.336754489324157" fill="#ff3b05" stroke="none" /><path d="M 87.25179093698888 83.31218511350988 l -11.364217389285539 -14.876125358853757 a39.72016406347102,39.72016406347102 0 0,0 0.5453900279845911,-0.40927084463273017 l 11.107174372390196 15.06901523075049" fill="#ffdf14" stroke="none" /><path d="M 87.83215693770416 82.88440491214696 l -4.565928034475376 -6.422549587322837 a28.88015494883374,28.88015494883374 0 0,0 0.4065293128827393,-0.28378903304966996 l 4.4550036304188705 6.499983436177633" fill="#ff4c07" stroke="none" /><path d="M 88.4268655584334 82.4767994020092 l -7.180358682364688 -10.871978217473236 a34.02910055102126,34.02910055102126 0 0,0 0.4902043732406802,-0.3177445522533925 l 6.992668676866982 10.993636611430535" fill="#ff940d" stroke="none" /><path d="M 88.72937992617638 82.28071324371311 l -2.0810746797454986 -3.2717950538765956 a24.877565563243152,24.877565563243152 0 0,0 0.3623072351250411,-0.2261065108452785 l 2.0246033158307593 3.30703736156341" fill="#ff1202" stroke="none" /><line stroke="#e1ed5e" stroke-width="0.3" x1="56.869717070023135" x2="54.33264160355391" y1="26.7553504044142" y2="22.446841604673864" /><path d="M 56.362301976729285 25.89364864446614 a86.0,86.0 0 0,1 42.16139366436587,-11.88097634709845" fill="none" id="id24" stroke="none" /><text fill="#e1ed5e" style="font-size:6.75px; font-family:Arial;" text-anchor="middle"><textPath startOffset="22.145653131862474" xlink:href="#id24">December</textPath></text><path d="M 89.34428304082924 81.90426304109057 l -6.637385480289201 -11.271731616597402 a34.080780544392425,34.080780544392425 0 0,0 0.5066798279598125,-0.29253173506554947 l 6.442913184468989 11.384010248939125" fill="#ff950d" stroke="none" /><path d="M 89.97174638481275 81.54914285379989 l -7.90726779650511 -14.548482131436403 a37.558478684177814,37.558478684177814 0 0,0 0.5691203799689236,-0.30302454650056504 l 7.656358600749624 14.682077145659543" fill="#ffc312" stroke="none" /><path d="M 90.28995756902619 81.37971332152246 l -1.5957183704147468 -3.060000378624062 a24.45107511289721,24.45107511289721 0 0,0 0.3738368865994186,-0.19088377799094106 l 1.5429542621017458 3.086942108287837" fill="#ff0b01" stroke="none" /><path d="M 90.93487009805054 81.0573650232925 l -5.660025694466143 -11.827276812216526 a34.11184074242864,34.11184074242864 0 0,0 0.5303762377628654,-0.24824285953921119 l 5.456160742831755 11.92269590332628" fill="#ff950d" stroke="none" /><path d="M 91.26138138417902 80.90454125486306 l -3.2583820500637524 -7.120152823724261 a28.830302025935286,28.830302025935286 0 0,0 0.45179361849332395,-0.20208153896923586 l 3.1356750287148096 7.1750381136033425" fill="#ff4b07" stroke="none" /><path d="M 91.5904679813234 80.7573450057729 l -9.992037524001658 -22.8637372848713 a45.95177942577786,45.95177942577786 0 0,0 0.7255237281472839,-0.30968293723842893 l 9.598078720683944 23.031894871769133" fill="#d2ff1c" stroke="none" /><path d="M 91.92203290615298 80.6158196554323 l -1.9865433598068183 -4.766980887818905 a26.16434519617185,26.16434519617185 0 0,0 0.4160698263873766,-0.1692119762332638 l 1.9044190722290009 4.80038012063146" fill="#ff2503" stroke="none" /><path d="M 93.27111125876988 80.10723608172694 l -4.446552939946748 -13.145443666273646 a34.87712226043004,34.87712226043004 0 0,0 0.5687914928798292,-0.18697306134419112 l 4.220238709419157 13.219837649019865" fill="#ff9f0e" stroke="none" /><path d="M 93.61358852112211 79.99465700312896 l -4.771035940872121 -14.945202131622784 a36.68827111902888,36.68827111902888 0 0,0 0.6016166582658737,-0.18638237859300139 l 4.513778649734631 15.024901098022427" fill="#ffb811" stroke="none" /><path d="M 93.95794788825049 79.88797359093562 l -4.275495954902033 -14.231735504171139 a35.86008617475245,35.86008617475245 0 0,0 0.5910766564058428,-0.172053800236253 l 4.030559286114566 14.303032998709913" fill="#ffad10" stroke="none" /><path d="M 95.35216902796891 79.52079915486377 l -3.235535048835681 -14.25636442145132 a35.61891287235365,35.61891287235365 0 0,0 0.5974437996577155,-0.13021009543204146 l 2.990328832558847 14.309805975017076" fill="#ffa90f" stroke="none" /><path d="M 96.05791012581881 79.37332000966035 l -2.469469342693036 -12.921307099388185 a34.15516841363881,34.15516841363881 0 0,0 0.576840566953922,-0.10511956686930315 l 2.2472940421880754 12.96179484018885" fill="#ff960d" stroke="none" /><path d="M 96.41257539226777 79.30868818359171 l -2.418423871634274 -13.948826220452036 a35.15692505282347,35.15692505282347 0 0,0 0.5955290078460163,-0.0979940716156973 l 2.1786173607351844 13.988286290563401" fill="#ffa30f" stroke="none" /><path d="M 97.12497278360702 79.19773525538626 l -0.8896301642207362 -6.4369206995306385 a27.49810664125616,27.49810664125616 0 0,0 0.468151570488625,-0.06061159352071779 l 0.7790007718413172 6.451243889251751" fill="#ff3805" stroke="none" /><path d="M 97.48249496171623 79.15144685158666 l -2.7529742090352993 -22.798575669350416 a43.96418776152795,43.96418776152795 0 0,0 0.7500376233446184,-0.0840432801245371 l 2.3612006840898814 22.84247470998192" fill="#eaff1a" stroke="none" /><path d="M 98.5590905019552 79.04949213459386 l -0.3940547502027587 -5.729469584818304 a26.743004515888472,26.743004515888472 0 0,0 0.45826767695185516,-0.027568245466393342 l 0.29564272111841977 5.7353898081093915" fill="#ff2d04" stroke="none" /><path d="M 98.9189461498227 79.02784411241856 l -0.2004453080781978 -3.888585427322451 a24.893748187430088,24.893748187430088 0 0,0 0.4269565152001117,-0.018335349843510877 l 0.13366303227726603 3.8914533455917906" fill="#ff1202" stroke="none" /><path d="M 99.63950707515114 79.00309439819443 l -0.30389118948024485 -17.700138279863207 a38.702746820234495,38.702746820234495 0 0,0 0.6643841143290926,-0.005702938565724053 l 4.3359224459032315e-15 17.702746820234495" fill="#ffd213" stroke="none" /></svg>