<?xml version="1.0" encoding="utf-8" ?>
<svg baseProfile="full" height="200mm" version="1.1" viewBox="0,0,200,200" width="200mm" xmlns="http://www.w3.org/2000/svg" xmlns:ev="http://www.w3.org/2001/xml-events" xmlns:xlink="http://www.w3.org/1999/xlink"><defs /><rect fill="#1a1a1a" height="200" width="200" x="0" y="0" /><text alignment-baseline="middle" fill="#e1ed5e" style="dominant-baseline: central; font-size:9.0px; font-family:Arial;" text-anchor="middle" x="100.0" y="100.0">2026</text><line stroke="#e1ed5e" stroke-width="0.3" x1="100.0" x2="100.0" y1="15.0" y2="10.0" /><path d="M 100.0 14.0 a86.0,86.0 0 0,1 42.46469731375804,11.215312516191453" fill="none" id="id37" stroke="none" /><text fill="#e1ed5e" style="font-size:6.75px; font-family:Arial;" text-anchor="middle"><textPath startOffset="22.20632615414155" xlink:href="#id37">January</textPath></text><path d="M 100.0 79.0 l 0.0 -7.145424843719368 a28.14542484371937,28.14542484371937 0 0,0 0.48447722199221926,0.004170048404604767 l -0.12299674271969088 7.1443661719233225" fill="#ff3705" stroke="none" /><path d="M 101.80526077348638 79.07773832637324 l 1.2661400962387228 -14.67406526416581 a35.72858792010629,35.72858792010629 0 0,0 0.6122771922377757,0.05814309701958161 l -1.5185424155667426 14.65009662263105" fill="#ffa20f" stroke="none" /><path d="M 102.52436894288641 79.15227682838746 l 1.75729860574673 -14.512805256025159 a35.618810306898126,35.618810306898126 0 0,0 0.6080389944331382,0.07894091231340807 l -2.0068523286877142 14.480406020547614" fill="#ffa10e" stroke="none" /><path d="M 102.88285421437855 79.19881850522331 l 1.1440116950570234 -8.254595318188155 a29.333493062664722,29.333493062664722 0 0,0 0.49955081102808274,0.07362080396325632 l -1.2859314865137619 8.23368003006393" fill="#ff4806" stroke="none" /><path d="M 103.59715602781102 79.31037775812273 l 4.949111914005729 -28.465614263572306 a49.8926444642896,49.8926444642896 0 0,0 0.8448603710752252,0.15439283260240952 l -5.438367406183855 28.37620594961916" fill="#a9ff21" stroke="none" /><path d="M 104.307194497241 79.44645832069477 l 1.4371324873219058 -6.857865948652934 a28.006830607044062,28.006830607044062 0 0,0 0.47099123820367983,0.10294044209424941 l -1.5549664496791136 6.832112008462815" fill="#ff3505" stroke="none" /><path d="M 105.01212808612495 79.60689891045804 l 4.0192876412107745 -16.353480550918743 a37.84016031016532,37.84016031016532 0 0,0 0.6311938955897436,0.16090537810416605 l -4.300190425485543 16.28187217664571" fill="#ffbf11" stroke="none" /><path d="M 105.71112130821622 79.79150937346287 l 1.196211903989649 -4.232730447232826 a25.398514517218096,25.398514517218096 0 0,0 0.41969204727467746,0.12251961731317915 l -1.2688941689877538 4.211512501000944" fill="#ff0e01" stroke="none" /><path d="M 106.0581310904928 79.89281104454417 l 18.174393271478365 -60.321566866367476 a84.0,84.0 0 0,0 1.380858509157127,0.4290394604699177 l -19.21003715334621 59.99978727101504" fill="#4dd2ff" stroke="none" /><path d="M 107.4271985657038 80.35727306442388 l 1.9504100713892387 -5.158253425673148 a26.5146783995121,26.5146783995121 0 0,0 0.42551871405977437,0.16509465022532982 l -2.03891195044868 5.123916071557271" fill="#ff1f03" stroke="none" /><path d="M 108.09893153111575 80.62456947434976 l 6.121219410237423 -14.644062733418098 a36.87192176166932,36.87192176166932 0 0,0 0.5834827848994023,0.24981687776996933 l -6.37238595292714 14.536526327685339" fill="#ffb210" stroke="none" /><path d="M 108.43124777332544 80.76684994638697 l 6.638705473758236 -15.144047710529307 a37.535252989479645,37.535252989479645 0 0,0 0.5895141725620777,0.26449782530293237 l -6.898401764787095 15.027529554709844" fill="#ffbb11" stroke="none" /><path d="M 109.08828744355905 81.06846463323043 l 5.0611413980737305 -10.542709830525816 a32.69460913506567,32.69460913506567 0 0,0 0.5052542894377154,0.24792608553179962 l -5.2418669545218775 10.454028584859184" fill="#ff780b" stroke="none" /><path d="M 110.05341064243156 81.56283822128135 l 6.770959257577185 -12.41740496525363 a35.14347324170678,35.14347324170678 0 0,0 0.5286179344474614,0.29417530819751814 l -6.983701281096681 12.29901425949593" fill="#ff9a0e" stroke="none" /><path d="M 110.36928655335952 81.73862282372117 l 7.924166729642541 -13.955270375939156 a37.048114830868414,37.048114830868414 0 0,0 0.5518462559569224,0.31966497066140026 l -8.163209718064792 13.816801247887707" fill="#ffb410" stroke="none" /><line stroke="#e1ed5e" stroke-width="0.3" x1="143.23703022742887" x2="145.7803849466894" y1="26.81831364943548" y2="22.513508569990506" /><path d="M 143.74570117128098 25.957352633546492 a86.0,86.0 0 0,1 28.547481713284135,27.462654790039103" fill="none" id="id38" stroke="none" /><text fill="#e1ed5e" style="font-size:6.75px; font-family:Arial;" text-anchor="middle"><textPath startOffset="19.985693538727396" xlink:href="#id38">February</textPath></text><path d="M 110.68208982089419 81.91981866633111 l 3.24211000414428 -5.487497087318412 a27.37368822286598,27.37368822286598 0 0,0 0.4036158219681339,0.24317401664754476 l -3.336087892330051 5.430876461212253" fill="#ff2b04" stroke="none" /><path d="M 110.99172775467656 82.1063720568725 l 3.831961790208252 -6.238118346507839 a28.32106902485243,28.32106902485243 0 0,0 0.4131920539789489,0.258740826295306 l -3.938772996559464 6.1712331788895884" fill="#ff3905" stroke="none" /><path d="M 111.60114157652 82.49532879139004 l 9.240331628553049 -13.942504360407984 a37.72654048049487,37.72654048049487 0 0,0 0.5382235440113252,0.36341093949457703 l -9.478959866970916 13.781381508614738" fill="#ffbd11" stroke="none" /><path d="M 112.19680574252982 82.90503203632743 l 3.6076361356190563 -5.056440634119947 a27.21149179935092,27.21149179935092 0 0,0 0.3789584869390784,0.2753294571098029 l -3.6941399389119236 4.993591942193469" fill="#ff2904" stroke="none" /><path d="M 112.48926042617603 83.11751280151076 l 6.6074392704030585 -8.931674502004856 a32.1100433447322,32.1100433447322 0 0,0 0.4415189770845933,0.33254293989178224 l -6.7602044012460345 8.816614972607228" fill="#ff700a" stroke="none" /><path d="M 113.6212207817346 84.01681056812373 l 7.097180867508579 -8.327857543414106 a31.94180915249069,31.94180915249069 0 0,0 0.41540505533270256,0.3602351705151304 l -7.2394797214880455 8.204457379479305" fill="#ff6e0a" stroke="none" /><path d="M 113.89432698308785 84.25364557470407 l 11.072487257189746 -12.54838099992197 a37.735048245518506,37.735048245518506 0 0,0 0.48334825526569963,0.4339548359729097 l -11.286846500051436 12.355927155179764" fill="#ffbd11" stroke="none" /><path d="M 114.42810811169701 84.74124197986012 l 12.586780955937927 -13.311422632289393 a39.319962536211364,39.319962536211364 0 0,0 0.4877861476769056,0.46924988759272485 l -12.814050347227251 13.092789657934366" fill="#ffd213" stroke="none" /><path d="M 114.94478906791727 85.2469230424477 l 8.541293139136474 -8.431725227170094 a33.00198645204853,33.00198645204853 0 0,0 0.3956085408936407,0.4077093763634018 l -8.685165943733224 8.28345165525658" fill="#ff7d0b" stroke="none" /><path d="M 115.68641384162765 86.03803664274999 l 6.510044537754281 -5.794377491749231 a29.71524471259611,29.71524471259611 0 0,0 0.33678428654158094,0.3850026585676195 l -6.60882068787371 5.681459276978663" fill="#ff4e07" stroke="none" /><path d="M 115.9244219780498 86.31012108654704 l 7.419210779780128 -6.378133997489902 a30.783929777177583,30.783929777177583 0 0,0 0.3419792424844487,0.4047955572958877 l -7.527900635751695 6.249479490564909" fill="#ff5d08" stroke="none" /><path d="M 116.15771136456269 86.58626213691792 l 14.846962737737373 -12.32558632429479 a40.29643440569798,40.29643440569798 0 0,0 0.4384664774117175,0.5375080564468945 l -15.0569277072255 12.068194098239793" fill="#ffdf14" stroke="none" /><path d="M 116.60985879189232 87.15038557335679 l 10.485798681812428 -8.111957585242234 a34.25729345908388,34.25729345908388 0 0,0 0.3568044905859404,0.46951288545883 l -10.623879112622483 7.930259923902371" fill="#ff8e0d" stroke="none" /><path d="M 117.2510076193507 88.02491185347247 l 10.073527334815113 -6.992714886146802 a33.262708283417915,33.262708283417915 0 0,0 0.3224511243858024,0.47315723665725834 l -10.192402924869649 6.8182796262191365" fill="#ff800b" stroke="none" /><path d="M 117.65298651832404 88.62581576622439 l 9.704047900332348 -6.252518717849362 a32.543939360937465,32.543939360937465 0 0,0 0.2993614759037213,0.47351796306574645 l -9.810236972482025 6.08455310706941" fill="#ff760a" stroke="none" /><line stroke="#e1ed5e" stroke-width="0.3" x1="172.23445277983987" x2="176.4835382374775" y1="55.19839476539836" y2="52.563006222186495" /><path d="M 173.08426987136738 54.67131705675599 a86.0,86.0 0 0,1 12.851231095245387,41.99856678651699" fill="none" id="id39" stroke="none" /><text fill="#e1ed5e" style="font-size:6.75px; font-family:Arial;" text-anchor="middle"><textPath startOffset="22.20632615414155" xlink:href="#id39">March</textPath></text><path d="M 117.84615892207809 88.93136811851018 l 10.08054733196914 -6.252206318944297 a32.862019995208115,32.862019995208115 0 0,0 0.29401211397627736,0.4832786100968351 l -10.18667524423164 6.07775993564038" fill="#ff7b0b" stroke="none" /><path d="M 118.03404312379186 89.2402003453031 l 7.794025041107316 -4.650213342085683 a30.075864171984925,30.075864171984925 0 0,0 0.2614313350733499,0.446870895852722 l -7.872916050650994 4.5153630338790665" fill="#ff5307" stroke="none" /><path d="M 118.3937258080291 89.86733742301442 l 11.969162886019273 -6.593524885538536 a34.6651172921522,34.6651172921522 0 0,0 0.28341523231926075,0.5251253821735448 l -12.080886217556998 6.386518520032533" fill="#ff940d" stroke="none" /><path d="M 118.56541770881063 90.18545643968196 l 13.758652288299421 -7.273463723399038 a36.562897780488335,36.562897780488335 0 0,0 0.2893527955927657,0.5589375019401643 l -13.881814517052304 7.035553499198529" fill="#ffae10" stroke="none" /><path d="M 118.89224826269711 90.83032412892265 l 13.572000875613167 -6.587402791920735 a36.086188495131886,36.086188495131886 0 0,0 0.26642227817390884,0.5611532639862091 l -13.683381347628831 6.352807112293986" fill="#ffa70f" stroke="none" /><path d="M 119.34039704204932 91.81776055985345 l 11.417957735325343 -4.830534962895779 a33.39773474766396,33.39773474766396 0 0,0 0.2194363382049954,0.5313824984976127 l -11.499415760416538 4.633277893944864" fill="#ff820c" stroke="none" /><path d="M 119.61058180528143 92.48833698450437 l 6.446875720134882 -2.469419744568308 a27.90363965062839,27.90363965062839 0 0,0 0.16794723885445434,0.4500151020161302 l -6.488427547490962 2.358081505522845" fill="#ff3304" stroke="none" /><path d="M 119.97218684219823 93.5106431181261 l 17.875914185205676 -5.80823660694253 a39.79584848946875,39.79584848946875 0 0,0 0.20607525200100202,0.6533148639839901 l -17.973244920974885 5.499671576532121" fill="#ffd914" stroke="none" /><path d="M 120.18372546131832 94.20196356495316 l 18.19608285811402 -5.227060365474546 a39.931972729846876,39.931972729846876 0 0,0 0.18409253512535229,0.662278796856587 l -18.283362163805734 4.913070265199008" fill="#ffda14" stroke="none" /><path d="M 120.6074358757038 95.95851677861258 l 9.878426711517701 -1.9373344674760853 a31.066607131188604,31.066607131188604 0 0,0 0.09839870875751491,0.5256498367890091 l -9.910311144185075 1.7670065532245134" fill="#ff6109" stroke="none" /><path d="M 120.73433829027371 96.67025291283417 l 11.084387298494082 -1.7800522883091905 a32.22640761473285,32.22640761473285 0 0,0 0.08324250898676791,0.5484641279009563 l -11.11338570092015 1.5889890480161522" fill="#ff720a" stroke="none" /><path d="M 120.83666639777658 97.38593545837742 l 10.493172916798885 -1.3164212896284253 a31.575426368408444,31.575426368408444 0 0,0 0.06301499870767469,0.5398740263161718 l -10.514278268510148 1.1356035249874008" fill="#ff6809" stroke="none" /><path d="M 120.94382443527127 98.46500227214037 l 8.861357619201158 -0.6494594076293999 a29.885125569035743,29.885125569035743 0 0,0 0.0331858793347021,0.5133708648899761 l -8.871224089540275 0.4968294784863886" fill="#ff5007" stroke="none" /><line stroke="#e1ed5e" stroke-width="0.3" x1="184.98032266829074" x2="189.97916517819016" y1="98.17113171792111" y2="98.06355123074" /><path d="M 185.9800911702706 98.14961562048488 a86.0,86.0 0 0,1 -9.607161424134198,41.387399972396054" fill="none" id="id40" stroke="none" /><text fill="#e1ed5e" style="font-size:6.75px; font-family:Arial;" text-anchor="middle"><textPath startOffset="21.466115282336823" xlink:href="#id40">April</textPath></text><path d="M 120.99513854157772 99.54816195383933 l 10.906624865862828 -0.2347223410714625 a31.90915031256126,31.90915031256126 0 0,0 0.007091417970879428,0.5492381368614071 l -10.909049290951423 0.04694794614959273" fill="#ff6d0a" stroke="none" /><path d="M 120.99824983174949 100.27111621757518 l 14.522916655213526 0.18751078129224746 a35.52412711550609,35.52412711550609 0 0,0 -0.01315735399401111,0.6113705392719253 l -14.517537238534507 -0.43747113635428764" fill="#ffa00e" stroke="none" /><path d="M 120.9764740272857 100.99374915477107 l 3.4771483508800767 0.16472802961098015 a24.48104811483087,24.48104811483087 0 0,0 -0.023564348404700168,0.42075727039980126 l -3.473797651587847 -0.22455701634620473" fill="#ff0000" stroke="none" /><path d="M 120.92983693683757 101.71520430193887 l 15.899035548656588 1.3029291270653938 a36.9523338633443,36.9523338633443 0 0,0 -0.05740880051409086,0.6335013298748025 l -15.874252151865422 -1.5764118454887666" fill="#ffb310" stroke="none" /><path d="M 120.70491114924044 103.5080841355445 l 11.913700851515856 2.018567703651266 a33.08349632985559,33.08349632985559 0 0,0 -0.09996502580893954,0.5606569525705711 l -11.877189383367726 -2.2233434069550557" fill="#ff7e0b" stroke="none" /><path d="M 120.32669344350535 105.2749913415812 l 8.397561801782896 2.1792558596858926 a29.675724771841168,29.675724771841168 0 0,0 -0.13256842032373306,0.49333640868746365 l -8.358805305117384 -2.3234832015489046" fill="#ff4d07" stroke="none" /><path d="M 120.23288151984713 105.62410040840565 l 14.859011265376175 4.130334635930683 a36.42238243558189,36.42238243558189 0 0,0 -0.1731058071057846,0.6026040238836259 l -14.78571282138429 -4.385496135318891" fill="#ffac0f" stroke="none" /><path d="M 120.13307415673323 105.97154293290107 l 4.416901167943376 1.3100689318195247 a25.607091982313605,25.607091982313605 0 0,0 -0.1289783221762687,0.42150861950782326 l -4.393696073260974 -1.385904523879405" fill="#ff1101" stroke="none" /><path d="M 119.67450827220406 107.3425965602758 l 7.802351769990185 2.9118654695593946 a29.328004182004314,29.328004182004314 0 0,0 -0.18058470042089117,0.47144966874588845 l -7.751072789975788 -3.045738705138427" fill="#ff4806" stroke="none" /><path d="M 119.41010516605496 108.01547362559984 l 10.365556760695743 4.2804944187173355 a32.21460652131297,32.21460652131297 0 0,0 -0.21606646284775136,0.5107172931707631 l -10.290339316655682 -4.458286237554262" fill="#ff720a" stroke="none" /><path d="M 119.26925614724726 108.34839909993367 l 10.77762137078115 4.669401032592991 a32.74565572520747,32.74565572520747 0 0,0 -0.22853179918331382,0.5152788765253598 l -10.695648486866563 -4.854228245611039" fill="#ff790b" stroke="none" /><line stroke="#e1ed5e" stroke-width="0.3" x1="174.80103733775053" x2="179.2010983576182" y1="140.37084112569926" y2="142.7455964860345" /><path d="M 175.68104954172406 140.8457921977663 a86.0,86.0 0 0,1 -30.038265399797805,32.042727171017184" fill="none" id="id41" stroke="none" /><text fill="#e1ed5e" style="font-size:6.75px; font-family:Arial;" text-anchor="middle"><textPath startOffset="22.206326154141568" xlink:href="#id41">May</textPath></text><line stroke="#e1ed5e" stroke-width="0.3" x1="143.8653032363475" x2="146.44561519142675" y1="172.8068346515853" y2="177.08958963109032" /><path d="M 144.38136562736335 173.6633856474863 a86.0,86.0 0 0,1 -40.68145358897372,12.25698825130547" fill="none" id="id42" stroke="none" /><text fill="#e1ed5e" style="font-size:6.75px; font-family:Arial;" text-anchor="middle"><textPath startOffset="21.466115282336833" xlink:href="#id42">June</textPath></text><line stroke="#e1ed5e" stroke-width="0.3" x1="102.19456741930631" x2="102.32365962044197" y1="184.97166512339345" y2="189.96999836594603" /><path d="M 102.22038585953345 185.97133177190398 a86.0,86.0 0 0,1 -42.740103519485714,-10.115201625700543" fill="none" id="id43" stroke="none" /><text fill="#e1ed5e" style="font-size:6.75px; font-family:Arial;" text-anchor="middle"><textPath startOffset="22.20632615414155" xlink:href="#id43">July</textPath></text><line stroke="#e1ed5e" stroke-width="0.3" x1="58.666819895761336" x2="56.23545636021788" y1="174.27360380694188" y2="178.64263932499728" /><path d="M 58.180547188652646 175.14741091055294 a86.0,86.0 0 0,1 -31.652253787137756,-30.449443065178592" fill="none" id="id44" stroke="none" /><text fill="#e1ed5e" style="font-size:6.75px; font-family:Arial;" text-anchor="middle"><textPath startOffset="22.20632615414155" xlink:href="#id44">August</textPath></text><line stroke="#e1ed5e" stroke-width="0.3" x1="26.63291911575756" x2="22.317208475507996" y1="142.92168965132927" y2="145.44649492493687" /><path d="M 25.769776987707644 143.4266507060508 a86.0,86.0 0 0,1 -11.730757126820373,-40.83630448921669" fill="none" id="id45" stroke="none" /><text fill="#e1ed5e" style="font-size:6.75px; font-family:Arial;" text-anchor="middle"><textPath startOffset="21.46611528233685" xlink:href="#id45">September</textPath></text><line stroke="#e1ed5e" stroke-width="0.3" x1="15.007084014347285" x2="10.007500721073583" y1="101.09737516637583" y2="101.16192664675087" /><path d="M 14.007167355692545 101.11028546245083 a86.0,86.0 0 0,1 10.666146001902534,-42.60595125391555" fill="none" id="id46" stroke="none" /><text fill="#e1ed5e" style="font-size:6.75px; font-family:Arial;" text-anchor="middle"><textPath startOffset="22.20632615414155" xlink:href="#id46">October</textPath></text><line stroke="#e1ed5e" stroke-width="0.3" x1="26.266209847984243" x2="21.928928074336255" y1="57.711370442889674" y2="55.22380399835377" /><path d="M 25.398753493254645 57.213857153982495 a86.0,86.0 0 0,1 29.58750427330803,-30.492523968695096" fill="none" id="id47" stroke="none" /><text fill="#e1ed5e" style="font-size:6.75px; font-family:Arial;" text-anchor="middle"><textPath startOffset="21.46611528233685" xlink:href="#id47">November</textPath></text><line stroke="#e1ed5e" stroke-width="0.3" x1="56.762969772571076" x2="54.21961505331055" y1="26.818313649435495" y2="22.513508569990535" /><path d="M 56.25429882871897 25.957352633546506 a86.0,86.0 0 0,1 42.265352541879196,-11.944610805530505" fill="none" id="id48" stroke="none" /><text fill="#e1ed5e" style="font-size:6.75px; font-family:Arial;" text-anchor="middle"><textPath startOffset="22.20632615414155" xlink:href="#id48">December</textPath></text></svg>