<?xml version="1.0" encoding="utf-8" ?>
<svg baseProfile="full" height="200mm" version="1.1" viewBox="0,0,200,200" width="200mm" xmlns="http://www.w3.org/2000/svg" xmlns:ev="http://www.w3.org/2001/xml-events" xmlns:xlink="http://www.w3.org/1999/xlink"><defs /><rect fill="#1a1a1a" height="200" width="200" x="0" y="0" /><text alignment-baseline="middle" fill="#e1ed5e" style="dominant-baseline: central; font-size:9.0px; font-family:Arial;" text-anchor="middle" x="100.0" y="100.0">2026</text><line stroke="#e1ed5e" stroke-width="0.3" x1="100.0" x2="100.0" y1="15.0" y2="10.0" /><path d="M 100.0 14.0 a86.0,86.0 0 0,1 42.46469731375804,11.215312516191453" fill="none" id="id37" stroke="none" /><text fill="#e1ed5e" style="font-size:6.75px; font-family:Arial;" text-anchor="middle"><textPath startOffset="22.20632615414155" xlink:href="#id37">January</textPath></text><path d="M 100.0 79.0 l 0.0 -7.145424843719368 a28.14542484371937,28.14542484371937 0 0,0 0.48447722199221926,0.004170048404604767 l -0.12299674271969088 7.1443661719233225" fill="#ff2a04" stroke="none" /><path d="M 101.80526077348638 79.07773832637324 l 1.2661400962387228 -14.67406526416581 a35.72858792010629,35.72858792010629 0 0,0 0.6122771922377757,0.05814309701958161 l -1.5185424155667426 14.65009662263105" fill="#ff980e" stroke="none" /><path d="M 102.52436894288641 79.15227682838746 l 1.75729860574673 -14.512805256025159 a35.618810306898126,35.618810306898126 0 0,0 0.6080389944331382,0.07894091231340807 l -2.0068523286877142 14.480406020547614" fill="#ff960d" stroke="none" /><path d="M 102.88285421437855 79.19881850522331 l 1.1440116950570234 -8.254595318188155 a29.333493062664722,29.333493062664722 0 0,0 0.49955081102808274,0.07362080396325632 l -1.2859314865137619 8.23368003006393" fill="#ff3c05" stroke="none" /><path d="M 103.59715602781102 79.31037775812273 l 4.949111914005729 -28.465614263572306 a49.8926444642896,49.8926444642896 0 0,0 0.8448603710752252,0.15439283260240952 l -5.438367406183855 28.37620594961916" fill="#afff20" stroke="none" /><path d="M 104.307194497241 79.44645832069477 l 1.4371324873219058 -6.857865948652934 a28.006830607044062,28.006830607044062 0 0,0 0.47099123820367983,0.10294044209424941 l -1.5549664496791136 6.832112008462815" fill="#ff2803" stroke="none" /><path d="M 105.01212808612495 79.60689891045804 l 4.0192876412107745 -16.353480550918743 a37.84016031016532,37.84016031016532 0 0,0 0.6311938955897436,0.16090537810416605 l -4.300190425485543 16.28187217664571" fill="#ffb510" stroke="none" /><path d="M 105.71112130821622 79.79150937346287 l 1.196211903989649 -4.232730447232826 a25.398514517218096,25.398514517218096 0 0,0 0.41969204727467746,0.12251961731317915 l -1.2688941689877538 4.211512501000944" fill="#ff0000" stroke="none" /><path d="M 106.0581310904928 79.89281104454417 l 18.174393271478365 -60.321566866367476 a84.0,84.0 0 0,0 1.380858509157127,0.4290394604699177 l -19.21003715334621 59.99978727101504" fill="#4dd2ff" stroke="none" /><path d="M 107.4271985657038 80.35727306442388 l 1.9504100713892387 -5.158253425673148 a26.5146783995121,26.5146783995121 0 0,0 0.42551871405977437,0.16509465022532982 l -2.03891195044868 5.123916071557271" fill="#ff1101" stroke="none" /><path d="M 108.09893153111575 80.62456947434976 l 6.121219410237423 -14.644062733418098 a36.87192176166932,36.87192176166932 0 0,0 0.5834827848994023,0.24981687776996933 l -6.37238595292714 14.536526327685339" fill="#ffa80f" stroke="none" /><path d="M 108.43124777332544 80.76684994638697 l 6.638705473758236 -15.144047710529307 a37.535252989479645,37.535252989479645 0 0,0 0.5895141725620777,0.26449782530293237 l -6.898401764787095 15.027529554709844" fill="#ffb110" stroke="none" /><path d="M 110.05341064243156 81.56283822128135 l 6.770959257577185 -12.41740496525363 a35.14347324170678,35.14347324170678 0 0,0 0.5286179344474614,0.29417530819751814 l -6.983701281096681 12.29901425949593" fill="#ff900d" stroke="none" /><line stroke="#e1ed5e" stroke-width="0.3" x1="143.23703022742887" x2="145.7803849466894" y1="26.81831364943548" y2="22.513508569990506" /><path d="M 143.74570117128098 25.957352633546492 a86.0,86.0 0 0,1 28.547481713284135,27.462654790039103" fill="none" id="id38" stroke="none" /><text fill="#e1ed5e" style="font-size:6.75px; font-family:Arial;" text-anchor="middle"><textPath startOffset="19.985693538727396" xlink:href="#id38">February</textPath></text><line stroke="#e1ed5e" stroke-width="0.3" x1="172.23445277983987" x2="176.4835382374775" y1="55.19839476539836" y2="52.563006222186495" /><path d="M 173.08426987136738 54.67131705675599 a86.0,86.0 0 0,1 12.851231095245387,41.99856678651699" fill="none" id="id39" stroke="none" /><text fill="#e1ed5e" style="font-size:6.75px; font-family:Arial;" text-anchor="middle"><textPath startOffset="22.20632615414155" xlink:href="#id39">March</textPath></text><line stroke="#e1ed5e" stroke-width="0.3" x1="184.98032266829074" x2="189.97916517819016" y1="98.17113171792111" y2="98.06355123074" /><path d="M 185.9800911702706 98.14961562048488 a86.0,86.0 0 0,1 -9.607161424134198,41.387399972396054" fill="none" id="id40" stroke="none" /><text fill="#e1ed5e" style="font-size:6.75px; font-family:Arial;" text-anchor="middle"><textPath startOffset="21.466115282336823" xlink:href="#id40">April</textPath></text><line stroke="#e1ed5e" stroke-width="0.3" x1="174.80103733775053" x2="179.2010983576182" y1="140.37084112569926" y2="142.7455964860345" /><path d="M 175.68104954172406 140.8457921977663 a86.0,86.0 0 0,1 -30.038265399797805,32.042727171017184" fill="none" id="id41" stroke="none" /><text fill="#e1ed5e" style="font-size:6.75px; font-family:Arial;" text-anchor="middle"><textPath startOffset="22.206326154141568" xlink:href="#id41">May</textPath></text><line stroke="#e1ed5e" stroke-width="0.3" x1="143.8653032363475" x2="146.44561519142675" y1="172.8068346515853" y2="177.08958963109032" /><path d="M 144.38136562736335 173.6633856474863 a86.0,86.0 0 0,1 -40.68145358897372,12.25698825130547" fill="none" id="id42" stroke="none" /><text fill="#e1ed5e" style="font-size:6.75px; font-family:Arial;" text-anchor="middle"><textPath startOffset="21.466115282336833" xlink:href="#id42">June</textPath></text><line stroke="#e1ed5e" stroke-width="0.3" x1="102.19456741930631" x2="102.32365962044197" y1="184.97166512339345" y2="189.96999836594603" /><path d="M 102.22038585953345 185.97133177190398 a86.0,86.0 0 0,1 -42.740103519485714,-10.115201625700543" fill="none" id="id43" stroke="none" /><text fill="#e1ed5e" style="font-size:6.75px; font-family:Arial;" text-anchor="middle"><textPath startOffset="22.20632615414155" xlink:href="#id43">July</textPath></text><line stroke="#e1ed5e" stroke-width="0.3" x1="58.666819895761336" x2="56.23545636021788" y1="174.27360380694188" y2="178.64263932499728" /><path d="M 58.180547188652646 175.14741091055294 a86.0,86.0 0 0,1 -31.652253787137756,-30.449443065178592" fill="none" id="id44" stroke="none" /><text fill="#e1ed5e" style="font-size:6.75px; font-family:Arial;" text-anchor="middle"><textPath startOffset="22.20632615414155" xlink:href="#id44">August</textPath></text><line stroke="#e1ed5e" stroke-width="0.3" x1="26.63291911575756" x2="22.317208475507996" y1="142.92168965132927" y2="145.44649492493687" /><path d="M 25.769776987707644 143.4266507060508 a86.0,86.0 0 0,1 -11.730757126820373,-40.83630448921669" fill="none" id="id45" stroke="none" /><text fill="#e1ed5e" style="font-size:6.75px; font-family:Arial;" text-anchor="middle"><textPath startOffset="21.46611528233685" xlink:href="#id45">September</textPath></text><line stroke="#e1ed5e" stroke-width="0.3" x1="15.007084014347285" x2="10.007500721073583" y1="101.09737516637583" y2="101.16192664675087" /><path d="M 14.007167355692545 101.11028546245083 a86.0,86.0 0 0,1 10.666146001902534,-42.60595125391555" fill="none" id="id46" stroke="none" /><text fill="#e1ed5e" style="font-size:6.75px; font-family:Arial;" text-anchor="middle"><textPath startOffset="22.20632615414155" xlink:href="#id46">October</textPath></text><line stroke="#e1ed5e" stroke-width="0.3" x1="26.266209847984243" x2="21.928928074336255" y1="57.711370442889674" y2="55.22380399835377" /><path d="M 25.398753493254645 57.213857153982495 a86.0,86.0 0 0,1 29.58750427330803,-30.492523968695096" fill="none" id="id47" stroke="none" /><text fill="#e1ed5e" style="font-size:6.75px; font-family:Arial;" text-anchor="middle"><textPath startOffset="21.46611528233685" xlink:href="#id47">November</textPath></text><line stroke="#e1ed5e" stroke-width="0.3" x1="56.762969772571076" x2="54.21961505331055" y1="26.818313649435495" y2="22.513508569990535" /><path d="M 56.25429882871897 25.957352633546506 a86.0,86.0 0 0,1 42.265352541879196,-11.944610805530505" fill="none" id="id48" stroke="none" /><text fill="#e1ed5e" style="font-size:6.75px; font-family:Arial;" text-anchor="middle"><textPath startOffset="22.20632615414155" xlink:href="#id48">December</textPath></text></svg>