<?xml version="1.0" encoding="utf-8" ?>
<svg baseProfile="full" height="200mm" version="1.1" viewBox="0,0,200,200" width="200mm" xmlns="http://www.w3.org/2000/svg" xmlns:ev="http://www.w3.org/2001/xml-events" xmlns:xlink="http://www.w3.org/1999/xlink"><defs /><rect fill="#1a1a1a" height="200" width="200" x="0" y="0" /><text alignment-baseline="middle" fill="#e1ed5e" style="dominant-baseline: central; font-size:9.0px; font-family:Arial;" text-anchor="middle" x="100.0" y="100.0">2025</text><line stroke="#e1ed5e" stroke-width="0.3" x1="100.0" x2="100.0" y1="15.0" y2="10.0" /><path d="M 100.0 14.0 a86.0,86.0 0 0,1 42.46469731375804,11.215312516191453" fill="none" id="id25" stroke="none" /><text fill="#e1ed5e" style="font-size:6.75px; font-family:Arial;" text-anchor="middle"><textPath startOffset="22.20632615414155" xlink:href="#id25">January</textPath></text><path d="M 100.0 79.0 l 0.0 -8.093227492322335 a29.093227492322335,29.093227492322335 0 0,0 0.5007920865480655,0.004310475594623501 l -0.13931160727553715 8.09202839333627" fill="#ff4d07" stroke="none" /><path d="M 101.08401301168833 79.027996857942 l 0.7912393604199444 -15.307818424616876 a36.328253802913025,36.328253802913025 0 0,0 0.6242196510227482,0.037654634019616745 l -1.0546210602823045 15.291930521216955" fill="#ffb110" stroke="none" /><path d="M 102.52436894288641 79.15227682838746 l 1.1405019182795186 -9.418935507025212 a30.48773369731147,30.48773369731147 0 0,0 0.5204477853171996,0.06756905948562525 l -1.3024644321045642 9.397908124375451" fill="#ff6109" stroke="none" /><path d="M 102.88285421437855 79.19881850522331 l 0.8136228384081732 -5.870680607299472 a26.926792801853416,26.926792801853416 0 0,0 0.45856458873872236,0.06758050021487583 l -0.9145564075755513 5.8558056229236275" fill="#ff2e04" stroke="none" /><path d="M 103.2404852339499 79.25152402106235 l 1.6430414189073865 -10.520216248924452 a31.64774788527505,31.64774788527505 0 0,0 0.5375155886741803,0.08869467774252511 l -1.8238862137204421 10.490375308242303" fill="#ff720a" stroke="none" /><path d="M 103.59715602781102 79.31037775812273 l 1.517038422856495 -8.725490819038507 a29.856387277527343,29.856387277527343 0 0,0 0.505575094387143,0.09239061694457373 l -1.6670086383465388 8.698084720743195" fill="#ff5808" stroke="none" /><path d="M 103.95276090670814 79.375362276772 l 1.165574995550381 -6.081714171399233 a27.19239956178948,27.19239956178948 0 0,0 0.45894761008998153,0.09206057302909933 l -1.2700890151074877 6.060749642292926" fill="#ff3204" stroke="none" /><path d="M 104.66035177308747 79.52364482259891 l 3.3618084159008417 -14.770898531712549 a36.14863687792963,36.14863687792963 0 0,0 0.60553496201184,0.1433105614582376 l -3.6155670648752056 14.710842058113442" fill="#ffaf10" stroke="none" /><path d="M 105.01212808612495 79.60689891045804 l 5.807321051639721 -23.6285432515903 a45.331728956017315,45.331728956017315 0 0,0 0.756157224468216,0.19276131305987249 l -6.213187164792962 23.525078942361564" fill="#daff1c" stroke="none" /><path d="M 105.71112130821622 79.79150937346287 l 3.1460605252525813 -11.13216323099651 a32.56817855282772,32.56817855282772 0 0,0 0.5381655499410141,0.1571052814988328 l -3.3372162929170224 11.076359620578973" fill="#ff7e0b" stroke="none" /><path d="M 106.74666289553966 80.11325718540242 l 2.46552294793852 -7.267477496401559 a28.674309908227222,28.674309908227222 0 0,0 0.46605038060689197,0.16259582665463884 l -2.5902553326086855 7.223960816574713" fill="#ff4706" stroke="none" /><path d="M 107.4271985657038 80.35727306442388 l 3.0732683492361055 -8.127878964021363 a29.689499111007343,29.689499111007343 0 0,0 0.4764695725303283,0.18486279174282544 l -3.2127210867661007 8.07377346838799" fill="#ff5608" stroke="none" /><path d="M 108.09893153111575 80.62456947434976 l 5.660095847218179 -13.540896528753471 a35.676258508288285,35.676258508288285 0 0,0 0.5645619125512217,0.24171594767051224 l -5.892341517559717 13.441461053120168" fill="#ffa90f" stroke="none" /><path d="M 108.43124777332544 80.76684994638697 l 5.6252356632800495 -12.832145906219546 a35.01096873260178,35.01096873260178 0 0,0 0.5498687398958341,0.24671007530221287 l -5.845286521642664 12.7334155004008" fill="#ffa00e" stroke="none" /><path d="M 109.08828744355905 81.06846463323043 l 5.238035390291774 -10.911192329637167 a33.10335213088845,33.10335213088845 0 0,0 0.5115709011783215,0.25102561948017144 l -5.4250775584805275 10.819411550022163" fill="#ff860c" stroke="none" /><path d="M 109.73455568895987 81.39251694778311 l 11.678765745855403 -22.323816579864403 a46.19417305723675,46.19417305723675 0 0,0 0.7013924238489699,0.3746595420622344 l -12.061303216232684 22.119478311300416" fill="#d0ff1d" stroke="none" /><line stroke="#e1ed5e" stroke-width="0.3" x1="143.23703022742887" x2="145.7803849466894" y1="26.81831364943548" y2="22.513508569990506" /><path d="M 143.74570117128098 25.957352633546492 a86.0,86.0 0 0,1 28.547481713284135,27.462654790039103" fill="none" id="id26" stroke="none" /><text fill="#e1ed5e" style="font-size:6.75px; font-family:Arial;" text-anchor="middle"><textPath startOffset="19.985693538727396" xlink:href="#id26">February</textPath></text><path d="M 110.68208982089419 81.91981866633111 l 2.722416374092676 -4.607879406992721 a26.352018641906575,26.352018641906575 0 0,0 0.38855164777496426,0.23409802025035553 l -2.8013300880852774 4.56033477728375" fill="#ff2603" stroke="none" /><path d="M 111.90073688211348 82.69761687909136 l 3.8348089352400354 -5.575397057364685 a27.766890860437133,27.766890860437133 0 0,0 0.39147198735022665,0.27425114446543847 l -3.930212062173913 5.508561070135311" fill="#ff3a05" stroke="none" /><path d="M 112.48926042617603 83.11751280151076 l 6.913044862070694 -9.344780027316999 a32.62390222876744,32.62390222876744 0 0,0 0.4485846308555744,0.3378646438257205 l -7.072875646684651 9.224398793985431" fill="#ff7f0b" stroke="none" /><path d="M 113.06298171725822 83.55741782278167 l 19.54819694966421 -24.60562540148495 a52.425607478313964,52.425607478313964 0 0,0 0.7017457185879072,0.5674295679545148 l -19.96884606681661 24.265489736266304" fill="#88ff25" stroke="none" /><path d="M 113.89432698308785 84.25364557470407 l 4.045077989966873 -4.584261748374845 a27.11376412061565,27.11376412061565 0 0,0 0.3473002206361754,0.3118095671963875 l -4.123389198199039 4.513953172409161" fill="#ff3104" stroke="none" /><path d="M 114.42810811169701 84.74124197986012 l 5.870058981256733 -6.20800792907354 a29.54382554192633,29.54382554192633 0 0,0 0.3665076953077732,0.35258011250241145 l -5.976049920176924 6.1060447298088265" fill="#ff5407" stroke="none" /><path d="M 114.94478906791727 85.2469230424477 l 13.539244552707125 -13.365562800883737 a40.024968121980564,40.024968121980564 0 0,0 0.47979594383077934,0.49447189537176467 l -13.767304760241014 13.130526709961858" fill="#ffe215" stroke="none" /><path d="M 115.4437574822437 85.77008943001954 l 7.652677083611749 -7.051192732464056 a31.405901474470646,31.405901474470646 0 0,0 0.36289722452221546,0.40072017920817 l -7.772917948750001 6.918419765986337" fill="#ff6e0a" stroke="none" /><path d="M 115.9244219780498 86.31012108654704 l 7.99338431557449 -6.8717384869444444 a31.54110917548176,31.54110917548176 0 0,0 0.35039076235638084,0.4147521436943123 l -8.110485691417988 6.733127393621025" fill="#ff700a" stroke="none" /><path d="M 116.15771136456269 86.58626213691792 l 10.985914687151752 -9.120238409681804 a35.278272660332966,35.278272660332966 0 0,0 0.38386373808693725,0.4705715543352858 l -11.141276917315098 8.929782685738417" fill="#ffa30f" stroke="none" /><path d="M 116.38621287248628 86.86637796730983 l 9.696473266204821 -7.771766174370225 a33.42666259585855,33.42666259585855 0 0,0 0.35598746137743514,0.4520679248566335 l -9.82881480817622 7.603705855560553" fill="#ff8a0c" stroke="none" /><path d="M 116.60985879189232 87.15038557335679 l 32.75197708728337 -25.337378394045807 a62.40863131050089,62.40863131050089 0 0,0 0.6500128192994884,0.8553406765518933 l -33.183265846806975 24.76985294161288" fill="#31ff43" stroke="none" /><path d="M 116.82858285166822 87.43820079747576 l 2.7769836458907062 -2.072896527048605 a24.46533377633304,24.46533377633304 0 0,0 0.24900745358740758,0.3396458868530191 l -2.81225371199174 2.024788196524092" fill="#ff0a01" stroke="none" /><path d="M 117.2510076193507 88.02491185347247 l 8.13622283801788 -5.647901143801227 a30.904388391013093,30.904388391013093 0 0,0 0.2995893990419754,0.4396104757039302 l -8.232236702728589 5.50701264482689" fill="#ff6709" stroke="none" /><path d="M 117.65298651832404 88.62581576622439 l 12.046092248767275 -7.761546319219836 a35.33003627808409,35.33003627808409 0 0,0 0.32498990631214725,0.5140559852910012 l -12.177909751325378 7.553042686214629" fill="#ffa40f" stroke="none" /><line stroke="#e1ed5e" stroke-width="0.3" x1="172.23445277983987" x2="176.4835382374775" y1="55.19839476539836" y2="52.563006222186495" /><path d="M 173.08426987136738 54.67131705675599 a86.0,86.0 0 0,1 12.851231095245387,41.99856678651699" fill="none" id="id27" stroke="none" /><text fill="#e1ed5e" style="font-size:6.75px; font-family:Arial;" text-anchor="middle"><textPath startOffset="22.20632615414155" xlink:href="#id27">March</textPath></text><path d="M 117.84615892207809 88.93136811851018 l 15.059829966256785 -9.340481322740303 a38.72126039403028,38.72126039403028 0 0,0 0.3464339570706492,0.5694463367484197 l -15.218379721613658 9.079867212784801" fill="#ffd113" stroke="none" /><path d="M 118.03404312379186 89.2402003453031 l 8.569174484267597 -5.112697137516511 a30.97849805139994,30.97849805139994 0 0,0 0.26927738660585127,0.46028234125673895 l -8.655911545343775 4.964435383905877" fill="#ff6809" stroke="none" /><path d="M 118.56541770881063 90.18545643968196 l 8.96095407110397 -4.737177232006028 a31.136051795046782,31.136051795046782 0 0,0 0.24640562366546673,0.4759772355868939 l -9.041169127929553 4.582227274158789" fill="#ff6a09" stroke="none" /><path d="M 118.73160827565052 90.50648371742162 l 7.742292679010056 -3.923933307329258 a29.679881826835008,29.679881826835008 0 0,0 0.22703694439081684,0.45769262590975185 l -7.808689636354281 3.7900810929205564" fill="#ff5607" stroke="none" /><path d="M 118.89224826269711 90.83032412892265 l 17.217236919314807 -8.356680462292637 a40.13811264165514,40.13811264165514 0 0,0 0.29633740379739293,0.6241621478574663 l -17.358532516953957 8.05907589879463" fill="#ffe315" stroke="none" /><path d="M 119.196687751892 91.48605970444005 l 15.880681538468478 -7.04325538961771 a38.3724924121334,38.3724924121334 0 0,0 0.2625944593388005,0.6061042170213686 l -15.999566707649958 6.768852028009738" fill="#ffcc13" stroke="none" /><path d="M 119.47837535516314 92.15188598940014 l 9.056862088417475 -3.6491383368551236 a30.764372047915806,30.764372047915806 0 0,0 0.19367849612255192,0.4928906471084566 l -9.118334134421728 3.4926986848508825" fill="#ff6509" stroke="none" /><path d="M 119.61058180528143 92.48833698450437 l 7.924392353205442 -3.0353696565911497 a29.48583897559311,29.48583897559311 0 0,0 0.17747022622356703,0.4755319736339092 l -7.975467167930634 2.898514545927907" fill="#ff5307" stroke="none" /><path d="M 119.7369772167798 92.82701384747503 l 6.488042541111571 -2.3579415831123525 a27.903230006644996,27.903230006644996 0 0,0 0.1601737339407777,0.4528327150775584 l -6.527669355862158 2.2459112416081797" fill="#ff3c05" stroke="none" /><path d="M 119.85752413597 93.16781622104841 l 10.967714891912628 -3.773554208651644 a32.59872757313985,32.59872757313985 0 0,0 0.1779932534825254,0.5321771725038257 l -11.031045439166924 3.584203933225504" fill="#ff7f0b" stroke="none" /><path d="M 120.08093135843002 93.85539295169968 l 20.08733276163061 -6.1465658273292005 a42.006694384080745,42.006694384080745 0 0,0 0.20562097450068922,0.6932517063543792 l -20.190159633243002 5.799884734228291" fill="#fffb17" stroke="none" /><path d="M 120.28053869075195 94.5502522615342 l 11.259266579489275 -3.025568675172115 a32.65869416856737,32.65869416856737 0 0,0 0.14121567746818442,0.5441616107851732 l -11.309678588827762 2.8313106388380915" fill="#ff800b" stroke="none" /><path d="M 120.37134235888165 94.90015583598534 l 8.19997658608169 -2.052815273577348 a29.453027064887486,29.453027064887486 0 0,0 0.11888812514918136,0.49286803252079414 l -8.23409751149169 1.911362009397148" fill="#ff5307" stroke="none" /><path d="M 120.45610955862082 95.25157060432595 l 10.077153268899263 -2.3391862792692373 a31.345086295145563,31.345086295145563 0 0,0 0.11747782053968868,0.5266300343936952 l -10.115925476440989 2.1653780753255782" fill="#ff6d0a" stroke="none" /><path d="M 120.53481517161879 95.60439243477599 l 24.318272164949324 -5.205480556219748 a45.86916542447155,45.86916542447155 0 0,0 0.15862148042460017,0.7734946718225193 l -24.404272941288923 4.786110228233817" fill="#d4ff1c" stroke="none" /><path d="M 120.73433829027371 96.67025291283417 l 9.552314602946677 -1.5340152784028604 a30.674705016073705,30.674705016073705 0 0,0 0.07923437940999735,0.5220555618978949 l -9.577304875795972 1.3693606041128834" fill="#ff6409" stroke="none" /><path d="M 120.78858239683441 97.02765380044208 l 4.148121346959083 -0.5930973303314988 a25.190307286147878,25.190307286147878 0 0,0 0.05767860758478716,0.42977262182769654 l -4.1577159536017065 0.5216063664391378" fill="#ff1402" stroke="none" /><path d="M 120.83666639777658 97.38593545837742 l 13.044293531493622 -1.6364721947476584 a34.14654460228803,34.14654460228803 0 0,0 0.06814617287757609,0.5838347930486295 l -13.070530057374787 1.4116936633741761" fill="#ff940d" stroke="none" /><path d="M 120.91429891909075 98.10471618934814 l 11.759011136842277 -1.0656184805979165 a32.807196350640254,32.807196350640254 0 0,0 0.04612616222323056,0.5628560124079887 l -11.775611782885003 0.8630485509821592" fill="#ff820b" stroke="none" /><path d="M 120.94382443527127 98.46500227214037 l 17.203305010394644 -1.2608506237361417 a38.2494477469873,38.2494477469873 0 0,0 0.042474024565106405,0.6570543605739444 l -17.222459625964163 0.9645371989091621" fill="#ffcb12" stroke="none" /><path d="M 120.96714384426684 98.82574320788733 l 3.8954016860864473 -0.21816046676976933 a24.901505899678526,24.901505899678526 0 0,0 0.020284519785514273,0.42817415279694104 l -3.8985798141054584 0.15107520734982854" fill="#ff1001" stroke="none" /><path d="M 120.98425023603335 99.18683210126433 l 8.17930128765198 -0.316958917587859 a29.185440275857115,29.185440275857115 0 0,0 0.015132380531907377,0.5021700396291403 l -8.183545362639533 0.17611873053371965" fill="#ff4f07" stroke="none" /><line stroke="#e1ed5e" stroke-width="0.3" x1="184.98032266829074" x2="189.97916517819016" y1="98.17113171792111" y2="98.06355123074" /><path d="M 185.9800911702706 98.14961562048488 a86.0,86.0 0 0,1 -9.607161424134198,41.387399972396054" fill="none" id="id28" stroke="none" /><text fill="#e1ed5e" style="font-size:6.75px; font-family:Arial;" text-anchor="middle"><textPath startOffset="21.466115282336823" xlink:href="#id28">April</textPath></text><path d="M 120.99513854157772 99.54816195383933 l 17.306821226352085 -0.37246147591171147 a38.31082864891076,38.31082864891076 0 0,0 0.008514112600899317,0.6594274038209386 l -17.3106683460707 0.07449781403031022" fill="#ffcc13" stroke="none" /><path d="M 120.9904718944345 100.63252640178507 l 31.611806741612025 0.9525894640557614 a52.62615613943714,52.62615613943714 0 0,0 -0.03507875915198469,0.9052269047503926 l -31.590725849608837 -1.4965936158201603" fill="#86ff25" stroke="none" /><path d="M 120.95626037817324 101.35467743843564 l 5.927715036659333 0.38318582021445985 a26.940087282915176,26.940087282915176 0 0,0 -0.03389761028084437,0.4625059605053645 l -5.920240867714152 -0.4851649172165946" fill="#ff2e04" stroke="none" /><path d="M 120.89721153311464 102.0752229133903 l 12.175559644354545 1.2091087041577577 a33.23544835760852,33.23544835760852 0 0,0 -0.06143445780109561,0.5688067801682176 l -12.152942885052397 -1.4185118062107667" fill="#ff880c" stroke="none" /><path d="M 120.8583938346157 102.4346265915055 l 8.92084895705067 1.0412564007491278 a29.98141197176775,29.98141197176775 0 0,0 -0.06424372806562038,0.512085722650878 l -8.901603719738201 -1.1946598776874007" fill="#ff5a08" stroke="none" /><path d="M 120.76222939487914 103.15116336523771 l 14.25056468914248 2.1628629820192393 a35.41376322264327,35.41376322264327 0 0,0 -0.09665975139936366,0.6019003642327755 l -14.21122318338183 -2.4078425759452196" fill="#ffa50f" stroke="none" /><path d="M 120.64145759157962 103.86396538481128 l 27.996698339312807 5.2408253047128746 a49.48300138287746,49.48300138287746 0 0,0 -0.16393027251295667,0.8358769278120799 l -27.902338133824188 -5.721965959592899" fill="#a9ff21" stroke="none" /><path d="M 120.5718875245553 104.21870165774334 l 6.622842851121513 1.3581543298664283 a27.76066791185503,27.76066791185503 0 0,0 -0.100025601104858,0.4672863081246547 l -6.598483211292212 -1.471954457407252" fill="#ff3a05" stroke="none" /><path d="M 120.49622156327973 104.57218783832717 l 8.47303661929498 1.8901198381777324 a29.68129613333094,29.68129613333094 0 0,0 -0.1155301118279115,0.49770069805069866 l -8.439245941536516 -2.035689193576996" fill="#ff5607" stroke="none" /><path d="M 120.41448212921028 104.9243191809786 l 13.80620049782043 3.3302896197682506 a35.202182970851815,35.202182970851815 0 0,0 -0.14715968461694623,0.5878297885865144 l -13.746829498908424 -3.567447247752161" fill="#ffa20f" stroke="none" /><path d="M 120.32669344350535 105.2749913415812 l 13.99543276097317 3.631962416366532 a35.4590210305131,35.4590210305131 0 0,0 -0.15840376066237194,0.5894793210700494 l -13.93084092396902 -3.8723326706121295" fill="#ffa60f" stroke="none" /><path d="M 120.23288151984713 105.62410040840565 l 5.6192657826421195 1.56197795910072 a26.832317127925144,26.832317127925144 0 0,0 -0.12752680089400759,0.4439375238565693 l -5.591546344862013 -1.6584729584618711" fill="#ff2d04" stroke="none" /><path d="M 120.13307415673323 105.97154293290107 l 3.7849174225345124 1.1226202571052106 a24.9478951527451,24.9478951527451 0 0,0 -0.12565806616592654,0.410657830757298 l -3.765032583862453 -1.1876050604145656" fill="#ff1101" stroke="none" /><path d="M 120.02730092923936 106.31721596034902 l 11.298874383827384 3.56400644518622 a32.84764551642391,32.84764551642391 0 0,0 -0.17473031143123727,0.5377646029374278 l -11.2358518213799 -3.757969948101443" fill="#ff820c" stroke="none" /><path d="M 119.79798401119884 107.00284435728193 l 8.01025273964715 2.8333467269450225 a29.496587704962195,29.496587704962195 0 0,0 -0.17343395069973097,0.4772157454077511 l -7.960294527942192 -2.9708102693589047" fill="#ff5307" stroke="none" /><path d="M 119.67450827220406 107.3425965602758 l 8.032906576036476 2.997909344324093 a29.574091700939277,29.574091700939277 0 0,0 -0.18209996346464982,0.4754055424072668 l -7.98011233297832 -3.1357384535645036" fill="#ff5407" stroke="none" /><path d="M 119.54520255179757 107.68017299344265 l 13.435242566933319 5.279299963735728 a35.43526068138144,35.43526068138144 0 0,0 -0.22796243243630682,0.5657840622438997 l -13.34237752023962 -5.509783393822441" fill="#ffa60f" stroke="none" /><path d="M 119.41010516605496 108.01547362559984 l 12.04194474564921 4.972764942998993 a34.028308579228096,34.028308579228096 0 0,0 -0.22823113690807684,0.5394709892627463 l -11.954562627548825 -5.179310457927903" fill="#ff920d" stroke="none" /><path d="M 119.26925614724726 108.34839909993367 l 10.964902684891726 4.750540602393069 a32.94975844543022,32.94975844543022 0 0,0 -0.22995623124423015,0.5184905947836442 l -10.881505368916223 -4.9385795336694" fill="#ff840c" stroke="none" /><path d="M 119.12269723197855 108.67885076344098 l 11.79692623908448 5.354043995693284 a33.955047502738815,33.955047502738815 0 0,0 -0.24613429125362588,0.5301513662258149 l -11.703017330991022 -5.55631542919793" fill="#ff910d" stroke="none" /><path d="M 118.97047184881838 109.00673069616215 l 7.944508992092617 3.771864694523861 a29.794440653005513,29.794440653005513 0 0,0 -0.22395025847919453,0.4614038643425983 l -7.878405476998708 -3.9080575148317345" fill="#ff5708" stroke="none" /><path d="M 118.81262510543309 109.33194174019688 l 6.173035149244653 3.0621140882832933 a27.89078410948079,27.89078410948079 0 0,0 -0.2170451923750162,0.4282507556386429 l -6.119411287083367 -3.1679190556246306" fill="#ff3c05" stroke="none" /><path d="M 118.64920377521936 109.65438752849418 l 22.415066186950874 11.603912856227277 a46.24056231030333,46.24056231030333 0 0,0 -0.3720108105045853,0.7037042575403312 l -22.212002868221393 -11.988032128853742" fill="#cfff1d" stroke="none" /><line stroke="#e1ed5e" stroke-width="0.3" x1="174.80103733775053" x2="179.2010983576182" y1="140.37084112569926" y2="142.7455964860345" /><path d="M 175.68104954172406 140.8457921977663 a86.0,86.0 0 0,1 -30.038265399797805,32.042727171017184" fill="none" id="id29" stroke="none" /><text fill="#e1ed5e" style="font-size:6.75px; font-family:Arial;" text-anchor="middle"><textPath startOffset="22.206326154141568" xlink:href="#id29">May</textPath></text><path d="M 118.30583269289576 110.29060199501025 l 8.34399586475987 4.6905673144045545 a30.57202636446903,30.57202636446903 0 0,0 -0.2618246626298371,0.456513368561612 l -8.262019205977655 -4.833500528824481" fill="#ff6209" stroke="none" /><path d="M 118.12598468904814 110.60418214915192 l 8.57477472024649 5.016470805935125 a30.934371688726856,30.934371688726856 0 0,0 -0.27283986833388285,0.45729531304749266 l -8.48715397621438 -5.163328212868722" fill="#ff6809" stroke="none" /><path d="M 117.94076556474637 110.91462005526583 l 7.622030225898398 4.6370130452462135 a29.921728237639407,29.921728237639407 0 0,0 -0.27148320340551974,0.4377173660235293 l -7.541082382824915 -4.767526742635017" fill="#ff5908" stroke="none" /><path d="M 117.75023020441432 111.22182372390056 l 24.389392025362863 15.419149773824492 a49.854681130008444,49.854681130008444 0 0,0 -0.46482400491159975,0.7214171780101475 l -24.120363157074213 -15.836688551756092" fill="#a5ff21" stroke="none" /><path d="M 117.35343817320211 111.8261652097733 l 8.817276918107563 6.008871123584366 a31.670093927910777,31.670093927910777 0 0,0 -0.3108783063042603,0.4478433866309962 l -8.712537704641166 -6.159755772402382" fill="#ff720a" stroke="none" /><path d="M 116.93607887273984 112.41649034213515 l 9.31376360270409 6.828278061933515 a32.54866112318385,32.54866112318385 0 0,0 -0.33515625009752276,0.44899656745724925 l -9.194846085911477 -6.987587508900079" fill="#ff7e0b" stroke="none" /><path d="M 116.498646956653 112.99209946851258 l 17.71372618489054 13.94893127640939 a43.5465912968517,43.5465912968517 0 0,0 -0.46881448968029327,0.5849181593993081 l -17.470993783155393 -14.251777269386949" fill="#f0ff19" stroke="none" /><path d="M 116.27256486870786 113.27417163493432 l 7.1436679594600445 5.827371122004535 a30.219015463084354,30.219015463084354 0 0,0 -0.3322710261764307,0.4002418558172292 l -7.04230093339007 -5.9494742349355345" fill="#ff5d08" stroke="none" /><path d="M 116.0416608686014 113.55231037782055 l 10.783631341516271 9.110223694247907 a35.11675885849751,35.11675885849751 0 0,0 -0.39407272688579276,0.4583956098255451 l -10.6252161050597 -9.29449640323498" fill="#ffa10e" stroke="none" /><path d="M 115.56566222782051 114.09645910891815 l 4.547381261909797 4.11816555395906 a27.134978718054633,27.134978718054633 0 0,0 -0.316514785997482,0.3435142877708242 l -4.475820067916592 -4.1958310965312196" fill="#ff3104" stroke="none" /><path d="M 115.32070863581623 114.36230785411682 l 10.46738076005963 9.812584292007609 a35.347573678633644,35.347573678633644 0 0,0 -0.4199518122604024,0.44031779620981193 l -10.296922396420262 -9.991309204799927" fill="#ffa40f" stroke="none" /><path d="M 114.81725581225074 114.88116024355365 l 24.74640854263727 24.85313580608907 a56.07225534742551,56.07225534742551 0 0,0 -0.6898223733049528,0.6751363806426572 l -24.31493621695652 -25.275422289654298" fill="#60ff29" stroke="none" /><path d="M 114.55890576462653 115.13401014063108 l 4.331510441565401 4.502613314949343 a27.24784037643002,27.24784037643002 0 0,0 -0.34081101224416444,0.32225808442767573 l -4.253363594930429 -4.57650603612294" fill="#ff3304" stroke="none" /><path d="M 114.0293411484842 115.62618273729858 l 9.002880753705272 10.027602745600545 a34.47607801584023,34.47607801584023 0 0,0 -0.44500021847536053,0.3926609535162918 l -8.828938182323324 -10.181086840889124" fill="#ff990e" stroke="none" /><path d="M 113.48314897796784 116.09983520530334 l 6.389670136471719 7.629718872167175 a30.951909089276413,30.951909089276413 0 0,0 -0.41140963835172056,0.3385621237378885 l -6.257390369575307 -7.738576114762242" fill="#ff6809" stroke="none" /><path d="M 113.20401910651253 116.32954008644616 l 9.6335675399601 11.913927573891133 a36.32146513173255,36.32146513173255 0 0,0 -0.48954850281261375,0.38892693817961854 l -9.427061544430137 -12.077988426075878" fill="#ffb110" stroke="none" /><path d="M 112.92097659922987 116.55440617244103 l 20.51551085061358 26.284553404145992 a54.34312422549882,54.34312422549882 0 0,0 -0.7423562449621367,0.5692071129427445 l -20.060025877157948 -26.63379985891611" fill="#73ff27" stroke="none" /><path d="M 112.34349029814194 116.9893568818739 l 5.377568428230942 7.401587960713653 a30.14886586088612,30.14886586088612 0 0,0 -0.42247558662897605,0.3014251136372363 l -5.249365513753082 -7.4930573361951085" fill="#ff5c08" stroke="none" /><path d="M 111.45004920935366 117.60387380957326 l 15.207131949956322 23.380199242625977 a48.89068982238106,48.89068982238106 0 0,0 -0.7094229952075445,0.4527873207287512 l -14.802427152701846 -23.63850099217854" fill="#b0ff20" stroke="none" /><path d="M 111.1453310114006 117.79835938074945 l 15.342269428123398 24.50059354169958 a49.90785905425549,49.90785905425549 0 0,0 -0.7320313655027307,0.4496734537604234 l -14.918258862688358 -24.761055462288383" fill="#a4ff21" stroke="none" /><line stroke="#e1ed5e" stroke-width="0.3" x1="143.8653032363475" x2="146.44561519142675" y1="172.8068346515853" y2="177.08958963109032" /><path d="M 144.38136562736335 173.6633856474863 a86.0,86.0 0 0,1 -40.68145358897372,12.25698825130547" fill="none" id="id30" stroke="none" /><text fill="#e1ed5e" style="font-size:6.75px; font-family:Arial;" text-anchor="middle"><textPath startOffset="21.466115282336833" xlink:href="#id30">June</textPath></text><path d="M 110.8373102113329 117.98757091392108 l 10.141549095728621 16.832759234451608 a40.65178876097771,40.65178876097771 0 0,0 -0.6024829886944563,0.35595756934197564 l -9.850298236005782 -17.004835376087332" fill="#ffea16" stroke="none" /><path d="M 110.21172684928248 118.3499491758327 l 4.39946413418806 7.905611308916088 a30.04731865447819,30.04731865447819 0 0,0 -0.45411111930690407,0.24761758965288025 l -4.262730203012508 -7.980169550328738" fill="#ff5b08" stroke="none" /><path d="M 109.57404056367764 118.69057910512821 l 14.018805359048889 27.367712595323503 a51.749286111959194,51.749286111959194 0 0,0 -0.796313313680305,0.39928802667252455 l -13.545638137685824 -27.60496846290533" fill="#8fff24" stroke="none" /><path d="M 108.92500713936063 119.00905698771935 l 13.314299074714995 28.357654611459214 a52.327737468795455,52.327737468795455 0 0,0 -0.8186350698847463,0.37579520906945096 l -12.82419600906283 -28.582636890862737" fill="#89ff24" stroke="none" /><path d="M 108.59647513512805 119.15986991738527 l 6.584684427937624 14.675979992168978 a37.08547350083511,37.08547350083511 0 0,0 -0.5846777879359161,0.2563055601347796 l -6.331085965343954 -14.787150105598213" fill="#ffbc11" stroke="none" /><path d="M 108.2653958097858 119.30500536409082 l 3.388706888232884 7.914806037142784 a29.609732224636772,29.609732224636772 0 0,0 -0.4702709892168617,0.19657331163275474 l -3.251964439518561 -7.971964391795512" fill="#ff5507" stroke="none" /><path d="M 107.59598834532513 119.57807347666477 l 1.7319852019943573 4.464058132212711 a25.788276072628005,25.788276072628005 0 0,0 -0.41522781406718073,0.15700362964851386 l -1.6548871671669019 -4.4932100119678555" fill="#ff1d03" stroke="none" /><path d="M 106.91757812671514 119.82793768551818 l 5.2917031434296184 15.167672595265199 a37.06425890339613,37.06425890339613 0 0,0 -0.6042008404230171,0.20497772961309887 l -5.029832570069374 -15.256513311776422" fill="#ffbb11" stroke="none" /><path d="M 106.2309692047433 120.05430185196036 l 18.692907614229917 60.16290555588107 a84.0,84.0 0 0,0 -1.3845001022390167,0.4171385235770977 l -17.654532537550654 -60.47575944856389" fill="#4dd2ff" stroke="none" /><path d="M 105.18746579009965 120.34920634021253 l 2.160822985742423 8.476399571726517 a29.747485677340563,29.747485677340563 0 0,0 -0.4972741492466085,0.1222178872648743 l -2.014595551752603 -8.512338717305422" fill="#ff5708" stroke="none" /><path d="M 104.83641907484287 120.43548508189849 l 3.303089825580081 13.956657148658179 a35.3421993139491,35.3421993139491 0 0,0 -0.5932101492527844,0.13501269864350085 l -3.0623595269344346 -14.011446580879364" fill="#ffa40f" stroke="none" /><path d="M 104.48393922423573 120.51570834832081 l 3.0142232745092463 13.791205122119486 a35.11675885849751,35.11675885849751 0 0,0 -0.5916480538600928,0.12398560217265929 l -2.7763837592197755 -13.841046705018686" fill="#ffa10e" stroke="none" /><path d="M 104.13013068566511 120.58985236759428 l 5.124518932500227 25.547154873655025 a47.05605143585783,47.05605143585783 0 0,0 -0.7955439138147229,0.15246788449306456 l -4.6840074041138005 -25.63157995649656" fill="#c5ff1e" stroke="none" /><path d="M 103.41894727170886 120.7198165907248 l 2.3400763276245122 14.181544336143695 a35.373314056859606,35.373314056859606 0 0,0 -0.6016228174487125,0.09396111108733551 l -2.0956176465672827 -14.219723754578137" fill="#ffa50f" stroke="none" /><path d="M 103.06178313531738 120.77559828337769 l 1.3915109027596078 9.44203761174521 a30.54402309584957,30.54402309584957 0 0,0 -0.5208067324168021,0.07217906751121511 l -1.2287755791559751 -9.464591244749027" fill="#ff6209" stroke="none" /><path d="M 102.70371172650421 120.8252237178851 l 1.1896263616581928 9.163046074537556 a30.23994719922415,30.23994719922415 0 0,0 -0.5167756084845603,0.06257432937693289 l -1.0317233301222521 -9.18216593263984" fill="#ff5e08" stroke="none" /><path d="M 102.34483914955558 120.86867818915974 l 1.1054404137108562 9.838235708148975 a30.900145471525295,30.900145471525295 0 0,0 -0.5290802415097855,0.054841330311080225 l -0.935927575595468 -9.855806406915814" fill="#ff6709" stroke="none" /><path d="M 101.98527174616119 120.90594882070398 l 1.6589984797126525 17.470120842430205 a38.54871500152655,38.54871500152655 0 0,0 -0.6611208929315078,0.05704429249376868 l -1.358033269039603 -17.496089387202638" fill="#ffcf13" stroke="none" /><path d="M 101.26447882468166 120.96189622390904 l 0.5513260298164376 9.139606608644806 a30.156220254664966,30.156220254664966 0 0,0 -0.5184169201659595,0.026796233203507117 l -0.39392104123699856 -9.147742648610516" fill="#ff5d08" stroke="none" /><line stroke="#e1ed5e" stroke-width="0.3" x1="102.19456741930631" x2="102.32365962044197" y1="184.97166512339345" y2="189.96999836594603" /><path d="M 102.22038585953345 185.97133177190398 a86.0,86.0 0 0,1 -42.740103519485714,-10.115201625700543" fill="none" id="id31" stroke="none" /><text fill="#e1ed5e" style="font-size:6.75px; font-family:Arial;" text-anchor="middle"><textPath startOffset="22.20632615414155" xlink:href="#id31">July</textPath></text><path d="M 100.54218724476979 120.99299961872073 l 0.27719409308133375 10.732704515833463 a31.7362834719204,31.7362834719204 0 0,0 -0.546227244749767,0.009403797379954974 l -0.09240715843889878 -10.735885790492578" fill="#ff730a" stroke="none" /><path d="M 100.18074693466247 120.99922214144158 l 0.08209425077878774 9.537729709542885 a30.538083008566655,30.538083008566655 0 0,0 -0.5256823708824798,0.0 l 0.08209425077878117 -9.537729709542885" fill="#ff6209" stroke="none" /><path d="M 99.81925306533755 120.99922214144158 l -0.0738215264565303 8.576602617222992 a29.57692031393114,29.57692031393114 0 0,0 -0.5090614881089105,-0.008763955174567654 l 0.2214427044581087 -8.574061184769265" fill="#ff5407" stroke="none" /><path d="M 99.45781275523022 120.99299961872073 l -0.8837770885824826 34.21904934617944 a55.230460121046676,55.230460121046676 0 0,0 -0.9501733909228284,-0.03272589277646536 l 1.472670831179954 -34.19876665497688" fill="#69ff28" stroke="none" /><path d="M 99.09653310690486 120.98055641714683 l -0.5365942042726015 12.460938039784738 a33.47248612632675,33.47248612632675 0 0,0 -0.5754269938794244,-0.0297430028222273 l 0.7510092665655149 -12.449855230200308" fill="#ff8b0c" stroke="none" /><path d="M 98.73552117531835 120.96189622390904 l -0.17032005863961414 2.8234805710981776 a23.828612991864368,23.828612991864368 0 0,0 -0.40921358113587075,-0.0282217644280201 l 0.21889640055441492 -2.8201304621538723" fill="#ff0000" stroke="none" /><path d="M 98.37488393609728 120.93702456842531 l -0.3524888738127747 4.5412560832063855 a25.554915500799197,25.554915500799197 0 0,0 -0.4382737155832184,-0.037816100340138555 l 0.43060690713753486 -4.534515730587583" fill="#ff1a02" stroke="none" /><path d="M 97.65516085044442 120.86867818915974 l -3.2366347793099197 28.805510876113797 a49.98677735672851,49.98677735672851 0 0,0 -0.8542325525412201,-0.10343566575049307 l 3.731994754902529 -28.745529681637954" fill="#a3ff21" stroke="none" /><path d="M 97.2962882734958 120.8252237178851 l -2.2108564612607973 17.029027156463172 a38.17194375101022,38.17194375101022 0 0,0 -0.6508705560029177,-0.090204728315987 l 2.5036556084505457 -16.98844786265458" fill="#ffca12" stroke="none" /><path d="M 96.93821686468263 120.77559828337769 l -2.1418487518099605 14.533422938442474 a35.690401573247605,35.690401573247605 0 0,0 -0.6070157835892477,-0.0948033814865367 l 2.3917003990077252 -14.494401249608831" fill="#ffa90f" stroke="none" /><path d="M 96.58105272829116 120.7198165907248 l -2.150158691242335 13.030588126393301 a34.20679405901474,34.20679405901474 0 0,0 -0.5801326136553272,-0.1008634910653997 l 2.374140276369712 -12.991646056806896" fill="#ff950d" stroke="none" /><path d="M 96.22490169976321 120.6578951692458 l -1.4992830595151208 8.204298221995105 a29.340165406512096,29.340165406512096 0 0,0 -0.49603375776833436,-0.09506605024659236 l 1.6402844318551502 -8.177274973400046" fill="#ff5107" stroke="none" /><path d="M 95.86986931433489 120.58985236759428 l -1.795717862501353 8.952153938150925 a30.130479876439,30.130479876439 0 0,0 -0.5076390976911502,-0.10638070860367888 l 1.94954842162189 -8.919917248820706" fill="#ff5c08" stroke="none" /><path d="M 95.16358092515715 120.4354850818985 l -4.821348966377033 20.371808842935312 a41.934564752788205,41.934564752788205 0 0,0 -0.7009995815328305,-0.17228864190568563 l 5.171301832653074 -20.285798942715598" fill="#fffa17" stroke="none" /><path d="M 94.81253420990036 120.34920634021253 l -2.532896790078016 9.935957460795034 a31.253722095508344,31.253722095508344 0 0,0 -0.5201654557187569,-0.13738042456558153 l 2.703552688608262 -9.890885686925872" fill="#ff6c0a" stroke="none" /><path d="M 94.46302465271185 120.25689768951611 l -1.631379627879093 5.968365062505282 a27.187308058404124,27.187308058404124 0 0,0 -0.45036271888843143,-0.12727700290947863 l 1.7338735148721383 -5.939399266257283" fill="#ff3204" stroke="none" /><path d="M 94.11515582081647 120.15858648285463 l -8.100234730034918 27.747426671794443 a49.905596163862,49.905596163862 0 0,0 -0.8225512260853097,-0.24782793692890792 l 8.576660930560474 -27.60388336575981" fill="#a4ff21" stroke="none" /><path d="M 93.76903079525671 120.05430185196036 l -1.7452946868676493 5.617210633046046 a26.88210071658196,26.88210071658196 0 0,0 -0.4407111178968907,-0.1411017827521853 l 1.8417271498554806 -5.586336003634154" fill="#ff2d04" stroke="none" /><path d="M 93.42475214034765 119.94407469862007 l -3.5483913565260794 10.762998412387706 a32.3328379519046,32.3328379519046 0 0,0 -0.5270718595701382,-0.1788113916591052 l 3.7331329490334433 -10.700324033830478" fill="#ff7b0b" stroke="none" /><path d="M 92.7421414339146 119.70592522655815 l -4.446727178978832 12.073378461978375 a33.866229054794275,33.866229054794275 0 0,0 -0.5452943120942514,-0.2061836498545252 l 4.653891711833366 -11.995046562017217" fill="#ff900d" stroke="none" /><path d="M 92.40401165467489 119.57807347666478 l -5.283537088314537 13.617908905214112 a35.60695748998761,35.60695748998761 0 0,0 -0.5695060270076352,-0.2266182014112327 l 5.51716419136403 -13.524943859396812" fill="#ffa80f" stroke="none" /><path d="M 92.06813273071674 119.44442032107085 l -5.394085702819273 13.223225514586105 a35.281101273324836,35.281101273324836 0 0,0 -0.5603454388102027,-0.23422443886802627 l 5.620902601126938 -13.128416032698105" fill="#ffa30f" stroke="none" /><path d="M 91.7346041902142 119.30500536409082 l -7.399199963823033 17.28188199075322 a39.79924480522979,39.79924480522979 0 0,0 -0.6274622437736569,-0.27506100825478463 l 7.695582882254433 -17.15195642920398" fill="#ffdf14" stroke="none" /><path d="M 91.40352486487194 119.15986991738527 l -7.407031814070412 16.508832259817773 a39.09435444765718,39.09435444765718 0 0,0 -0.6116069819460817,-0.2807587679832995 l 7.690106791783912 -16.3788864215004" fill="#ffd614" stroke="none" /><path d="M 90.7491055286396 118.85261126421891 l -6.345047646991017 12.930718982039982 a35.40358021587256,35.40358021587256 0 0,0 -0.5447870762285308,-0.2731675496151689 l 6.566688630902308 -12.819583591515512" fill="#ffa50f" stroke="none" /><path d="M 90.42595943632237 118.69057910512821 l -5.839105565849564 11.39918551167948 a33.80767676586268,33.80767676586268 0 0,0 -0.5156622110737829,-0.2697700971326099 l 6.034458679449842 -11.296985995602155" fill="#ff8f0d" stroke="none" /><path d="M 90.10565033884886 118.52300852407294 l -8.021689258068552 15.017239494584546 a38.02542159803164,38.02542159803164 0 0,0 -0.5746857802044165,-0.31336450849121333 l 8.278997850141609 -14.876934334333566" fill="#ffc812" stroke="none" /><line stroke="#e1ed5e" stroke-width="0.3" x1="58.666819895761336" x2="56.23545636021788" y1="174.27360380694188" y2="178.64263932499728" /><path d="M 58.180547188652646 175.14741091055294 a86.0,86.0 0 0,1 -31.652253787137756,-30.449443065178592" fill="none" id="id32" stroke="none" /><text fill="#e1ed5e" style="font-size:6.75px; font-family:Arial;" text-anchor="middle"><textPath startOffset="22.20632615414155" xlink:href="#id32">August</textPath></text><path d="M 89.7882731507175 118.34994917583269 l -4.291489166380101 7.711585832051958 a29.825272534616836,29.825272534616836 0 0,0 -0.4464576761032311,-0.2535103203210183 l 4.423595609404539 -7.636572345936307" fill="#ff5808" stroke="none" /><path d="M 89.1626897886671 117.98757091392108 l -15.296039777546152 25.388089372310134 a50.63990409654999,50.63990409654999 0 0,0 -0.7427687511985945,-0.4562692330367676 l 15.730787728677056 -25.12103167244499" fill="#9cff22" stroke="none" /><path d="M 88.8546689885994 117.79835938074946 l -5.987205124683625 9.561172152391071 a32.28107433415348,32.28107433415348 0 0,0 -0.46841099043297896,-0.29896205619328925 l 6.150897917163527 -9.456695667373978" fill="#ff7a0b" stroke="none" /><path d="M 88.54995079064634 117.60387380957326 l -7.108495960583326 10.928954415649521 a34.03736014080207,34.03736014080207 0 0,0 -0.48839608564398096,-0.3236822941402693 l 7.295566744967269 -10.804974100417933" fill="#ff930d" stroke="none" /><path d="M 88.24862548938628 117.40417183066458 l -7.828991056232801 11.594993035099506 a34.99060271906036,34.99060271906036 0 0,0 -0.4962719106079859,-0.3413403453650501 l 8.027419851463677 -11.458511900369354" fill="#ffa00e" stroke="none" /><path d="M 87.95078237400918 117.19931262002967 l -7.269975229503323 10.37731914164988 a33.67048903575726,33.67048903575726 0 0,0 -0.471824037199383,-0.336633922836597 l 7.447526594551593 -10.250640956969063" fill="#ff8e0d" stroke="none" /><path d="M 87.65650970185807 116.9893568818739 l -6.234980015677976 8.581713768078243 a31.607581580790573,31.607581580790573 0 0,0 -0.4374113455285283,-0.3235864563936272 l 6.381776331625069 -8.47311736294485" fill="#ff710a" stroke="none" /><path d="M 87.36589467227662 116.77436683061367 l -7.392282394321791 9.814771476199606 a33.28721197535964,33.28721197535964 0 0,0 -0.45472118210848833,-0.3486608121348602 l 7.560132304923766 -9.68607132223738" fill="#ff880c" stroke="none" /><path d="M 87.07902340077011 116.55440617244103 l -7.052979158291756 9.036304710828283 a32.46295414953036,32.46295414953036 0 0,0 -0.4375426636325961,-0.3476103542588474 l 7.20747931464171 -8.913560442564306" fill="#ff7d0b" stroke="none" /><path d="M 86.79598089348748 116.32954008644616 l -10.535814117706602 13.029744776238536 a37.756420502505335,37.756420502505335 0 0,0 -0.5018545143560472,-0.412992099233633 l 10.758538760607339 -12.846457558147721" fill="#ffc412" stroke="none" /><path d="M 86.51685102203217 116.09983520530335 l -20.291556841314986 24.229556592309887 a52.60409295810061,52.60409295810061 0 0,0 -0.6892000974344393,-0.5873512749104374 l 20.70562241532648 -23.8766809271765" fill="#86ff25" stroke="none" /><path d="M 86.24171649860922 115.8653595955263 l -12.229901062177175 14.102905943865442 a39.667148578509725,39.667148578509725 0 0,0 -0.5120039981236019,-0.4517839986599893 l 12.470847413207364 -13.890298803433165" fill="#ffdd14" stroke="none" /><path d="M 85.70375840098266 115.38237550388516 l -6.470165555489968 6.961725951364129 a30.504139652664286,30.504139652664286 0 0,0 -0.381540209023479,-0.36077008217080103 l 6.589041598904265 -6.849321232447398" fill="#ff6109" stroke="none" /><path d="M 85.18274418774928 114.88116024355367 l -7.13107545893193 7.161830635703906 a31.106634219931394,31.106634219931394 0 0,0 -0.3761819706247589,-0.38107035015922397 l 7.253298054612221 -7.038019791564017" fill="#ff6a09" stroke="none" /><path d="M 84.9287848128048 114.62390073753433 l -11.278036012371583 10.943303317663885 a36.714642337601695,36.714642337601695 0 0,0 -0.43619346341411336,-0.4573471025112117 l 11.464736027164653 -10.747549098570172" fill="#ffb710" stroke="none" /><path d="M 84.67929136418377 114.36230785411682 l -10.391645319747704 9.74158655064439 a35.243763581832226,35.243763581832226 0 0,0 -0.41109935643424367,-0.44616715830038967 l 10.557791084177676 -9.561268137542656" fill="#ffa30f" stroke="none" /><path d="M 84.43433777217949 114.09645910891817 l -11.632943055733456 10.534939259341817 a36.69427632406027,36.69427632406027 0 0,0 -0.4199592658593519,-0.47182868715059645 l 11.812561171241146 -10.333136402450355" fill="#ffb610" stroke="none" /><path d="M 84.19399662182784 113.82643327865904 l -6.540723529357482 5.721552457574794 a29.690064833605717,29.690064833605717 0 0,0 -0.33317553187468557,-0.3875584142033446 l 6.638241570802946 -5.608116944209919" fill="#ff5608" stroke="none" /><path d="M 83.72743513129214 113.27417163493432 l -10.628923980059398 8.670431634123895 a34.71679298144789,34.71679298144789 0 0,0 -0.3737545259049947,-0.46631623845200365 l 10.776596418019253 -8.486187562093631" fill="#ff9c0e" stroke="none" /><path d="M 83.50135304334701 112.99209946851258 l -10.966825245557752 8.635986018636888 a34.95892225355148,34.95892225355148 0 0,0 -0.36822263237567365,-0.4759773892559185 l 11.113854695151495 -8.445930635267716" fill="#ff9f0e" stroke="none" /><path d="M 83.28015986056508 112.70617746262583 l -12.56307666445786 9.54726123240135 a36.7791347138162,36.7791347138162 0 0,0 -0.3787177858364971,-0.5073543633040317 l 12.725555716989442 -9.32959398958801" fill="#ffb711" stroke="none" /><path d="M 83.06392112726016 112.41649034213515 l -21.17656204661068 15.525351535448433 a47.25801440347695,47.25801440347695 0 0,0 -0.4753260768675683,-0.660186347575534 l 21.440667915853858 -15.15853158242176" fill="#c3ff1e" stroke="none" /><path d="M 82.6465618267979 111.8261652097733 l -11.030829020712897 7.517380999527952 a34.34879043120633,34.34879043120633 0 0,0 -0.32876191474143296,-0.491454455536087 l 11.15859404086506 -7.3263896297860445" fill="#ff970d" stroke="none" /><path d="M 82.44556493220864 111.52570212397912 l -9.868044662261875 6.479054602676105 a32.80493346024676,32.80493346024676 0 0,0 -0.30585935375028284,-0.47470050926586344 l 9.978108879389204 -6.308232493488793" fill="#ff820b" stroke="none" /><path d="M 82.24976979558568 111.22182372390057 l -10.323591395580257 6.526649035231529 a33.21366803757116,33.21366803757116 0 0,0 -0.3013513432136913,-0.48587431761705363 l 10.434407378461904 -6.347978386249211" fill="#ff870c" stroke="none" /><path d="M 82.05923443525364 110.91462005526583 l -6.056832870927286 3.6847942349973435 a28.08963560280886,28.08963560280886 0 0,0 -0.24774941468133455,-0.4152422695256251 l 6.119363161306852 -3.579989871585607" fill="#ff3f05" stroke="none" /><line stroke="#e1ed5e" stroke-width="0.3" x1="26.63291911575756" x2="22.317208475507996" y1="142.92168965132927" y2="145.44649492493687" /><path d="M 25.769776987707644 143.4266507060508 a86.0,86.0 0 0,1 -11.730757126820373,-40.83630448921669" fill="none" id="id33" stroke="none" /><text fill="#e1ed5e" style="font-size:6.75px; font-family:Arial;" text-anchor="middle"><textPath startOffset="21.46611528233685" xlink:href="#id33">September</textPath></text><path d="M 81.87401531095188 110.60418214915194 l -13.545170317034103 7.924284155988583 a36.69286201756434,36.69286201756434 0 0,0 -0.3142446661578668,-0.5479120632079857 l 13.679566979344347 -7.6899522469222905" fill="#ffb610" stroke="none" /><path d="M 81.69416730710424 110.29060199501025 l -9.679676290274177 5.441418471086869 a32.10428602216196,32.10428602216196 0 0,0 -0.26665451618957037,-0.48405540192405583 l 9.771907215915265 -5.273992550764991" fill="#ff780b" stroke="none" /><path d="M 81.35079622478065 109.6543875284942 l -15.552111637695717 8.051073624721168 a38.512508755230684,38.512508755230684 0 0,0 -0.29970311479275463,-0.5913426783279812 l 15.688393422274737 -7.782176734690502" fill="#ffce13" stroke="none" /><path d="M 81.18737489456691 109.33194174019688 l -10.372097809157346 5.145045517902049 a32.57807869829924,32.57807869829924 0 0,0 -0.24487350610837763,-0.5045119517199529 l 10.45912457188044 -4.965744610216811" fill="#ff7f0b" stroke="none" /><path d="M 81.02952815118164 109.00673069616217 l -22.41996601830749 10.644468822560182 a45.818533251917174,45.818533251917174 0 0,0 -0.3321306561957254,-0.715379885715306 l 22.599871291343042 -10.25696886956605" fill="#d4ff1c" stroke="none" /><path d="M 80.87730276802145 108.67885076344099 l -3.420335884908358 1.552322057179284 a24.756115191896697,24.756115191896697 0 0,0 -0.17277282803770774,-0.3895571165305099 l 3.4465497976773456 -1.4932166041560782" fill="#ff0e01" stroke="none" /><path d="M 80.73074385275274 108.34839909993369 l -8.4184684605516 3.6472987842309204 a30.174606239112084,30.174606239112084 0 0,0 -0.20238398484225908,-0.4783759569044416 l 8.480003426586165 -3.5018483016603197" fill="#ff5d08" stroke="none" /><path d="M 80.58989483394504 108.01547362559985 l -13.443034258924234 5.551349960683532 a35.54416228156822,35.54416228156822 0 0,0 -0.22866301917385853,-0.5675228610717971 l 13.53659989235548 -5.31912773176893" fill="#ffa70f" stroke="none" /><path d="M 80.45479744820244 107.68017299344265 l -11.009248401309295 4.326019749642402 a32.82869380937842,32.82869380937842 0 0,0 -0.202139900144085,-0.5277234934141124 l 11.082082581046889 -4.135872689395132" fill="#ff820c" stroke="none" /><path d="M 80.32549172779594 107.34259656027581 l -8.503294843800555 3.173459921197131 a30.076170506995204,30.076170506995204 0 0,0 -0.17684177997543368,-0.48659262797006037 l 8.556660884781213 -3.0266194962209534" fill="#ff5b08" stroke="none" /><path d="M 80.20201598880116 107.00284435728193 l -15.449830305752618 5.464837072118214 a37.38785222966541,37.38785222966541 0 0,0 -0.20938829683563392,-0.608580403093492 l 15.54160943353148 -5.198083965935425" fill="#ffc011" stroke="none" /><path d="M 80.0844068197444 106.66101706037122 l -10.090940383546561 3.3750401226628153 a31.640393491496198,31.640393491496198 0 0,0 -0.1683084349473884,-0.5180000994053116 l 10.147541069510199 -3.2008411232797003" fill="#ff710a" stroke="none" /><path d="M 79.97269907076064 106.31721596034903 l -13.000247207960118 4.1006708512931755 a34.631651730392775,34.631651730392775 0 0,0 -0.17443340842701424,-0.5700584713889516 l 13.068907388893264 -3.876285407352176" fill="#ff9b0e" stroke="none" /><path d="M 79.86692584326677 105.97154293290107 l -8.300676175851464 2.4620107078694127 a29.65810150679765,29.65810150679765 0 0,0 -0.14095699554084462,-0.4906897932982248 l 8.341825808278413 -2.3187634390665917" fill="#ff5507" stroke="none" /><path d="M 79.76711848015287 105.62410040840567 l -13.591542902756085 3.7780185642500266 a35.106858713025986,35.106858713025986 0 0,0 -0.15683056902221373,-0.5836248897353667 l 13.654561548120075 -3.543502741339121" fill="#ffa10e" stroke="none" /><path d="M 79.67330655649465 105.27499134158121 l -14.324530911856236 3.717366857637983 a35.7990203121352,35.7990203121352 0 0,0 -0.14965471155842155,-0.5977961809672907 l 14.386396937709717 -3.4702428372733003" fill="#ffaa0f" stroke="none" /><path d="M 79.58551787078972 104.9243191809786 l -11.753789963539091 2.8352134039115273 a33.09090623372425,33.09090623372425 0 0,0 -0.12880152135188974,-0.5548735829349406 l 11.800852050821536 -2.6324711636280123" fill="#ff860c" stroke="none" /><path d="M 79.50377843672027 104.57218783832718 l -16.87401750376099 3.764165867168273 a38.28876546757422,38.28876546757422 0 0,0 -0.137959821198021,-0.6445023554477664 l 16.93631136368345 -3.4731496923043426" fill="#ffcb13" stroke="none" /><path d="M 79.4281124754447 104.21870165774334 l -19.233704363082992 3.9442788312074244 a40.63396849912897,40.63396849912897 0 0,0 -0.13461466247376477,-0.6863972638009114 l 19.29874895853242 -3.612617840338558" fill="#ffea16" stroke="none" /><path d="M 79.29508885075956 103.50808413554451 l -11.594988226784997 1.964567437986906 a32.76024137497531,32.76024137497531 0 0,0 -0.08941712201496384,-0.5568005041424972 l 11.627087103161251 -1.7646877041511952" fill="#ff810b" stroke="none" /><path d="M 79.23777060512086 103.15116336523772 l -17.3810633670525 2.6379907999976164 a38.58011260573625,38.58011260573625 0 0,0 -0.09399943206471267,-0.657431808927083 l 17.42389685013381 -2.338413519090133" fill="#ffcf13" stroke="none" /><path d="M 79.18660465613746 102.79330883721812 l -10.313154952066297 1.3841003061377726 a31.405618613171455,31.405618613171455 0 0,0 -0.06729549708389572,-0.5364113243888332 l 10.335451958397039 -1.2063712274615306" fill="#ff6e0a" stroke="none" /><path d="M 79.10278846688536 102.07522291339032 l -11.79922518799006 1.1717363549470454 a32.85726280059625,32.85726280059625 0 0,0 -0.05104673638569938,-0.5632964823602625 l 11.817646520652836 -0.9684584840382168" fill="#ff820c" stroke="none" /><path d="M 79.07016306316243 101.71520430193888 l -16.3373275488049 1.3388472436961452 a37.392095149153214,37.392095149153214 0 0,0 -0.04704894440910671,-0.6419454659018523 l 16.357953051878344 -1.0574286412975322" fill="#ffc011" stroke="none" /><path d="M 79.04373962182676 101.35467743843564 l -11.656992755662882 0.7535440389236454 a32.68132307250229,32.68132307250229 0 0,0 -0.03145756176756085,-0.5616958973545387 l 11.668236668317975 -0.552776425233669" fill="#ff800b" stroke="none" /><path d="M 79.0235259727143 100.99374915477108 l -12.339562196175292 0.5845801104009984 a33.353401519369264,33.353401519369264 0 0,0 -0.022232213496604106,-0.5737146437273385 l 12.347796542523096 -0.37208821965966316" fill="#ff890c" stroke="none" /><path d="M 79.0095281055655 100.63252640178507 l -11.688180547887825 0.3522113663071115 a32.69348610836731,32.69348610836731 0 0,0 -0.01210894693140288,-0.5626551827089473 l 11.692511557504234 -0.1509663678080353" fill="#ff800b" stroke="none" /><line stroke="#e1ed5e" stroke-width="0.3" x1="15.007084014347285" x2="10.007500721073583" y1="101.09737516637583" y2="101.16192664675087" /><path d="M 14.007167355692545 101.11028546245083 a86.0,86.0 0 0,1 10.666146001902534,-42.60595125391555" fill="none" id="id34" stroke="none" /><text fill="#e1ed5e" style="font-size:6.75px; font-family:Arial;" text-anchor="middle"><textPath startOffset="22.20632615414155" xlink:href="#id34">October</textPath></text><path d="M 79.00175016825051 100.2711162175752 l -27.50512025719918 0.3551288430147075 a48.507412761983446,48.507412761983446 0 0,0 -0.003593481595857799,-0.8349985690628139 l 27.507158036084544 0.11837920425178178" fill="#b4ff20" stroke="none" /><path d="M 79.00486145842228 99.54816195383935 l -12.132223360377312 -0.2610985437358072 a33.13503259639734,33.13503259639734 0 0,0 0.017180207577701653,-0.5701274496725836 l 12.125931458343965 0.46989614083338516" fill="#ff860c" stroke="none" /><path d="M 79.01574976396665 99.18683210126434 l -17.448780371505276 -0.6761636899388677 a38.46187658267632,38.46187658267632 0 0,0 0.03133066328086092,-0.661340783449571 l 17.434556099990917 0.9764155800114478" fill="#ffce13" stroke="none" /><path d="M 79.05617556472873 98.46500227214037 l -12.983019631832052 -0.9515409039648536 a34.0178427111582,34.0178427111582 0 0,0 0.04782830311400499,-0.5836264426402437 l 12.96471684489855 1.1748812638128756" fill="#ff920d" stroke="none" /><path d="M 79.08570108090925 98.10471618934814 l -11.596184524866457 -1.0508628991263576 a32.643702519710494,32.643702519710494 0 0,0 0.05552985154182539,-0.5591780268926337 l 11.576377547642402 1.2503164567234215" fill="#ff7f0b" stroke="none" /><path d="M 79.12142395522702 97.74499172005258 l -12.34721737997375 -1.3335716653493783 a33.419025340780514,33.419025340780514 0 0,0 0.0666942645236299,-0.5713957289374936 l 12.322432762446532 1.5459111326117334" fill="#ff8a0c" stroke="none" /><path d="M 79.16333360222342 97.38593545837743 l -10.640710473126877 -1.334930617713442 a31.724120436055387,31.724120436055387 0 0,0 0.07263917318746092,-0.5412462126843021 l 10.616155300881582 1.5178951724624035" fill="#ff730a" stroke="none" /><path d="M 79.21141760316559 97.0276538004421 l -11.884336857542692 -1.6992194474098417 a33.00519926007076,33.00519926007076 0 0,0 0.0852541688438258,-0.5617184529154836 l 11.853326795259564 1.9035370127174174" fill="#ff840c" stroke="none" /><path d="M 79.26566170972629 96.67025291283419 l -20.25806777298308 -3.253262352256505 a41.5176271977874,41.5176271977874 0 0,0 0.11938915336055907,-0.7046415413665112 l 20.199066758102298 3.6014896819388444" fill="#fff517" stroke="none" /><path d="M 79.32604984820605 96.31383870115002 l -2.7997327835276327 -0.49919181182051836 a23.843887502020436,23.843887502020436 0 0,0 0.07552185316055178,-0.40344075942781127 l 2.7907252064572194 0.5473106487109023" fill="#ff0000" stroke="none" /><path d="M 79.3925641242962 95.95851677861259 l -10.83619667146245 -2.1251701228391617 a32.04262225893932,32.04262225893932 0 0,0 0.11080751377019239,-0.5403367896309924 l 10.798009861777263 2.3113825686335567" fill="#ff770b" stroke="none" /><path d="M 79.46518482838121 95.60439243477599 l -11.198796672139082 -2.3971735300298525 a32.45248828146046,32.45248828146046 0 0,0 0.12162823730959701,-0.5452355389582562 l 11.155874047827448 2.589587238538068" fill="#ff7d0b" stroke="none" /><path d="M 79.54389044137918 95.25157060432595 l -18.288381348807032 -4.245239660411127 a39.77463587220057,39.77463587220057 0 0,0 0.16055164302534228,-0.6655902119457718 l 18.212596905520872 4.559415104016296" fill="#ffdf14" stroke="none" /><path d="M 79.71946130924805 94.55025226153421 l -13.79538106923813 -3.707068531549282 a35.284778470214256,35.284778470214256 0 0,0 0.162668254931047,-0.5852042620258229 l 13.729526043740723 3.9439840969940474" fill="#ffa40f" stroke="none" /><path d="M 79.81627453868168 94.20196356495316 l -13.378546496356128 -3.8431606782653223 a34.91960453296456,34.91960453296456 0 0,0 0.1709299724371459,-0.5762908932170409 l 13.310410626807275 4.072880958228902" fill="#ff9f0e" stroke="none" /><path d="M 79.91906864156998 93.8553929516997 l -11.08759098585824 -3.392715631776452 a32.59505037625043,32.59505037625043 0 0,0 0.16878728498649417,-0.5351018186921415 l 11.027548217103542 3.5830676168950077" fill="#ff7f0b" stroke="none" /><path d="M 80.02781315780177 93.51064311812611 l -7.099091771593125 -2.3066347419555613 a28.464426824230888,28.464426824230888 0 0,0 0.15541943861436514,-0.46468433929741404 l 7.0583350392069875 2.4284921841752976" fill="#ff4406" stroke="none" /><path d="M 80.14247586403 93.16781622104843 l -9.926711444544656 -3.4153863515592793 a31.49783139670624,31.49783139670624 0 0,0 0.1808079302878567,-0.511168366781519 l 9.86645043344699 3.5857523447674096" fill="#ff6f0a" stroke="none" /><path d="M 80.2630227832202 92.82701384747504 l -9.477779333463168 -3.4444980692291884 a31.084288177295665,31.084288177295665 0 0,0 0.18709101882396562,-0.5013109146458299 l 9.417083726137575 3.60713212090436" fill="#ff6a09" stroke="none" /><path d="M 80.38941819471856 92.48833698450439 l -9.548892785612557 -3.6576204361923255 a31.225435965589696,31.225435965589696 0 0,0 0.1965811448765325,-0.5002775715802987 l 9.484518090854333 3.8214470126683877" fill="#ff6c09" stroke="none" /><path d="M 80.52162464483688 92.15188598940014 l -6.035721678564426 -2.431877967536273 a27.507224187783983,27.507224187783983 0 0,0 0.18073335199397897,-0.43766014749430426 l 5.992966639684247 2.5354126854838883" fill="#ff3605" stroke="none" /><path d="M 80.803312248108 91.48605970444005 l -32.88951022760108 -14.586856339339336 a56.97910867261723,56.97910867261723 0 0,0 0.4053593722467814,-0.8931556443248321 l 32.63354853839095 15.15083399250624" fill="#57ff2a" stroke="none" /><path d="M 81.10775173730289 90.83032412892265 l -10.478851285127838 -5.086089725782948 a32.64794543919829,32.64794543919829 0 0,0 0.24974121583097617,-0.503463051699687 l 10.389750056343448 5.265712365981596" fill="#ff7f0b" stroke="none" /><path d="M 81.26839172434947 90.50648371742162 l -14.935817627561699 -7.569741249884955 a37.74454032793951,37.74454032793951 0 0,0 0.29870412153386683,-0.5770012871911145 l 14.803304072867718 7.8257152593364046" fill="#ffc412" stroke="none" /><path d="M 81.43458229118936 90.18545643968196 l -10.50287634610612 -5.55230908478688 a32.88017456583035,32.88017456583035 0 0,0 0.26882188901123194,-0.4980861333685044 l 10.405746357876417 5.732276201487857" fill="#ff830c" stroke="none" /><path d="M 81.6062741919709 89.86733742301443 l -14.638655322741151 -8.0640842705931 a37.71285986243063,37.71285986243063 0 0,0 0.31812118807804673,-0.565902096674785 l 14.497676493370674 8.31486987720267" fill="#ffc412" stroke="none" /><line stroke="#e1ed5e" stroke-width="0.3" x1="26.266209847984243" x2="21.928928074336255" y1="57.711370442889674" y2="55.22380399835377" /><path d="M 25.398753493254645 57.213857153982495 a86.0,86.0 0 0,1 29.58750427330803,-30.492523968695096" fill="none" id="id35" stroke="none" /><text fill="#e1ed5e" style="font-size:6.75px; font-family:Arial;" text-anchor="middle"><textPath startOffset="21.46611528233685" xlink:href="#id35">November</textPath></text><path d="M 81.78341655067845 89.55222093294921 l -13.378544691961453 -7.673012865949026 a36.42272947684129,36.42272947684129 0 0,0 0.3166008045419952,-0.5411734026209165 l 13.244484212949132 7.902165680923835" fill="#ffb310" stroke="none" /><path d="M 81.96595687620814 89.24020034530311 l -5.434649792684157 -3.2425198587651116 a27.328455846698155,27.328455846698155 0 0,0 0.24450405289653573,-0.4019003749499018 l 5.378029941501404 3.3355880069220882" fill="#ff3404" stroke="none" /><path d="M 82.15384107792192 88.93136811851018 l -3.5059476465739055 -2.1744759791247783 a25.125532048634184,25.125532048634184 0 0,0 0.23112187721113178,-0.36557930570914476 l 3.4679981731168112 2.2345029325481387" fill="#ff1302" stroke="none" /><path d="M 82.34701348167596 88.62581576622439 l -13.86890157308085 -8.936020058055211 a37.49845099764731,37.49845099764731 0 0,0 0.35427708794282753,-0.5395883104908404 l 13.713027849780103 9.173426432523717" fill="#ffc111" stroke="none" /><path d="M 82.54541684631803 88.32363383020206 l -8.556212775164973 -5.723738717212195 a31.294171261292004,31.294171261292004 0 0,0 0.30336798266530807,-0.4451550809184425 l 8.456420326830925 5.870171821401054" fill="#ff6d0a" stroke="none" /><path d="M 82.7489923806493 88.02491185347247 l -10.00071097316726 -6.942168137314316 a33.17406745568506,33.17406745568506 0 0,0 0.32966710608458755,-0.46629074233923606 l 9.879731247278794 7.113285379985339" fill="#ff870c" stroke="none" /><path d="M 82.95767976084542 87.72973835380427 l -21.016494681878356 -15.131618524574865 a46.89708338571505,46.89708338571505 0 0,0 0.47731714683776305,-0.6510600518669157 l 20.752914922526962 15.49114102011328" fill="#c7ff1e" stroke="none" /><path d="M 83.17141714833178 87.43820079747576 l -10.833205648878353 -8.08651300471038 a34.5185072107182,34.5185072107182 0 0,0 0.35952514450150747,-0.4730929471002504 l 10.692404564152737 8.271790727691657" fill="#ff990e" stroke="none" /><path d="M 83.39014120810768 87.1503855733568 l -8.470786357715744 -6.553116432287023 a31.709694509796876,31.709694509796876 0 0,0 0.3377020848918015,-0.4288473536289332 l 8.356730192229971 6.697956179869005" fill="#ff720a" stroke="none" /><line stroke="#e1ed5e" stroke-width="0.3" x1="56.762969772571076" x2="54.21961505331055" y1="26.818313649435495" y2="22.513508569990535" /><path d="M 56.25429882871897 25.957352633546506 a86.0,86.0 0 0,1 42.265352541879196,-11.944610805530505" fill="none" id="id36" stroke="none" /><text fill="#e1ed5e" style="font-size:6.75px; font-family:Arial;" text-anchor="middle"><textPath startOffset="22.20632615414155" xlink:href="#id36">December</textPath></text></svg>