<?xml version="1.0" encoding="utf-8" ?>
<svg baseProfile="full" height="200mm" version="1.1" viewBox="0,0,200,200" width="200mm" xmlns="http://www.w3.org/2000/svg" xmlns:ev="http://www.w3.org/2001/xml-events" xmlns:xlink="http://www.w3.org/1999/xlink"><defs /><rect fill="#1a1a1a" height="200" width="200" x="0" y="0" /><text alignment-baseline="middle" fill="#e1ed5e" style="dominant-baseline: central; font-size:9.0px; font-family:Arial;" text-anchor="middle" x="100.0" y="100.0">2025</text><line stroke="#e1ed5e" stroke-width="0.3" x1="100.0" x2="100.0" y1="15.0" y2="10.0" /><path d="M 100.0 14.0 a86.0,86.0 0 0,1 42.46469731375804,11.215312516191453" fill="none" id="id25" stroke="none" /><text fill="#e1ed5e" style="font-size:6.75px; font-family:Arial;" text-anchor="middle"><textPath startOffset="22.20632615414155" xlink:href="#id25">January</textPath></text><path d="M 100.0 79.0 l 0.0 -6.802457488320137 a27.802457488320137,27.802457488320137 0 0,0 0.47857360275390753,0.004119234089981507 l -0.11709312348137917 6.8014496308387145" fill="#ff4106" stroke="none" /><path d="M 101.08401301168833 79.027996857942 l 0.6650464375860298 -12.866410115267861 a33.8835863026726,33.8835863026726 0 0,0 0.5822135171153604,0.03512070930854728 l -0.8864220035410022 12.853056136579008" fill="#ff960d" stroke="none" /><path d="M 102.52436894288641 79.15227682838746 l 0.9586059235087422 -7.916731419270014 a28.974557146415282,28.974557146415282 0 0,0 0.4946167611903624,0.0642154511986054 l -1.0947374132069507 7.899057644907272" fill="#ff5207" stroke="none" /><path d="M 102.88285421437855 79.19881850522331 l 0.6838600267999893 -4.934379429781828 a25.98154242110904,25.98154242110904 0 0,0 0.4424669288617789,0.06520812359991522 l -0.768695936090424 4.921876822020944" fill="#ff2603" stroke="none" /><path d="M 103.2404852339499 79.25152402106235 l 1.3809965695724633 -8.84237146047508 a29.949563373159336,29.949563373159336 0 0,0 0.5086730735285147,0.08393541561128416 l -1.532998849239853 8.81728978192417" fill="#ff5f08" stroke="none" /><path d="M 103.59715602781102 79.31037775812273 l 1.275089497906644 -7.333882609570061 a28.443902696746242,28.443902696746242 0 0,0 0.4816566939922533,0.08801968215497546 l -1.4011413130017982 7.310847446064347" fill="#ff4a06" stroke="none" /><path d="M 103.95276090670814 79.375362276772 l 0.979680154079699 -5.111755742230621 a26.204788177488624,26.204788177488624 0 0,0 0.4422789125190818,0.08871698910734206 l -1.067525476065906 5.09413479704607" fill="#ff2a04" stroke="none" /><path d="M 104.66035177308747 79.52364482259891 l 2.825641421143378 -12.415122325621526 a33.73261606273539,33.73261606273539 0 0,0 0.5650635860789434,0.13373229435263417 l -3.038928694184845 12.364644119128025" fill="#ff940d" stroke="none" /><path d="M 105.01212808612495 79.60689891045804 l 4.881124942092809 -19.860081918166237 a41.4511181722808,41.4511181722808 0 0,0 0.6914265833245997,0.17626003134451762 l -5.222260414102434 19.77311889065285" fill="#fff817" stroke="none" /><path d="M 105.71112130821622 79.79150937346287 l 2.644302659107861 -9.35672044357236 a30.723196697184,30.723196697184 0 0,0 0.5076785617490545,0.14820529363733853 l -2.8049714385803424 9.30981682101632" fill="#ff6a09" stroke="none" /><path d="M 106.74666289553966 80.11325718540242 l 2.072302435059433 -6.108404436115647 a27.450352094072894,27.450352094072894 0 0,0 0.4461571030717371,0.15565545273736706 l -2.177141542194444 6.071828130206073" fill="#ff3c05" stroke="none" /><path d="M 107.4271985657038 80.35727306442388 l 2.583119937714681 -6.831582477499546 a28.303631135229786,28.303631135229786 0 0,0 0.45422858020057255,0.1762336322534276 l -2.700331682914921 6.786106141355571" fill="#ff4806" stroke="none" /><path d="M 108.09893153111575 80.62456947434976 l 4.757380342643844 -11.381290477497256 a33.33557621912101,33.33557621912101 0 0,0 0.5275215914777536,0.22585721524232866 l -4.952585691911913 11.297713734292136" fill="#ff8e0d" stroke="none" /><path d="M 108.43124777332544 80.76684994638697 l 4.728079928254271 -10.785576841104222 a32.77639196032998,32.77639196032998 0 0,0 0.5147733409837376,0.2309637928166787 l -4.913035387704789 10.702592717771012" fill="#ff870c" stroke="none" /><path d="M 109.08828744355905 81.06846463323043 l 4.402633325033568 -9.170991676639929 a31.173016687674064,31.173016687674064 0 0,0 0.48173998138635854,0.23638771669251746 l -4.559844573430358 9.09384879981258" fill="#ff700a" stroke="none" /><path d="M 109.73455568895987 81.39251694778311 l 9.816146596348105 -18.76344306466651 a42.17601307238873,42.17601307238873 0 0,0 0.6403824136103737,0.342070107503234 l -10.13767405648679 18.59169423066152" fill="#fdff18" stroke="none" /><line stroke="#e1ed5e" stroke-width="0.3" x1="143.23703022742887" x2="145.7803849466894" y1="26.81831364943548" y2="22.513508569990506" /><path d="M 143.74570117128098 25.957352633546492 a86.0,86.0 0 0,1 28.547481713284135,27.462654790039103" fill="none" id="id26" stroke="none" /><text fill="#e1ed5e" style="font-size:6.75px; font-family:Arial;" text-anchor="middle"><textPath startOffset="19.985693538727396" xlink:href="#id26">February</textPath></text><path d="M 110.68208982089419 81.91981866633111 l 2.2882245269690356 -3.872979451907068 a25.498437653309985,25.498437653309985 0 0,0 0.3759658833166331,0.2265152379872907 l -2.354552476503306 3.833017604461163" fill="#ff1f03" stroke="none" /><path d="M 111.90073688211348 82.69761687909136 l 3.223204189249249 -4.686189965524563 a26.687655196878325,26.687655196878325 0 0,0 0.3762563648249629,0.26359162852011375 l -3.3033916936578627 4.630013494240513" fill="#ff3104" stroke="none" /><path d="M 112.48926042617603 83.11751280151076 l 5.810499437177186 -7.85440282431582 a30.77003313382594,30.77003313382594 0 0,0 0.42309359125591606,0.3186653212839307 l -5.944839182191485 7.753220913526042" fill="#ff6b09" stroke="none" /><path d="M 113.06298171725822 83.55741782278167 l 16.430500544998655 -20.68133151155282 a47.41361053036765,47.41361053036765 0 0,0 0.6346573705653905,0.5131821228688487 l -16.784061314128536 20.39544329141984" fill="#beff1f" stroke="none" /><path d="M 113.89432698308785 84.25364557470407 l 3.3999379221444994 -3.8531285186577393 a26.138694119689344,26.138694119689344 0 0,0 0.33481054841836855,0.3005962161610054 l -3.465759458158858 3.7940332937274364" fill="#ff2904" stroke="none" /><path d="M 114.42810811169701 84.74124197986012 l 4.933856945428906 -5.217907202625704 a28.181190704414572,28.181190704414572 0 0,0 0.34960344730733117,0.3363182393192043 l -5.022943636348656 5.132205876544198" fill="#ff4606" stroke="none" /><path d="M 114.94478906791727 85.2469230424477 l 11.37990197126317 -11.233920317541418 a36.9907202644668,36.9907202644668 0 0,0 0.44342315247275593,0.4569865366186968 l -11.571589387439035 11.036369585372606" fill="#ffbf11" stroke="none" /><path d="M 115.4437574822437 85.77008943001954 l 6.432169438273508 -5.926614425461439 a29.746288483165152,29.746288483165152 0 0,0 0.3437202889766668,0.37954452800666744 l -6.5332333678662105 5.815017110185223" fill="#ff5c08" stroke="none" /><path d="M 115.9244219780498 86.31012108654704 l 6.7185380673017185 -5.775780919619206 a29.859932222834416,29.859932222834416 0 0,0 0.3317145366467286,0.39264538323891346 l -6.816963217435565 5.659276586751186" fill="#ff5e08" stroke="none" /><path d="M 116.15771136456269 86.58626213691792 l 9.23379673937939 -7.6656728263303355 a33.00106420716566,33.00106420716566 0 0,0 0.3590853778295526,0.4401962144860281 l -9.364380609285352 7.505592442236207" fill="#ff8a0c" stroke="none" /><path d="M 116.38621287248628 86.86637796730983 l 8.150005327610522 -6.532265287299833 a31.44476311956103,31.44476311956103 0 0,0 0.334880617065678,0.42526437601430084 l -8.261240025270165 6.3910085173324935" fill="#ff740a" stroke="none" /><path d="M 116.60985879189232 87.15038557335679 l 27.528440539455303 -21.296378923548637 a55.80446514155465,55.80446514155465 0 0,0 0.5812275794944178,0.7648273638836001 l -27.890944059173833 20.819366783784" fill="#61ff29" stroke="none" /><path d="M 116.82858285166822 87.43820079747576 l 2.3340889916726226 -1.7422950876286805 a23.912655762945967,23.912655762945967 0 0,0 0.24338231288728795,0.33197320125971624 l -2.363733917073537 1.7018594426974705" fill="#ff0801" stroke="none" /><path d="M 117.2510076193507 88.02491185347247 l 6.838595606464848 -4.7471305440739675 a29.324760553387726,29.324760553387726 0 0,0 0.2842763713710646,0.4171404971252377 l -6.919296443504646 4.6287120236783235" fill="#ff5708" stroke="none" /><path d="M 117.65298651832404 88.62581576622439 l 10.124889050796812 -6.52367537304582 a33.044572166076705,33.044572166076705 0 0,0 0.3039666398259535,0.4808022264582098 l -10.23568328686872 6.348425498873404" fill="#ff8a0c" stroke="none" /><line stroke="#e1ed5e" stroke-width="0.3" x1="172.23445277983987" x2="176.4835382374775" y1="55.19839476539836" y2="52.563006222186495" /><path d="M 173.08426987136738 54.67131705675599 a86.0,86.0 0 0,1 12.851231095245387,41.99856678651699" fill="none" id="id27" stroke="none" /><text fill="#e1ed5e" style="font-size:6.75px; font-family:Arial;" text-anchor="middle"><textPath startOffset="22.20632615414155" xlink:href="#id27">March</textPath></text><path d="M 117.84615892207809 88.93136811851018 l 12.6579727585781 -7.850789710120578 a35.894937845772986,35.894937845772986 0 0,0 0.321147225843746,0.5278815993096895 l -12.79123578270807 7.631740337603807" fill="#ffb010" stroke="none" /><path d="M 118.03404312379186 89.2402003453031 l 7.20249680297833 -4.297284978286502 a29.387050636637404,29.387050636637404 0 0,0 0.25544389474136986,0.43663641946806847 l -7.275400372190027 4.172669146464538" fill="#ff5708" stroke="none" /><path d="M 118.56541770881063 90.18545643968196 l 7.531792375946507 -3.981655867937592 a29.519476500645318,29.519476500645318 0 0,0 0.23361231106947003,0.4512646276810423 l -7.599214120176094 3.851418517996205" fill="#ff5908" stroke="none" /><path d="M 118.73160827565052 90.50648371742162 l 6.507492451072266 -3.2981143228004557 a28.29554768931189,28.29554768931189 0 0,0 0.2164474482993945,0.43634484796925477 l -6.563299912325069 3.185609886332251" fill="#ff4806" stroke="none" /><path d="M 118.89224826269711 90.83032412892265 l 14.471299901192783 -7.02389295767952 a37.08581962820677,37.08581962820677 0 0,0 0.27380249800076323,0.5766978891322779 l -14.590060593035302 6.773752652906701" fill="#ffc011" stroke="none" /><path d="M 119.196687751892 91.48605970444005 l 13.34790862526267 -5.919942990939956 a35.60179405704452,35.60179405704452 0 0,0 0.24363374058404455,0.562340263951108 l -13.447833075689395 5.689303582402245" fill="#ffad10" stroke="none" /><path d="M 119.47837535516314 92.15188598940014 l 7.612404246943964 -3.067145762182607 a29.20707509075951,29.20707509075951 0 0,0 0.18387446267085367,0.46794045135093265 l -7.664072259496518 2.9356563059358898" fill="#ff5507" stroke="none" /><path d="M 119.61058180528143 92.48833698450437 l 6.660549472331853 -2.5512656192953855 a28.132452280497837,28.132452280497837 0 0,0 0.1693244229739007,0.45370527076338035 l -6.7034784838073795 2.436237211502672" fill="#ff4606" stroke="none" /><path d="M 119.7369772167798 92.82701384747503 l 5.453279746577304 -1.9818789715574243 a26.802249930184992,26.802249930184992 0 0,0 0.15385374554520465,0.4349652568244833 l -5.486586572932318 1.8877160883063264" fill="#ff3204" stroke="none" /><path d="M 119.85752413597 93.16781622104841 l 9.218499587096487 -3.171718836345049 a30.748873525393797,30.748873525393797 0 0,0 0.16789281199482028,0.5019781380640459 l -9.271729692863078 3.0125675953586892" fill="#ff6b09" stroke="none" /><path d="M 120.08093135843002 93.85539295169968 l 16.883650841936614 -5.166264358592789 a38.6563856203724,38.6563856203724 0 0,0 0.18922135622620345,0.6379603462197659 l -16.97007809527452 4.874874625626493" fill="#ffd513" stroke="none" /><path d="M 120.28053869075195 94.5502522615342 l 9.463552375031776 -2.543027773576847 a30.79927618817598,30.79927618817598 0 0,0 0.13317558350600098,0.5131798489881406 l -9.505924290408078 2.3797514990398563" fill="#ff6b09" stroke="none" /><path d="M 120.37134235888165 94.90015583598534 l 6.892181417729459 -1.7254165465052547 a28.10487346501325,28.10487346501325 0 0,0 0.11344625822157971,0.47030798085473025 l -6.920860476211858 1.6065233339911182" fill="#ff4506" stroke="none" /><path d="M 120.45610955862082 95.25157060432595 l 8.469971563261149 -1.9661149074440216 a29.695172575154913,29.695172575154913 0 0,0 0.11129413145751665,0.49890976873789855 l -8.502560081720704 1.8200269691561592" fill="#ff5c08" stroke="none" /><path d="M 120.53481517161879 95.60439243477599 l 20.439807573480007 -4.375270585629003 a41.90284015004566,41.90284015004566 0 0,0 0.14490541689798347,0.7066102749059221 l -20.512092286292987 4.022784654559669" fill="#fffe18" stroke="none" /><path d="M 120.73433829027371 96.67025291283417 l 8.02883819381664 -1.2893587543002225 a29.131708844995586,29.131708844995586 0 0,0 0.07524873899443955,0.4957951713684216 l -8.049842826250378 1.1509644705397186" fill="#ff5407" stroke="none" /><path d="M 120.78858239683441 97.02765380044208 l 3.4865471341131813 -0.49850561841287017 a24.522004936109834,24.522004936109834 0 0,0 0.056148386116745275,0.41837069449561504 l -3.494611519287763 0.43841658185259075" fill="#ff1101" stroke="none" /><path d="M 120.83666639777658 97.38593545837742 l 10.963889535705233 -1.3754750556745547 a32.0498328213566,32.0498328213566 0 0,0 0.06396177046843073,0.547985388578559 l -10.985941659177252 1.186545928771143" fill="#ff7d0b" stroke="none" /><path d="M 120.91429891909075 98.10471618934814 l 9.883593836814246 -0.8956654709029548 a30.92409410308469,30.92409410308469 0 0,0 0.04347856384800448,0.5305486061094629 l -9.897546884481745 0.7254029475857231" fill="#ff6d0a" stroke="none" /><path d="M 120.94382443527127 98.46500227214037 l 14.459589959979539 -1.0597604942185948 a35.49837349897731,35.49837349897731 0 0,0 0.03941909953812712,0.6097960225483966 l -14.475689650522082 0.8107054074171628" fill="#ffab0f" stroke="none" /><path d="M 120.96714384426684 98.82574320788733 l 3.2741331433808503 -0.1833665620101821 a24.279263810163556,24.279263810163556 0 0,0 0.019777647549473757,0.41747488101048613 l -3.2768043991638205 0.12698057437669621" fill="#ff0d01" stroke="none" /><path d="M 120.98425023603335 99.18683210126433 l 6.874803574494499 -0.2664078780042655 a27.879963469768214,27.879963469768214 0 0,0 0.014455502896394778,0.4797077662060838 l -6.878370771846539 0.14802996437318264" fill="#ff4206" stroke="none" /><line stroke="#e1ed5e" stroke-width="0.3" x1="184.98032266829074" x2="189.97916517819016" y1="98.17113171792111" y2="98.06355123074" /><path d="M 185.9800911702706 98.14961562048488 a86.0,86.0 0 0,1 -9.607161424134198,41.387399972396054" fill="none" id="id28" stroke="none" /><text fill="#e1ed5e" style="font-size:6.75px; font-family:Arial;" text-anchor="middle"><textPath startOffset="21.466115282336823" xlink:href="#id28">April</textPath></text><path d="M 120.99513854157772 99.54816195383933 l 14.546596615738354 -0.31305846256390923 a35.54996490380624,35.54996490380624 0 0,0 0.007900544436739319,0.6119058733309061 l -14.549830167292807 0.06261633117254051" fill="#ffac0f" stroke="none" /><path d="M 120.9904718944345 100.63252640178507 l 26.57011330681167 0.800663188969815 a47.582174152596735,47.582174152596735 0 0,0 -0.03171661678280773,0.8184649495457138 l -26.55239455717766 -1.257905385529535" fill="#bcff1f" stroke="none" /><path d="M 120.95626037817324 101.35467743843564 l 4.982317570833606 0.3220724061703086 a25.992716596348487,25.992716596348487 0 0,0 -0.032705572482767176,0.4462415518290412 l -4.976035439686501 -0.40778709449612" fill="#ff2703" stroke="none" /><path d="M 120.89721153311464 102.0752229133903 l 10.233707992985373 1.0162707728892564 a31.284045194840484,31.284045194840484 0 0,0 -0.05782736353337069,0.5354095671118136 l -10.214698327950952 -1.1922766618858616" fill="#ff720a" stroke="none" /><path d="M 120.8583938346157 102.4346265915055 l 7.498083533130631 0.8751888424311048 a28.54898749367891,28.54898749367891 0 0,0 -0.06117434998791234,0.48761975938351565 l -7.481907673895869 -1.0041263561020153" fill="#ff4c07" stroke="none" /><path d="M 120.76222939487914 103.15116336523771 l 11.977775315769774 1.8179130022237135 a33.11494569524427,33.11494569524427 0 0,0 -0.09038526627012408,0.5628291393435368 l -11.944708295138362 -2.023821371260455" fill="#ff8b0c" stroke="none" /><path d="M 120.64145759157962 103.86396538481128 l 23.53157012417677 4.404978282501228 a44.94031382790034,44.94031382790034 0 0,0 -0.1488809831000817,0.7591409253193458 l -23.452259208101026 -4.809382934888518" fill="#dbff1b" stroke="none" /><path d="M 120.5718875245553 104.21870165774334 l 5.5665810690873805 1.1415454588739427 a26.68242473187263,26.68242473187263 0 0,0 -0.09614053888094459,0.4491365908183431 l -5.546106491481993 -1.2371958691084548" fill="#ff3104" stroke="none" /><path d="M 120.49622156327973 104.57218783832717 l 7.121691742189607 1.588669027187464 a28.29673643135864,28.29673643135864 0 0,0 -0.11014091532912205,0.47448418058229025 l -7.093290260929932 -1.711021865118319" fill="#ff4806" stroke="none" /><path d="M 120.41448212921028 104.9243191809786 l 11.604281734418263 2.799149484400172 a32.93710988505053,32.93710988505053 0 0,0 -0.13769074227274977,0.5500060708283837 l -11.554379677850454 -2.9984833946259517" fill="#ff890c" stroke="none" /><path d="M 120.32669344350535 105.2749913415812 l 11.763333784633863 3.052709189250827 a33.15298544074027,33.15298544074027 0 0,0 -0.14810215900994747,0.5511432290314986 l -11.70904354928214 -3.254743351457874" fill="#ff8c0c" stroke="none" /><path d="M 120.23288151984713 105.62410040840565 l 4.723062169975711 1.312861732177356 a25.902134452386164,25.902134452386164 0 0,0 -0.12310589231973242,0.42854776114079957 l -4.699763640769879 -1.3939669688227374" fill="#ff2503" stroke="none" /><path d="M 120.13307415673323 105.97154293290107 l 3.1812697577101328 0.9435761668295723 a24.318254549296945,24.318254549296945 0 0,0 -0.12248667955697902,0.4002935558240564 l -3.1645563056470207 -0.9981966952056859" fill="#ff0e01" stroke="none" /><path d="M 120.02730092923936 106.31721596034902 l 9.496843222900726 2.9955913576477853 a30.958092125621732,30.958092125621732 0 0,0 -0.16467898972308825,0.5068298155894051 l -9.44387198216139 -3.1586200732149856" fill="#ff6d0a" stroke="none" /><path d="M 119.79798401119884 107.00284435728193 l 6.732716185704802 2.381462856196567 a28.141486720053138,28.141486720053138 0 0,0 -0.16546623186524567,0.45529200517432183 l -6.690725692834329 -2.4970026583770197" fill="#ff4606" stroke="none" /><path d="M 119.67450827220406 107.3425965602758 l 6.751757014488118 2.5197797649884874 a28.206629784215014,28.206629784215014 0 0,0 -0.17367993259462722,0.45342349877206256 l -6.707382802299984 -2.635626830593694" fill="#ff4706" stroke="none" /><path d="M 119.54520255179757 107.68017299344265 l 11.292487019984666 4.437316707762207 a33.133014574354874,33.133014574354874 0 0,0 -0.21315160241747896,0.5290247967644982 l -11.214432803309794 -4.631040872369519" fill="#ff8b0c" stroke="none" /><path d="M 119.41010516605496 108.01547362559984 l 10.121403023291704 4.17967024357705 a31.950453986248327,31.950453986248327 0 0,0 -0.21429476640111234,0.5065295261215782 l -10.047957275698284 -4.353274295364791" fill="#ff7b0b" stroke="none" /><path d="M 119.26925614724726 108.34839909993367 l 9.216135892423845 3.992887945504268 a31.043919301397057,31.043919301397057 0 0,0 -0.2166553875477454,0.48850070356825803 l -9.146039420144827 -4.150936985565213" fill="#ff6f0a" stroke="none" /><path d="M 119.12269723197855 108.67885076344098 l 9.915461947702337 4.500139988138208 a31.888877148226697,31.888877148226697 0 0,0 -0.231156978211255,0.49789156637686693 l -9.83653035265125 -4.670151621793905" fill="#ff7a0b" stroke="none" /><path d="M 118.97047184881838 109.00673069616215 l 6.6774577553336245 3.170298778890705 a28.391835795098608,28.391835795098608 0 0,0 -0.21340756280886186,0.43968278861840393 l -6.621896935910049 -3.2847705234743843" fill="#ff4906" stroke="none" /><path d="M 118.81262510543309 109.33194174019688 l 5.188512150001761 2.5737446438634812 a26.791789000173594,26.791789000173594 0 0,0 -0.2084928474863797,0.4113761678121932 l -5.143440632729112 -2.6626750233783687" fill="#ff3204" stroke="none" /><path d="M 118.64920377521936 109.65438752849418 l 18.840139484434825 9.75323181975789 a42.21500381152212,42.21500381152212 0 0,0 -0.3396247147253924,0.642441969344956 l -18.66946226148454 -10.07608880418898" fill="#fdff18" stroke="none" /><line stroke="#e1ed5e" stroke-width="0.3" x1="174.80103733775053" x2="179.2010983576182" y1="140.37084112569926" y2="142.7455964860345" /><path d="M 175.68104954172406 140.8457921977663 a86.0,86.0 0 0,1 -30.038265399797805,32.042727171017184" fill="none" id="id29" stroke="none" /><text fill="#e1ed5e" style="font-size:6.75px; font-family:Arial;" text-anchor="middle"><textPath startOffset="22.206326154141568" xlink:href="#id29">May</textPath></text><path d="M 118.30583269289576 110.29060199501025 l 7.0132313970654225 3.94247965754206 a29.045406172401563,29.045406172401563 0 0,0 -0.2487503962404655,0.43371728307854895 l -6.944329004672578 -4.062616786478924" fill="#ff5307" stroke="none" /><path d="M 118.12598468904814 110.60418214915192 l 7.207203870363638 4.216405560222406 a29.349961884778818,29.349961884778818 0 0,0 -0.25886543993281624,0.43387336723968517 l -7.133557554732595 -4.339841021348196" fill="#ff5708" stroke="none" /><path d="M 117.94076556474637 110.91462005526583 l 6.406410376521761 3.897466634046395 a28.498822579306076,28.498822579306076 0 0,0 -0.2585730204374704,0.41690204038728595 l -6.338372716416328 -4.007165005798955" fill="#ff4b07" stroke="none" /><path d="M 117.75023020441432 111.22182372390056 l 20.499584692991018 12.959985486875857 a45.25271523778615,45.25271523778615 0 0,0 -0.4219172172638941,0.654824890746121 l -20.273462612350073 -13.310931977543431" fill="#d8ff1c" stroke="none" /><path d="M 117.35343817320211 111.8261652097733 l 7.411029957464124 5.050530262463692 a29.968345497497978,29.968345497497978 0 0,0 -0.294173693081234,0.4237791453943007 l -7.322995357220754 -5.177350670045012" fill="#ff6008" stroke="none" /><path d="M 116.93607887273984 112.41649034213515 l 7.828333137028624 5.739251896575973 a30.70679205693886,30.70679205693886 0 0,0 -0.3161903722976032,0.4235886747848027 l -7.728381498035929 -5.873153450870091" fill="#ff6a09" stroke="none" /><path d="M 116.498646956653 112.99209946851258 l 14.888605250102124 11.724248713543378 a39.9506879608734,39.9506879608734 0 0,0 -0.43010166423996515,0.5366179572934702 l -14.684585673807305 -11.978794504415099" fill="#ffe515" stroke="none" /><path d="M 116.27256486870786 113.27417163493432 l 6.004340993874315 4.897977273430817 a28.74869615753285,28.74869615753285 0 0,0 -0.31610423526759307,0.38076791470830307 l -5.919140758713179 -5.00060644525289" fill="#ff4e07" stroke="none" /><path d="M 116.0416608686014 113.55231037782055 l 9.06377509343086 7.657255334537186 a32.86530986542685,32.86530986542685 0 0,0 -0.3688074497650104,0.4290063846317172 l -8.93062513409507 -7.812138818330431" fill="#ff880c" stroke="none" /><path d="M 115.56566222782051 114.09645910891815 l 3.8221300150860706 3.461368920773089 a26.156525250390587,26.156525250390587 0 0,0 -0.3051016578301796,0.33112759126540664 l -3.7619819492601687 -3.5266477668398304" fill="#ff2904" stroke="none" /><path d="M 115.32070863581623 114.36230785411682 l 8.797962580677927 8.247598076325175 a33.059312567456395,33.059312567456395 0 0,0 -0.39276580483311596,0.4118133761105275 l -8.654690224465847 -8.397818569018211" fill="#ff8a0c" stroke="none" /><path d="M 114.81725581225074 114.88116024355365 l 20.799661477400104 20.88936705816678 a50.478663023706915,50.478663023706915 0 0,0 -0.621007856960996,0.6077868928643078 l -20.437003668063312 -21.24430405395366" fill="#9bff22" stroke="none" /><path d="M 114.55890576462653 115.13401014063108 l 3.64068792912536 3.7845020037238872 a26.25138686572121,26.25138686572121 0 0,0 -0.3283475536747035,0.3104731064203902 l -3.5750045410598488 -3.846609746890199" fill="#ff2a04" stroke="none" /><path d="M 114.0293411484842 115.62618273729858 l 7.567032269585009 8.428323737522495 a32.326809718249265,32.326809718249265 0 0,0 -0.41725852286976667,0.36818213261599525 l -7.420831393808654 -8.55732901191078" fill="#ff800b" stroke="none" /><path d="M 113.48314897796784 116.09983520530334 l 5.370596527648734 6.412872778503628 a29.364702286158515,29.364702286158515 0 0,0 -0.39031264640280194,0.3212007356398278 l -5.259413752701241 -6.504368633000634" fill="#ff5708" stroke="none" /><path d="M 113.20401910651253 116.32954008644616 l 8.097132289140083 10.013803012111316 a33.8778803408482,33.8778803408482 0 0,0 -0.4566133425283445,0.3627612549547249 l -7.923561453894386 -10.151698181071167" fill="#ff950d" stroke="none" /><path d="M 112.92097659922987 116.55440617244103 l 17.24353980471443 22.092491197214237 a49.025306997350796,49.025306997350796 0 0,0 -0.6697120073488972,0.5135066092501168 l -16.86069906887204 -22.386037148291724" fill="#abff21" stroke="none" /><path d="M 112.34349029814194 116.9893568818739 l 4.519912563717739 6.221125934811605 a28.68973455201407,28.68973455201407 0 0,0 -0.40202880237749355,0.28683687596959623 l -4.4121564334913606 -6.2980070726254205" fill="#ff4e07" stroke="none" /><path d="M 111.45004920935366 117.60387380957326 l 12.781781891956827 19.651345716810052 a44.442468658721594,44.442468658721594 0 0,0 -0.6448775696319722,0.4115913762653068 l -12.441622520277924 -19.868451521899168" fill="#e1ff1b" stroke="none" /><path d="M 111.1453310114006 117.79835938074945 l 12.895366608459904 20.593050938470327 a45.297411938743934,45.297411938743934 0 0,0 -0.6644069079222713,0.4081329886493461 l -12.538980500605323 -20.81197239394805" fill="#d7ff1c" stroke="none" /><line stroke="#e1ed5e" stroke-width="0.3" x1="143.8653032363475" x2="146.44561519142675" y1="172.8068346515853" y2="177.08958963109032" /><path d="M 144.38136562736335 173.6633856474863 a86.0,86.0 0 0,1 -40.68145358897372,12.25698825130547" fill="none" id="id30" stroke="none" /><text fill="#e1ed5e" style="font-size:6.75px; font-family:Arial;" text-anchor="middle"><textPath startOffset="21.466115282336833" xlink:href="#id30">June</textPath></text><path d="M 110.8373102113329 117.98757091392108 l 8.524097049644368 14.148141666857876 a37.51757073958625,37.51757073958625 0 0,0 -0.5560320673868907,0.3285135462697794 l -8.279297111229095 -14.292773785421405" fill="#ffc612" stroke="none" /><path d="M 110.21172684928248 118.3499491758327 l 3.697803845572602 6.644763773056036 a28.604382873057446,28.604382873057446 0 0,0 -0.4323037430706455,0.23572646937263358 l -3.582877290633308 -6.70743089418844" fill="#ff4c07" stroke="none" /><path d="M 109.57404056367764 118.69057910512821 l 11.78297874147617 23.00289985161794 a46.84515408361196,46.84515408361196 0 0,0 -0.7208489755294372,0.36144864090971757 l -11.385275858263972 -23.202316333436958" fill="#c5ff1e" stroke="none" /><path d="M 108.92500713936063 119.00905698771935 l 11.190832523668506 23.834958321128823 a47.331349580732564,47.331349580732564 0 0,0 -0.7404696733709991,0.3399133093005885 l -10.778894854530087 -24.024058700763486" fill="#bfff1e" stroke="none" /><path d="M 108.59647513512805 119.15986991738527 l 5.534508443947908 12.33534212288893 a34.520038794502355,34.520038794502355 0 0,0 -0.5442319597558098,0.23857529765394564 l -5.321355809534345 -12.42878197383733" fill="#ff9e0e" stroke="none" /><path d="M 108.2653958097858 119.30500536409082 l 2.848249918768466 6.6524920554919476 a28.236586083793107,28.236586083793107 0 0,0 -0.44846225453818167,0.1874572587683257 l -2.733316204732823 -6.7005343572802465" fill="#ff4706" stroke="none" /><path d="M 107.59598834532513 119.57807347666477 l 1.4557549158408045 3.7520958972887026 a25.02460507347558,25.02460507347558 0 0,0 -0.40293162805026694,0.15235426423973028 l -1.3909530670302628 -3.7765984116350637" fill="#ff1802" stroke="none" /><path d="M 106.91757812671514 119.82793768551818 l 4.447741733213146 12.748615817846403 a34.50220766380111,34.50220766380111 0 0,0 -0.5624357125621089,0.19080873064259757 l -4.22763628771381 -12.823287535387124" fill="#ff9e0e" stroke="none" /><path d="M 106.2309692047433 120.05430185196036 l 15.711619313743912 50.56766386536668 a73.95227672405335,73.95227672405335 0 0,0 -1.2188920795864275,0.3672421848551974 l -14.838852259717239 -50.830621419327606" fill="#40ffc8" stroke="none" /><path d="M 105.18746579009965 120.34920634021253 l 1.8161983602020313 7.1245183451699985 a28.35236955914652,28.35236955914652 0 0,0 -0.4739526763564265,0.11648603663708396 l -1.6932923991023936 -7.154725640121113" fill="#ff4906" stroke="none" /><path d="M 104.83641907484287 120.43548508189849 l 2.7762877220400255 11.730742404420404 a33.05479534767875,33.05479534767875 0 0,0 -0.5548166345713963,0.12627445970056905 l -2.5739509380757672 -11.776793597698656" fill="#ff8a0c" stroke="none" /><path d="M 104.48393922423573 120.51570834832081 l 2.5334918244427906 11.591677936264333 a32.86530986542685,32.86530986542685 0 0,0 -0.5537155834836819,0.11603648419478117 l -2.333584779529731 -11.633570401185654" fill="#ff880c" stroke="none" /><path d="M 104.13013068566511 120.58985236759428 l 4.307221342720674 21.472698640984586 a42.90043247567796,42.90043247567796 0 0,0 -0.7252877560831176,0.1390031246527377 l -3.9369659720658525 -21.54365896398579" fill="#f4ff19" stroke="none" /><path d="M 103.41894727170886 120.7198165907248 l 1.9668630040599961 11.9197628581256 a33.08094767270724,33.08094767270724 0 0,0 -0.5626346717397294,0.08787196455930628 l -1.7613924687117497 -11.951853130032012" fill="#ff8b0c" stroke="none" /><path d="M 103.06178313531738 120.77559828337769 l 1.1695820696422865 7.93614902311194 a29.02186907987592,29.02186907987592 0 0,0 -0.494852454658216,0.06858204110979262 l -1.0328010237972403 -7.955105629714335" fill="#ff5207" stroke="none" /><path d="M 102.70371172650421 120.8252237178851 l 0.9998956238214827 7.701653196415295 a28.766289539824747,28.766289539824747 0 0,0 -0.4915920217336681,0.05952494773745489 l -0.8671761790364343 -7.717723672878101" fill="#ff4f07" stroke="none" /><path d="M 102.34483914955558 120.86867818915974 l 0.9291362966471312 8.269158407847101 a29.321194327247476,29.321194327247476 0 0,0 -0.5020450337462337,0.052039020486092734 l -0.7866586662952948 -8.283926796788952" fill="#ff5608" stroke="none" /><path d="M 101.98527174616119 120.90594882070398 l 1.3944086759131458 14.683851956365336 a35.74991131606953,35.74991131606953 0 0,0 -0.6131206524151619,0.052902629767539656 l -1.1414437057564422 -14.70567883841154" fill="#ffaf10" stroke="none" /><path d="M 101.26447882468166 120.96189622390904 l 0.4633963253335508 7.68195203634836 a28.695916010657168,28.695916010657168 0 0,0 -0.493312765126281,0.025498635137832727 l -0.3310954917937902 -7.688790478248394" fill="#ff4e07" stroke="none" /><line stroke="#e1ed5e" stroke-width="0.3" x1="102.19456741930631" x2="102.32365962044197" y1="184.97166512339345" y2="189.96999836594603" /><path d="M 102.22038585953345 185.97133177190398 a86.0,86.0 0 0,1 -42.740103519485714,-10.115201625700543" fill="none" id="id31" stroke="none" /><text fill="#e1ed5e" style="font-size:6.75px; font-family:Arial;" text-anchor="middle"><textPath startOffset="22.20632615414155" xlink:href="#id31">July</textPath></text><path d="M 100.54218724476979 120.99299961872073 l 0.23298505274786963 9.02097046857001 a30.023978625285864,30.023978625285864 0 0,0 -0.516756006903773,0.008896423293612666 l -0.07766935595142874 -9.023644369142781" fill="#ff6008" stroke="none" /><path d="M 100.18074693466247 120.99922214144158 l 0.06900122991574924 8.016579411094286 a29.01687636327957,29.01687636327957 0 0,0 -0.49949632915640385,0.0 l 0.06900122991574371 -8.016579411094286" fill="#ff5207" stroke="none" /><path d="M 99.81925306533755 120.99922214144158 l -0.06204790312886063 7.208740240308448 a28.209007268308515,28.209007268308515 0 0,0 -0.4855177302322578,-0.0083586280314 l 0.18612532325378633 -7.206604134997889" fill="#ff4706" stroke="none" /><path d="M 99.45781275523022 120.99299961872073 l -0.7428255389999656 28.76153286052271 a49.77112375748153,49.77112375748153 0 0,0 -0.8562520994219404,-0.029491053594008346 l 1.237797990096549 -28.744485008502608" fill="#a3ff22" stroke="none" /><path d="M 99.09653310690486 120.98055641714683 l -0.4510140443359683 10.47357205276134 a31.48327836187572,31.48327836187572 0 0,0 -0.5412304349569791,-0.027975431332951845 l 0.6312325477064363 -10.464256814666186" fill="#ff750a" stroke="none" /><path d="M 98.73552117531835 120.96189622390904 l -0.14315610915463256 2.373170230567921 a23.37748409349928,23.37748409349928 0 0,0 -0.4014662534959075,-0.027687463354739896 l 0.1839851234294701 -2.3703544226968964" fill="#ff0000" stroke="none" /><path d="M 98.37488393609728 120.93702456842531 l -0.29627124425847545 3.816981726868809 a24.828462635761888,24.828462635761888 0 0,0 -0.42581485238149824,-0.036741097198931816 l 0.36193041438151535 -3.8113163773912135" fill="#ff1602" stroke="none" /><path d="M 97.65516085044442 120.86867818915974 l -2.7204314363287976 24.21138703316994 a45.36374374495257,45.36374374495257 0 0,0 -0.7752287437041689,-0.09386940473693757 l 3.136787603084356 -24.160972099707656" fill="#d6ff1c" stroke="none" /><path d="M 97.2962882734958 120.8252237178851 l -1.8582521132356047 14.313107275086628 a35.43323043481543,35.43323043481543 0 0,0 -0.6041727019331437,-0.08373283125373199 l 2.104353406355579 -14.27899987834029" fill="#ffaa0f" stroke="none" /><path d="M 96.93821686468263 120.77559828337769 l -1.8002502826493547 12.215521161652552 a33.34746363958851,33.34746363958851 0 0,0 -0.5671675262704765,-0.08857990321414724 l 2.010253672528348 -12.182722951091298" fill="#ff8e0d" stroke="none" /><path d="M 96.58105272829116 120.7198165907248 l -1.8072348891951195 10.952369973745112 a32.10047323254813,32.10047323254813 0 0,0 -0.5444103122859975,-0.09465271108132249 l 1.995494172953167 -10.919638684142784" fill="#ff7d0b" stroke="none" /><path d="M 96.22490169976321 120.6578951692458 l -1.2601658961131752 6.8958138059959335 a28.010011849682627,28.010011849682627 0 0,0 -0.4735457772794244,-0.09075617526404821 l 1.3786792879642946 -6.873100432383417" fill="#ff4406" stroke="none" /><path d="M 95.86986931433489 120.58985236759428 l -1.5093230027539242 7.524395755703044 a28.674280905406324,28.674280905406324 0 0,0 -0.48310502008119294,-0.10123935410014374 l 1.6386194842645039 -7.49730042087636" fill="#ff4d07" stroke="none" /><path d="M 95.16358092515715 120.4354850818985 l -4.052403248425798 17.122756495565525 a38.59575977598817,38.59575977598817 0 0,0 -0.6451864139143223,-0.15857112323267794 l 4.346542947083331 -17.050464114018816" fill="#ffd413" stroke="none" /><path d="M 94.81253420990036 120.34920634021253 l -2.128930980026627 8.35129474575303 a29.618379838934885,29.618379838934885 0 0,0 -0.4929479439117736,-0.1301920323212419 l 2.27236936674989 -8.313411364128207" fill="#ff5b08" stroke="none" /><path d="M 94.46302465271185 120.25689768951611 l -1.3711946904355066 5.016484418729392 a26.200508706120324,26.200508706120324 0 0,0 -0.43401620755537956,-0.12265731552586978 l 1.4573420660954999 -4.992138309865001" fill="#ff2a04" stroke="none" /><path d="M 94.11515582081647 120.15858648285463 l -6.808347158009469 23.32205421436886 a45.295509951469136,45.295509951469136 0 0,0 -0.7465671209378264,-0.22493454935509014 l 7.2087892533875415 -23.20140429590804" fill="#d7ff1c" stroke="none" /><path d="M 93.76903079525671 120.05430185196036 l -1.4669417019688222 4.721334791402366 a25.943978172431752,25.943978172431752 0 0,0 -0.42533132896165743,-0.1361776600128505 l 1.54799437602142 -4.695384284729809" fill="#ff2603" stroke="none" /><path d="M 93.42475214034765 119.94407469862007 l -2.982466683111238 9.046432862115882 a30.525390020604863,30.525390020604863 0 0,0 -0.4976078532356669,-0.1688156009887091 l 3.1377442692841306 -8.993754274229051" fill="#ff6709" stroke="none" /><path d="M 92.7421414339146 119.70592522655815 l -3.737529017423115 10.147823449411185 a31.814224147690823,31.814224147690823 0 0,0 -0.5122541232257892,-0.1936906775610513 l 3.911653361409187 -10.0819845217435" fill="#ff790b" stroke="none" /><path d="M 92.40401165467489 119.57807347666478 l -4.440878063210007 11.446020329394411 a33.277327858830276,33.277327858830276 0 0,0 -0.5322453844488672,-0.21179142276507515 l 4.637244523700732 -11.36788206222327" fill="#ff8d0d" stroke="none" /><path d="M 92.06813273071674 119.44442032107085 l -4.533795536649935 11.114284073538508 a33.00344169125916,33.00344169125916 0 0,0 -0.5241709399450606,-0.21910349540855809 l 4.724437936092457 -11.034595535109977" fill="#ff8a0c" stroke="none" /><path d="M 91.7346041902142 119.30500536409082 l -6.219118793983536 14.525634880742832 a36.80099703380556,36.80099703380556 0 0,0 -0.5801928223749874,-0.2543394830338528 l 6.468232291016266 -14.416430844414526" fill="#ffbc11" stroke="none" /><path d="M 91.40352486487194 119.15986991738527 l -6.225701560674975 13.87587705099762 a36.20852799770554,36.20852799770554 0 0,0 -0.5664600130189384,-0.26003400886784117 l 6.463629569461333 -13.766655971795705" fill="#ffb510" stroke="none" /><path d="M 90.7491055286396 118.85261126421891 l -5.333090775091619 10.86842872663414 a33.10638675250768,33.10638675250768 0 0,0 -0.5094380718960039,-0.2554428250095475 l 5.519382754670382 -10.775018060715288" fill="#ff8b0c" stroke="none" /><path d="M 90.42595943632237 118.69057910512821 l -4.90784021815597 9.581155962591609 a31.765010226955383,31.765010226955383 0 0,0 -0.48450579795393883,-0.2534705343313299 l 5.072036918636404 -9.495256009315563" fill="#ff790b" stroke="none" /><path d="M 90.10565033884886 118.52300852407294 l -6.742328720438289 12.622174942041651 a35.31007675877216,35.31007675877216 0 0,0 -0.5336482321143607,-0.2909875652469405 l 6.95859976442129 -12.504246725034944" fill="#ffa90f" stroke="none" /><line stroke="#e1ed5e" stroke-width="0.3" x1="58.666819895761336" x2="56.23545636021788" y1="174.27360380694188" y2="178.64263932499728" /><path d="M 58.180547188652646 175.14741091055294 a86.0,86.0 0 0,1 -31.652253787137756,-30.449443065178592" fill="none" id="id32" stroke="none" /><text fill="#e1ed5e" style="font-size:6.75px; font-family:Arial;" text-anchor="middle"><textPath startOffset="22.20632615414155" xlink:href="#id32">August</textPath></text><path d="M 89.7882731507175 118.34994917583269 l -3.607049553911684 6.4816829676207055 a28.41775037171775,28.41775037171775 0 0,0 -0.4253883271749903,-0.24154659412333365 l 3.7180866480078816 -6.418633207702739" fill="#ff4a06" stroke="none" /><path d="M 89.1626897886671 117.98757091392108 l -12.85651001718653 21.33900212599308 a45.91270482214155,45.91270482214155 0 0,0 -0.6734318129803708,-0.41367682245016757 l 13.221921030099208 -21.114536836714535" fill="#d0ff1d" stroke="none" /><path d="M 88.8546689885994 117.79835938074946 l -5.032319723268533 8.036283073328965 a30.481882061693824,30.481882061693824 0 0,0 -0.44230400819321675,-0.28229934491876 l 5.169905533508674 -7.9484692995864" fill="#ff6709" stroke="none" /><path d="M 88.54995079064634 117.60387380957326 l -5.974778495184503 9.18592092892124 a31.95806193534753,31.95806193534753 0 0,0 -0.45856060192169307,-0.30390896240833865 l 6.132013795846158 -9.081713945421583" fill="#ff7b0b" stroke="none" /><path d="M 88.24862548938628 117.40417183066458 l -6.580363506028225 9.745734600127944 a32.75927407485679,32.75927407485679 0 0,0 -0.4646249641879967,-0.31957328704511756 l 6.747145354839112 -9.631020523717725" fill="#ff860c" stroke="none" /><path d="M 87.95078237400918 117.19931262002967 l -6.110503811582115 8.722264680039052 a31.64970224842067,31.64970224842067 0 0,0 -0.4435067834966592,-0.3164303141894207 l 6.259737922927661 -8.615790104005411" fill="#ff770b" stroke="none" /><path d="M 87.65650970185807 116.9893568818739 l -5.24057757395433 7.213036225617428 a29.91580309903165,29.91580309903165 0 0,0 -0.4139991429798804,-0.30626666865485047 l 5.363961687352775 -7.121759608222811" fill="#ff5f08" stroke="none" /><path d="M 87.36589467227662 116.77436683061367 l -6.213304491531349 8.249436431604238 a31.327553153751516,31.327553153751516 0 0,0 -0.42795119078117033,-0.32813472431606355 l 6.354384410806006 -8.141262365460808" fill="#ff730a" stroke="none" /><path d="M 87.07902340077011 116.55440617244103 l -5.928115938394381 7.595125517629305 a30.63475428890583,30.63475428890583 0 0,0 -0.41290179351997974,-0.3280341567790853 l 6.0579752246317184 -7.491957446845089" fill="#ff6909" stroke="none" /><path d="M 86.79598089348748 116.32954008644616 l -8.855481661491874 10.951661127542407 a35.08397802148038,35.08397802148038 0 0,0 -0.4663326797750848,-0.38376004768768734 l 9.042684469811647 -10.797605960997538" fill="#ffa60f" stroke="none" /><path d="M 86.51685102203217 116.09983520530335 l -17.05530369878046 20.36524104090642 a47.56362977666745,47.56362977666745 0 0,0 -0.6231617433747009,-0.5310719569092325 l 17.403330918732216 -20.06864469377423" fill="#bcff1f" stroke="none" /><path d="M 86.24171649860922 115.8653595955263 l -10.27938262463809 11.85366631988666 a36.68996852663914,36.68996852663914 0 0,0 -0.4735760257505789,-0.4178757809845312 l 10.481901003295256 -11.67496739712984" fill="#ffbb11" stroke="none" /><path d="M 85.70375840098266 115.38237550388516 l -5.438253919757829 5.85141649291519 a28.98834655415758,28.98834655415758 0 0,0 -0.36258094571607796,-0.34284291533610445 l 5.5381706998647235 -5.756938940833154" fill="#ff5207" stroke="none" /><path d="M 85.18274418774928 114.88116024355367 l -5.993756841928084 6.019606947184066 a29.494750666072925,29.494750666072925 0 0,0 -0.35668897349041784,-0.3613240469770182 l 6.096486440474035 -5.915542406226383" fill="#ff5908" stroke="none" /><path d="M 84.9287848128048 114.62390073753433 l -9.479328314776811 9.197981357971255 a34.208350629844595,34.208350629844595 0 0,0 -0.4064171128703685,-0.426126718010376 l 9.636251979026138 -9.033447523378378" fill="#ff9a0e" stroke="none" /><path d="M 84.67929136418377 114.36230785411682 l -8.734306009357049 8.187923599381554 a32.97205890122497,32.97205890122497 0 0,0 -0.38460115541102163,-0.41740859454794427 l 8.8739535727638 -8.036363750032265" fill="#ff890c" stroke="none" /><path d="M 84.43433777217949 114.09645910891817 l -9.777632060354804 8.854746332250182 a34.1912327443714,34.1912327443714 0 0,0 -0.3913123909392202,-0.4396436194943923 l 9.928603300942363 -8.685128543014924" fill="#ff9a0e" stroke="none" /><path d="M 84.19399662182784 113.82643327865904 l -5.497558766699434 4.8090353813442555 a28.304106632048487,28.304106632048487 0 0,0 -0.3176226065595059,-0.3694668483627857 l 5.579523882829719 -4.713691433819939" fill="#ff4806" stroke="none" /><path d="M 83.72743513129214 113.27417163493432 l -8.933741648746535 7.2876046858272145 a32.52913361460605,32.52913361460605 0 0,0 -0.35020259269697834,-0.43693158049972325 l 9.057862153498375 -7.132745271749232" fill="#ff830c" stroke="none" /><path d="M 83.50135304334701 112.99209946851258 l -9.2177518283668 7.258652721332004 a32.73264625300959,32.73264625300959 0 0,0 -0.34477324788467895,-0.4456658987924679 l 9.341331893469548 -7.098908828426283" fill="#ff860c" stroke="none" /><path d="M 83.28015986056508 112.70617746262583 l -10.559420826061425 8.024590773570523 a34.262557267176376,34.262557267176376 0 0,0 -0.35280438015434895,-0.4726391216845599 l 10.695986472910858 -7.841638772376656" fill="#ff9b0e" stroke="none" /><path d="M 83.06392112726016 112.41649034213515 l -17.799161485019276 13.049249376877333 a43.07018483995381,43.07018483995381 0 0,0 -0.43320444687219084,-0.6016830875738236 l 18.021145724267075 -12.740932683852371" fill="#f2ff19" stroke="none" /><path d="M 82.6465618267979 111.8261652097733 l -9.271547790484254 6.318451411541985 a32.2198229340418,32.2198229340418 0 0,0 -0.3083849692361205,-0.46099368678591723 l 9.378935865131105 -6.157920810550247" fill="#ff7f0b" stroke="none" /><path d="M 82.44556493220864 111.52570212397912 l -8.2942132012922 5.4457252735104245 a30.922192115809892,30.922192115809892 0 0,0 -0.288305468095059,-0.4474564889082817 l 8.386723532764304 -5.3021471846806945" fill="#ff6d0a" stroke="none" /><path d="M 82.24976979558568 111.22182372390057 l -8.677105847060666 5.48572898086279 a31.265738567320536,31.265738567320536 0 0,0 -0.2836775601891384,-0.45737855192644844 l 8.770248046917759 -5.335554097571078" fill="#ff720a" stroke="none" /><path d="M 82.05923443525364 110.91462005526583 l -5.090842702423558 3.097114984171044 a26.958926131946594,26.958926131946594 0 0,0 -0.2377766042988191,-0.3985272656895477 l 5.143400182420608 -3.0090256245953855" fill="#ff3505" stroke="none" /><line stroke="#e1ed5e" stroke-width="0.3" x1="26.63291911575756" x2="22.317208475507996" y1="142.92168965132927" y2="145.44649492493687" /><path d="M 25.769776987707644 143.4266507060508 a86.0,86.0 0 0,1 -11.730757126820373,-40.83630448921669" fill="none" id="id33" stroke="none" /><text fill="#e1ed5e" style="font-size:6.75px; font-family:Arial;" text-anchor="middle"><textPath startOffset="21.46611528233685" xlink:href="#id33">September</textPath></text><path d="M 81.87401531095188 110.60418214915194 l -11.384882649238463 6.660458531237126 a34.19004400232465,34.19004400232465 0 0,0 -0.2928100554895465,-0.5105390127790586 l 11.497844700880385 -6.46349967259976" fill="#ff9a0e" stroke="none" /><path d="M 81.69416730710424 110.29060199501025 l -8.135887262251687 4.573579311942336 a30.33328930585012,30.33328930585012 0 0,0 -0.2519448206605854,-0.457353031819057 l 8.21340849236379 -4.432855761725456" fill="#ff6509" stroke="none" /><path d="M 81.35079622478065 109.6543875284942 l -13.071741572740228 6.767026642888297 a35.71947951967274,35.71947951967274 0 0,0 -0.27796785036414867,-0.5484569395852702 l 13.186288092890644 -6.541015491600342" fill="#ffae10" stroke="none" /><path d="M 81.18737489456691 109.33194174019688 l -8.717876085705512 4.324474190822218 a30.73151789151125,30.73151789151125 0 0,0 -0.2309938104029309,-0.4759156675366621 l 8.791023152723163 -4.173769567320271" fill="#ff6a09" stroke="none" /><path d="M 81.02952815118164 109.00673069616217 l -18.844257853099855 8.946807280520082 a41.86028318477203,41.86028318477203 0 0,0 -0.3034379831902515,-0.6535784206815379 l 18.995470453129933 -8.621108792559717" fill="#fffd17" stroke="none" /><path d="M 80.87730276802145 108.67885076344099 l -2.8748344804266233 1.3047458275652255 a24.157061127757693,24.157061127757693 0 0,0 -0.16859203214115867,-0.3801305254816744 l 2.8968675972990616 -1.2550669655908553" fill="#ff0c01" stroke="none" /><path d="M 80.73074385275274 108.34839909993369 l -7.075826531997518 3.0655995955222064 a28.71136965726491,28.71136965726491 0 0,0 -0.19256991642146395,-0.4551783981866274 l 7.127547429611289 -2.94334667166942" fill="#ff4e07" stroke="none" /><path d="M 80.58989483394504 108.01547362559985 l -11.29903603316644 4.665978084288526 a33.2245477119546,33.2245477119546 0 0,0 -0.21374045420789306,-0.5304862786169168 l 11.37767910163172 -4.470792437828805" fill="#ff8d0d" stroke="none" /><path d="M 80.45479744820244 107.68017299344265 l -9.253409013809076 3.636072934869595 a30.942162982195285,30.942162982195285 0 0,0 -0.19052374644513412,-0.49739738161888497 l 9.314627039847718 -3.476251986417552" fill="#ff6d0a" stroke="none" /><path d="M 80.32549172779594 107.34259656027581 l -7.147124152938778 2.6673321892051276 a28.628633210811138,28.628633210811138 0 0,0 -0.16833055438644193,-0.46317339057509155 l 7.191978968330444 -2.543911001623919" fill="#ff4d07" stroke="none" /><path d="M 80.20201598880116 107.00284435728193 l -12.985772852220299 4.593262934836021 a34.77419184409743,34.77419184409743 0 0,0 -0.1947506574954791,-0.5660365714439068 l 13.062914340659008 -4.369053660302818" fill="#ffa20e" stroke="none" /><path d="M 80.0844068197444 106.66101706037122 l -8.481559803102899 2.8367628338099107 a29.943381914516237,29.943381914516237 0 0,0 -0.1592813233633981,-0.49021750669502046 l 8.529133377482546 -2.690346427137087" fill="#ff5f08" stroke="none" /><path d="M 79.97269907076064 106.31721596034903 l -10.926868057730255 3.4466644074910415 a32.45757134339173,32.45757134339173 0 0,0 -0.163482956076337,-0.5342717595180055 l 10.984577786312721 -3.2580656754209882" fill="#ff820c" stroke="none" /><path d="M 79.86692584326677 105.97154293290107 l -6.976820664451488 2.069350353979105 a28.277241061791944,28.277241061791944 0 0,0 -0.13439413650063983,-0.467843620013052 l 7.011407437838232 -1.9489492584614572" fill="#ff4806" stroke="none" /><path d="M 79.76711848015287 105.62410040840567 l -11.423859379263234 3.17547118226632 a32.85698867109961,32.85698867109961 0 0,0 -0.14677987204058873,-0.5462225073156892 l 11.476827327645598 -2.9783577417750924" fill="#ff880c" stroke="none" /><path d="M 79.67330655649465 105.27499134158121 l -12.039944837886786 3.124492675086842 a33.438759028778875,33.438759028778875 0 0,0 -0.1397878431781306,-0.5583829464996123 l 12.091943995359975 -2.9167818891898376" fill="#ff900d" stroke="none" /><path d="M 79.58551787078972 104.9243191809786 l -9.879205376281318 2.3830318212010866 a31.16255575766267,31.16255575766267 0 0,0 -0.12129569865661269,-0.5225386952093178 l 9.918761640868485 -2.212624468643195" fill="#ff700a" stroke="none" /><path d="M 79.50377843672027 104.57218783832718 l -14.182819750883677 3.1638278195798506 a35.531420527876946,35.531420527876946 0 0,0 -0.12802471855847372,-0.5980888634817779 l 14.235178508166591 -2.919225136681909" fill="#ffac0f" stroke="none" /><path d="M 79.4281124754447 104.21870165774334 l -16.16616564861274 3.315214986459067 a37.502592589797196,37.502592589797196 0 0,0 -0.1242408514313555,-0.633501424790171 l 16.220836433019763 -3.036449834600941" fill="#ffc612" stroke="none" /><path d="M 79.29508885075956 103.50808413554451 l -9.745730558680313 1.65124315268805 a30.884627867132604,30.884627867132604 0 0,0 -0.08429774697849673,-0.5249221509035908 l 9.772710060020101 -1.4832417720912454" fill="#ff6c0a" stroke="none" /><path d="M 79.23777060512086 103.15116336523772 l -14.608998050324931 2.2172637910631856 a35.776301389507374,35.776301389507374 0 0,0 -0.08716801960525296,-0.6096529260966238 l 14.645000120946783 -1.9654653929861614" fill="#ffaf10" stroke="none" /><path d="M 79.18660465613746 102.79330883721812 l -8.668333887616757 1.163353371816735 a29.746050734755798,29.746050734755798 0 0,0 -0.06373939947289026,-0.5080657275534709 l 8.687074796336496 -1.0139698899758554" fill="#ff5c08" stroke="none" /><path d="M 79.10278846688536 102.07522291339032 l -9.917394242601114 0.9848588526157072 a30.96617557153963,30.96617557153963 0 0,0 -0.04810876094173561,-0.530876168153667 l 9.932877599819925 -0.814001295913474" fill="#ff6e0a" stroke="none" /><path d="M 79.07016306316243 101.71520430193888 l -13.731725226917733 1.1253176149116566 a34.777758070237674,34.777758070237674 0 0,0 -0.04375943095975539,-0.5970626684160599 l 13.749061216541824 -0.8887818099988359" fill="#ffa20e" stroke="none" /><path d="M 79.04373962182676 101.35467743843564 l -9.797846129653115 0.633363055124535 a30.818296060923974,30.818296060923974 0 0,0 -0.029664296324746823,-0.5296759382255064 l 9.807296776865394 -0.464615400563591" fill="#ff6b09" stroke="none" /><path d="M 79.0235259727143 100.99374915477108 l -10.371554159770499 0.4913467900528781 a31.383186281539402,31.383186281539402 0 0,0 -0.020918936775000195,-0.5398248069566778 l 10.3784752293967 -0.31274473608220366" fill="#ff730a" stroke="none" /><path d="M 79.0095281055655 100.63252640178507 l -9.824059853531006 0.2960379957785886 a30.82851924252602,30.82851924252602 0 0,0 -0.01141820429440042,-0.5305590865885185 l 9.827700120510414 -0.1268890933999413" fill="#ff6c09" stroke="none" /><line stroke="#e1ed5e" stroke-width="0.3" x1="15.007084014347285" x2="10.007500721073583" y1="101.09737516637583" y2="101.16192664675087" /><path d="M 14.007167355692545 101.11028546245083 a86.0,86.0 0 0,1 10.666146001902534,-42.60595125391555" fill="none" id="id34" stroke="none" /><text fill="#e1ed5e" style="font-size:6.75px; font-family:Arial;" text-anchor="middle"><textPath startOffset="22.20632615414155" xlink:href="#id34">October</textPath></text><path d="M 79.00175016825051 100.2711162175752 l -23.118392685517087 0.29849017092075697 a44.120319564052444,44.120319564052444 0 0,0 -0.0032684809873233154,-0.7594798733823765 l 23.120105463793912 0.09949918066529494" fill="#e5ff1a" stroke="none" /><path d="M 79.00486145842228 99.54816195383935 l -10.19728331201149 -0.2194565450816795 a31.19964450952126,31.19964450952126 0 0,0 0.016176726775948735,-0.5368268071913286 l 10.191994890779895 0.3949534996980025" fill="#ff710a" stroke="none" /><path d="M 79.01574976396665 99.18683210126434 l -14.665915027447264 -0.5683239177841257 a35.6769225543991,35.6769225543991 0 0,0 0.02906206734469874,-0.6134543087745037 l 14.653959351869066 0.8206893331816385" fill="#ffae10" stroke="none" /><path d="M 79.05617556472873 98.46500227214037 l -10.912388067596636 -0.7997818612857587 a31.94165729510238,31.94165729510238 0 0,0 0.04490923425231545,-0.5480064087973345 l 10.897004349524822 0.9875021872908716" fill="#ff7b0b" stroke="none" /><path d="M 79.08570108090925 98.10471618934814 l -9.746736061966883 -0.8832632227552355 a30.786675522480433,30.786675522480433 0 0,0 0.05237088287388454,-0.5273676435094847 l 9.73008805341077 1.0509063969691506" fill="#ff6b09" stroke="none" /><path d="M 79.12142395522702 97.74499172005258 l -10.377988436133512 -1.1208834262688405 a31.438343912508586,31.438343912508586 0 0,0 0.06274142359642877,-0.5375302018325082 l 10.357156659533494 1.2993573664262106" fill="#ff740a" stroke="none" /><path d="M 79.16333360222342 97.38593545837743 l -8.943648341484876 -1.1220256424852963 a30.01375544368382,30.01375544368382 0 0,0 0.06872292595390651,-0.5120656219632806 l 8.923009416473136 1.2758096065132363" fill="#ff6008" stroke="none" /><path d="M 79.21141760316559 97.0276538004421 l -9.98893165019789 -1.4282148951450624 a31.09051798962964,31.09051798962964 0 0,0 0.08030844623127435,-0.5291323202706315 l 9.962867310527313 1.599946327807786" fill="#ff6f0a" stroke="none" /><path d="M 79.26566170972629 96.67025291283419 l -17.02715572396233 -2.7344071163909707 a38.24531862060637,38.24531862060637 0 0,0 0.10997921890782716,-0.6491035755606384 l 16.97756464353428 3.0270964802674367" fill="#ffcf13" stroke="none" /><path d="M 79.32604984820605 96.31383870115002 l -2.353209922329514 -0.41957687234764546 a23.390322507604175,23.390322507604175 0 0,0 0.07408525567181724,-0.3957663981986844 l 2.3456389427478355 0.46002134800890254" fill="#ff0000" stroke="none" /><path d="M 79.3925641242962 95.95851677861259 l -9.107956901326114 -1.7862316893693602 a30.281460152611835,30.281460152611835 0 0,0 0.10471718842879559,-0.510638200331321 l 9.075860416982325 1.9427455458640837" fill="#ff6409" stroke="none" /><path d="M 79.46518482838121 95.60439243477599 l -9.412726672373282 -2.0148539066304223 a30.625957597759886,30.625957597759886 0 0,0 0.11478260792291888,-0.5145479247108085 l 9.376649677448325 2.17658000089119" fill="#ff6909" stroke="none" /><path d="M 79.54389044137918 95.25157060432595 l -15.371610000270572 -3.5681762739367664 a36.78031292219212,36.78031292219212 0 0,0 0.1484649586640569,-0.615483102145097 l 15.3079122413457 3.83224460774126" fill="#ffbc11" stroke="none" /><path d="M 79.71946130924805 94.55025226153421 l -11.595187871302612 -3.1158368050417096 a33.00653242058071,33.00653242058071 0 0,0 0.15216519028773964,-0.5474191502583081 l 11.539835910448511 3.3149672587189603" fill="#ff8a0c" stroke="none" /><path d="M 79.81627453868168 94.20196356495316 l -11.244833273661337 -3.230223932230253 a32.69959922410995,32.69959922410995 0 0,0 0.16006314128805266,-0.539653340773437 l 11.187564235261577 3.4233066597502293" fill="#ff850c" stroke="none" /><path d="M 79.91906864156998 93.8553929516997 l -9.319256922004522 -2.8516193171404467 a30.745782796072245,30.745782796072245 0 0,0 0.15921120363460747,-0.5047430239064531 l 9.268790234601711 3.0116125074733144" fill="#ff6a09" stroke="none" /><path d="M 80.02781315780177 93.51064311812611 l -5.966874158394431 -1.9387549390054957 a27.273942774335246,27.273942774335246 0 0,0 0.14891924228662348,-0.44524957963807166 l 5.932617622336035 2.0411776215658897" fill="#ff3905" stroke="none" /><path d="M 80.14247586403 93.16781622104843 l -8.343523355100887 -2.8706743366241567 a29.823556716203875,29.823556716203875 0 0,0 0.1711970419729662,-0.48399709129918406 l 8.292873232318112 3.013869054349952" fill="#ff5e08" stroke="none" /><path d="M 80.2630227832202 92.82701384747504 l -7.9661903808739005 -2.8951430942427225 a29.475968541734282,29.475968541734282 0 0,0 0.17741081776883738,-0.4753727885112564 l 7.915174974603436 3.0318390197833205" fill="#ff5908" stroke="none" /><path d="M 80.38941819471856 92.48833698450439 l -8.025962114159887 -3.074275071250933 a29.594604997999895,29.594604997999895 0 0,0 0.18631417473519657,-0.4741492524425656 l 7.971854389542999 3.211973328589262" fill="#ff5a08" stroke="none" /><path d="M 80.52162464483688 92.15188598940014 l -5.073098484963672 -2.0440234142239553 a26.469402157095093,26.469402157095093 0 0,0 0.1739144504174651,-0.4211476364563546 l 5.037162347660007 2.1310456211336213" fill="#ff2e04" stroke="none" /><path d="M 80.803312248108 91.48605970444005 l -27.644038839531984 -12.260432593884259 a51.24088442408278,51.24088442408278 0 0,0 0.36453663855745955,-0.8032081618988184 l 27.428899884011173 12.734462764625148" fill="#92ff23" stroke="none" /><path d="M 81.10775173730289 90.83032412892265 l -8.807603698417322 -4.274921120682908 a30.79024174862068,30.79024174862068 0 0,0 0.23553066836474834,-0.4748154551471322 l 8.732713017099162 4.425896164329002" fill="#ff6b09" stroke="none" /><path d="M 81.26839172434947 90.50648371742162 l -12.553738858962555 -6.36246084751412 a35.07399258828768,35.07399258828768 0 0,0 0.27756984331359474,-0.5361765885751982 l 12.442359582488846 6.577610158349653" fill="#ffa60f" stroke="none" /><path d="M 81.43458229118936 90.18545643968196 l -8.827797058373426 -4.666784239922387 a30.985433192696973,30.985433192696973 0 0,0 0.25333085339967615,-0.46938359706086297 l 8.746158105755278 4.818048820315722" fill="#ff6e0a" stroke="none" /><path d="M 81.6062741919709 89.86733742301443 l -12.30397027806073 -6.777962251151298 a35.047364766440495,35.047364766440495 0 0,0 0.295636802914849,-0.5259048843445727 l 12.18547583385345 6.988750645430655" fill="#ffa50f" stroke="none" /><line stroke="#e1ed5e" stroke-width="0.3" x1="26.266209847984243" x2="21.928928074336255" y1="57.711370442889674" y2="55.22380399835377" /><path d="M 25.398753493254645 57.213857153982495 a86.0,86.0 0 0,1 29.58750427330803,-30.492523968695096" fill="none" id="id35" stroke="none" /><text fill="#e1ed5e" style="font-size:6.75px; font-family:Arial;" text-anchor="middle"><textPath startOffset="21.46611528233685" xlink:href="#id35">November</textPath></text><path d="M 81.78341655067845 89.55222093294921 l -11.244831757045368 -6.449261914046899 a33.96299427139547,33.96299427139547 0 0,0 0.2952198109649056,-0.5046263538467725 l 11.132152271610137 6.641867680247564" fill="#ff970d" stroke="none" /><path d="M 81.96595687620814 89.24020034530311 l -4.567890154294136 -2.725377918167755 a26.319145162385936,26.319145162385936 0 0,0 0.23547388469638367,-0.38705715275170965 l 4.520300471311535 2.803602844126539" fill="#ff2b04" stroke="none" /><path d="M 82.15384107792192 88.93136811851018 l -2.946792221609921 -1.8276738694670174 a24.4675605503687,24.4675605503687 0 0,0 0.22506940407200848,-0.35600574670762 l 2.9148952212919497 1.8781272638888529" fill="#ff1001" stroke="none" /><path d="M 82.34701348167596 88.62581576622439 l -11.656982761213271 -7.510835030568743 a34.867151472153246,34.867151472153246 0 0,0 0.3294171508362023,-0.5017249207352003 l 11.525968975019149 7.71037801528161" fill="#ffa30f" stroke="none" /><path d="M 82.54541684631803 88.32363383020206 l -7.19160232667327 -4.810872959523782 a29.652377861471926,29.652377861471926 0 0,0 0.2874523174924553,-0.42180080616721216 l 7.107725543512074 4.9339517889614095" fill="#ff5b08" stroke="none" /><path d="M 82.7489923806493 88.02491185347247 l -8.405720871244915 -5.8349779090789475 a31.232453790011547,31.232453790011547 0 0,0 0.31037233135875925,-0.43899965182968936 l 8.304035920082278 5.978804061240423" fill="#ff710a" stroke="none" /><path d="M 82.95767976084542 87.72973835380427 l -17.664622891498702 -12.718311926922222 a42.766817869623296,42.766817869623296 0 0,0 0.4352794248837401,-0.5937206463645701 l 17.44308085410133 13.020495016958293" fill="#f6ff19" stroke="none" /><path d="M 83.17141714833178 87.43820079747576 l -9.105442909968009 -6.796813878699687 a32.36247197965176,32.36247197965176 0 0,0 0.3370691074177597,-0.4435434345651175 l 8.987097862326141 6.9525420891458305" fill="#ff810b" stroke="none" /><path d="M 83.39014120810768 87.1503855733568 l -7.11980036958889 -5.507975154403234 a30.00163027480697,30.00163027480697 0 0,0 0.3195115326899504,-0.4057471996120807 l 7.0239347563049686 5.629714747968363" fill="#ff6008" stroke="none" /><path d="M 83.6137871275137 86.86637796730984 l -7.05547215286542 -5.654992110684399 a30.042047504396457,30.042047504396457 0 0,0 0.3268882455174876,-0.40072633730321217 l 6.95708541527154 5.775602617595694" fill="#ff6108" stroke="none" /><path d="M 83.84228863543731 86.58626213691792 l -6.76976801242031 -5.620096278712177 a29.798593133222134,29.798593133222134 0 0,0 0.33103311957124687,-0.39183880035155116 l 6.672024279361939 5.735794028692844" fill="#ff5d08" stroke="none" /><path d="M 84.07557802195018 86.31012108654704 l -10.366444986578886 -8.911807086301298 a34.670533537620855,34.670533537620855 0 0,0 0.39294614647861975,-0.4492053730347989 l 10.211506976522424 9.088928015539041" fill="#ffa00e" stroke="none" /><path d="M 84.5562425177563 85.77008943001954 l -9.469038824306253 -8.72479225398812 a33.87574060516405,33.87574060516405 0 0,0 0.39881857476423216,-0.42543184873751566 l 9.317452927571564 8.886493519603686" fill="#ff950d" stroke="none" /><path d="M 84.80347519578584 85.50635884689758 l -6.863227877960094 -6.545783545691789 a30.484259545787324,30.484259545787324 0 0,0 0.36542750105828636,-0.3766051618247694 l 6.7495361131986895 6.662952903066682" fill="#ff6709" stroke="none" /><path d="M 85.05521093208273 85.24692304244772 l -8.318145090072877 -8.211439726598497 a32.688425048870506,32.688425048870506 0 0,0 0.39874305935403187,-0.3970307299370387 l 8.175566230551532 8.353406307185645" fill="#ff850c" stroke="none" /><path d="M 85.57189188830299 84.74124197986013 l -8.012596747032754 -8.473895117046798 a32.662272723842015,32.662272723842015 0 0,0 0.4118434435531274,-0.3827635964626977 l 7.865545419684771 8.610563299584143" fill="#ff850c" stroke="none" /><path d="M 86.10567301691215 84.25364557470407 l -7.1369752690671815 -8.088289720552432 a31.78688308061558,31.78688308061558 0 0,0 0.41339023290505084,-0.35848793636025883 l 6.996691237515357 8.209942650332371" fill="#ff790b" stroke="none" /><path d="M 86.37877921826538 84.01681056812374 l -7.068861820027471 -8.294627871296322 a31.898149336191345,31.898149336191345 0 0,0 0.42096817492753275,-0.3525487401052068 l 6.925036108140827 8.415077768795342" fill="#ff7a0b" stroke="none" /><path d="M 86.65592168130627 83.78471172551755 l -6.350656490715679 -7.717110411807627 a30.99422988384292,30.99422988384292 0 0,0 0.41487488973613534,-0.3354666415519645 l 6.216878202415042 7.825283150623726" fill="#ff6e0a" stroke="none" /><path d="M 86.93701828274178 83.55741782278169 l -15.208776092013181 -19.143527574371213 a45.449570920727886,45.449570920727886 0 0,0 0.6167451473514427,-0.4813793701572246 l 14.876998389502313 19.40248533375166" fill="#d5ff1c" stroke="none" /><path d="M 87.51073957382395 83.11751280151077 l -6.301141210842562 -8.51763292604297 a31.595020114270184,31.595020114270184 0 0,0 0.4400053148721329,-0.3196825738029952 l 6.1535905796166475 8.624834734662633" fill="#ff760a" stroke="none" /><path d="M 87.80319425747018 82.90503203632743 l -3.1455612917078195 -4.408799372938129 a26.415908764991357,26.415908764991357 0 0,0 0.3724251430910948,-0.2609076128582871 l 3.0692050090330643 4.462291828560359" fill="#ff2d04" stroke="none" /><path d="M 88.09926311788651 82.69761687909137 l -6.740933494817484 -9.800587566572956 a32.89502841659559,32.89502841659559 0 0,0 0.4692950519512154,-0.31687011396543724 l 6.571233748459729 9.915169592837058" fill="#ff880c" stroke="none" /><path d="M 88.39885842347998 82.49532879139004 l -2.168039564395282 -3.2713004570866904 a24.92451299313926,24.92451299313926 0 0,0 0.3596642525328176,-0.23393563455939984 l 2.111408286078177 3.3081350158056253" fill="#ff1702" stroke="none" /><path d="M 88.70189139769569 82.29822771554957 l -1.3532864643307148 -2.12031674242585 a23.515378170922236,23.515378170922236 0 0,0 0.34307911887116316,-0.21483611276298448 l 1.3165881930873093 2.1432971965117646" fill="#ff0200" stroke="none" /><line stroke="#e1ed5e" stroke-width="0.3" x1="56.762969772571076" x2="54.21961505331055" y1="26.818313649435495" y2="22.513508569990535" /><path d="M 56.25429882871897 25.957352633546506 a86.0,86.0 0 0,1 42.265352541879196,-11.944610805530505" fill="none" id="id36" stroke="none" /><text fill="#e1ed5e" style="font-size:6.75px; font-family:Arial;" text-anchor="middle"><textPath startOffset="22.20632615414155" xlink:href="#id36">December</textPath></text><path d="M 89.94658935756843 81.56283822128135 l -4.167908994986925 -7.6436161967979235 a29.706109001985013,29.706109001985013 0 0,0 0.4510447620787153,-0.24093249123313962 l 4.035719186379905 7.714227414532813" fill="#ff5c08" stroke="none" /><path d="M 90.26544431104013 81.39251694778311 l -3.977529183091757 -7.6029979414485265 a29.580577841848246,29.580577841848246 0 0,0 0.45320193769899403,-0.2321476349481845 l 3.846066757803999 7.670338101709216" fill="#ff5a08" stroke="none" /><path d="M 90.58718382345135 81.22770947309562 l -5.662907304028832 -11.29372327518849 a33.63395047285517,33.63395047285517 0 0,0 0.5197706348757034,-0.25504919319442343 l 5.4676654021427025 11.389527628517744" fill="#ff920d" stroke="none" /><path d="M 90.91171255644093 81.06846463323043 l -6.011756757929881 -12.522907795992378 a34.89116406149759,34.89116406149759 0 0,0 0.5436737673353361,-0.2552621236332631 l 5.795304779294937 12.624534902265648" fill="#ffa30f" stroke="none" /><path d="M 91.23893434514133 80.91482961587045 l -5.072131520825721 -11.049168913828277 a33.15774040892727,33.15774040892727 0 0,0 0.5207626522905249,-0.23365102221579953 l 4.881186750068421 11.134840266560605" fill="#ff8c0c" stroke="none" /><path d="M 91.56875222667455 80.76684994638697 l -5.182436830894748 -11.822044363032143 a33.90807438883564,33.90807438883564 0 0,0 0.5365811362602166,-0.22973603951983312 l 4.978171936844223 11.909499930514762" fill="#ff960d" stroke="none" /><path d="M 92.23578459929587 80.48803036053334 l -3.5059482152689334 -8.810671987238509 a30.482595306921876,30.482595306921876 0 0,0 0.4891975139492633,-0.18980103527293665 l 3.3537675363199937 8.869715726401997" fill="#ff6709" stroke="none" /><path d="M 92.91201910852362 80.23233633223022 l -3.96445028751518 -11.056451916431415 a32.745722415523836,32.745722415523836 0 0,0 0.5322240166841216,-0.18568250892858207 l 3.773544266767773 11.123055278532206" fill="#ff860c" stroke="none" /><path d="M 93.25333710446033 80.11325718540243 l -2.3695022719551018 -6.984442977301962 a28.375431154853462,28.375431154853462 0 0,0 0.46389394960662395,-0.15293854166458903 l 2.2489255001060684 7.024195243225785" fill="#ff4906" stroke="none" /><path d="M 93.59665428221793 80.00007090966166 l -4.7544091636082895 -14.84971299840361 a36.592253930396325,36.592253930396325 0 0,0 0.6015324429645781,-0.1868990581389855 l 4.4980913479329825 14.92935219142512" fill="#ffba11" stroke="none" /><path d="M 93.94186890950719 79.89281104454417 l -1.8138316909478924 -6.020182792102049 a27.287494433668193,27.287494433668193 0 0,0 0.45090607153812157,-0.13163184694058533 l 1.7099354016863495 6.050512967961334" fill="#ff3905" stroke="none" /><path d="M 94.28887869178378 79.79150937346287 l -2.0112399079201237 -7.116662496460911 a28.39540202123886,28.39540202123886 0 0,0 0.47150174386414123,-0.12887923767963158 l 1.8884402748322602 7.150228274966839" fill="#ff4906" stroke="none" /><path d="M 94.63758080256005 79.69619591428918 l -2.386260960668579 -9.035133819065342 a30.344938977908267,30.344938977908267 0 0,0 0.5061696379693984,-0.12903391105551845 l 2.230382434014181 9.074870726289724" fill="#ff6509" stroke="none" /><path d="M 94.98787191387505 79.60689891045804 l -2.4091262560043276 -9.80213482815236 a31.093846467360542,31.093846467360542 0 0,0 0.520860888973387,-0.12327094407961443 l 2.240041680068406 9.842151684372844" fill="#ff6f0a" stroke="none" /><path d="M 95.33964822691252 79.52364482259891 l -3.3097808232610513 -14.542303026954796 a35.91419546693033,35.91419546693033 0 0,0 0.6039694969199563,-0.13200433889493235 l 3.0589686021875737 14.597120863945596" fill="#ffb110" stroke="none" /><path d="M 96.04723909329186 79.375362276772 l -2.0219663987659033 -10.55017630646839 a31.74218637965779,31.74218637965779 0 0,0 0.537508397307981,-0.09822622394082282 l 1.8400628803550292 10.58341801175995" fill="#ff780b" stroke="none" /><path d="M 96.40284397218896 79.31037775812273 l -2.328677501750237 -13.393763701623307 a34.59469179503823,34.59469179503823 0 0,0 0.5875674374246126,-0.09695366164713444 l 2.0977808581867388 13.431863626210069" fill="#ff9f0e" stroke="none" /><path d="M 97.11714578562143 79.19881850522333 l -1.5407657206688294 -11.117366683584237 a32.2236269085914,32.2236269085914 0 0,0 0.5500807447994233,-0.07141626809805189 l 1.3491702473615486 11.142241274846425" fill="#ff7f0b" stroke="none" /><path d="M 98.19473922651362 79.07773832637324 l -5.415782320459142 -62.766785020880285 a84.0,84.0 0 0,0 1.4416392425506632,-0.11189895124615123 l 4.334552888546145 62.8507092343149" fill="#4dd2ff" stroke="none" /></svg>